<svg width="376" height="470" viewBox="0 0 376 470" fill="none" xmlns="http://www.w3.org/2000/svg">
<rect width="375.907" height="470" rx="30" transform="matrix(1 1.13413e-08 0.000197657 1 0 0)" fill="#FF50FF"/>
<g filter="url(#filter0_f_491_777)">
<path d="M145.741 268L171.263 331.02L111.972 364.279M188.147 282.881L128.857 316.139L154.378 379.16" stroke="#FF00FF" stroke-width="10"/>
</g>
<path d="M145.741 268L171.263 331.02L111.972 364.279M188.147 282.881L128.857 316.139L154.378 379.16" stroke="#FF66FF" stroke-width="10"/>
<g filter="url(#filter1_f_491_777)">
<path d="M105.974 148.922L120.261 108.189M120.261 108.189L138.916 55.0001L158.851 92.9974L120.261 108.189ZM120.261 108.189L135.591 159.315" stroke="#FF00FF" stroke-width="10"/>
</g>
<g filter="url(#filter2_f_491_777)">
<path d="M97.3501 352.08C73.5843 344.834 98.5065 323.112 74.4904 316.487C28.3702 303.766 73.3062 274.39 67.0955 233.571C56.8204 166.038 166.091 182.313 122.557 131.452C97.3501 102.001 109.366 66.9044 159.676 66.7948C210.792 66.6834 255.136 54.4193 288.296 87.4504C328.926 127.922 262.707 168.436 260.985 221.575C258.935 284.798 337.363 334.293 288.296 381.874C250.525 418.501 194.114 435.408 145.203 409.953C117.471 395.52 127.963 361.414 97.3501 352.08Z" stroke="#FF00FF" stroke-width="5"/>
</g>
<path fill-rule="evenodd" clip-rule="evenodd" d="M345.725 0.145885C362.295 0.145885 375.733 13.5811 375.736 30.1521L375.811 439.348C375.814 455.914 362.389 469.342 345.822 469.342L30.0916 469.342C13.5207 469.342 0.0829881 455.907 0.0799672 439.336L0.00537126 30.1397C0.00235234 13.5736 13.4276 0.145874 29.9937 0.145874L345.725 0.145885ZM97.3499 352.08C85.4951 348.465 85.7549 341.249 86.0121 334.101C86.2707 326.92 86.5267 319.807 74.4903 316.488C46.6574 308.811 51.9867 295.068 59.224 276.405C63.9792 264.142 69.558 249.756 67.0954 233.571C61.9694 199.88 86.5953 187.048 107.159 176.332C117.27 171.063 126.399 166.306 130.526 159.832L130.802 160.751L140.38 157.88L126.37 111.158L160.683 97.6502L165.867 95.6093L163.278 90.6746L150.957 67.1906C153.723 66.9364 156.629 66.8015 159.676 66.7948C170.874 66.7704 181.747 66.1628 192.248 65.5759C229.684 63.4839 262.4 61.6555 288.296 87.4505C312.6 111.66 298.671 135.885 283.184 162.818C272.782 180.91 261.677 200.223 260.985 221.575C260.145 247.491 272.827 271.1 284.707 293.216C301.809 325.053 317.25 353.797 288.296 381.874C250.525 418.501 194.114 435.408 145.203 409.953C132.041 403.103 127.489 391.821 123.067 380.86C118.171 368.726 113.434 356.984 97.3499 352.08ZM139.247 69.1622C139.672 69.0536 140.101 68.9485 140.535 68.8469L151.835 90.3856L128.595 99.5344L139.247 69.1622ZM126.991 73.8921C110.917 82.728 106.154 98.6732 112.528 115.129L115.543 106.534L126.991 73.8921ZM118.993 126.91C119.842 128.096 120.75 129.277 121.716 130.45L119.889 124.356L118.993 126.91Z" fill="#FF6AFF"/>
<g filter="url(#filter3_f_491_777)">
<path d="M77.0382 367.325C45.3913 358.913 78.578 333.716 46.598 326.026C-14.8163 311.258 45.021 277.184 36.7508 229.824C23.0683 151.471 168.574 170.373 110.605 111.356C77.0382 77.1831 93.0387 36.4659 160.032 36.3482C228.099 36.2285 287.147 22.0081 331.304 60.337C385.407 107.3 297.229 154.292 294.936 215.943C292.207 289.294 396.642 346.733 331.304 401.927C281.008 444.415 205.89 464.02 140.76 434.478C103.831 417.728 117.803 378.159 77.0382 367.325Z" stroke="#FF00FF" stroke-width="5"/>
</g>
<g filter="url(#filter4_f_491_777)">
<path d="M212.947 284.774L232.724 228.387M252.501 172L242.612 200.193M232.724 228.387L278.175 210.876M232.724 228.387L242.612 200.193M242.612 200.193L287.503 184.282" stroke="#FF00FF" stroke-width="10"/>
</g>
<g filter="url(#filter5_f_491_777)">
<path d="M232.94 139.655L268.244 39L287.518 83.1925L263.903 150.52" stroke="#FF00FF" stroke-width="10"/>
</g>
<path fill-rule="evenodd" clip-rule="evenodd" d="M375.732 30.1074C375.728 13.5378 362.293 0.104743 345.723 0.104743L29.9975 0.104737C13.43 0.104736 0.00268109 13.5346 0.0058596 30.1021L0.0843947 439.38C0.0875742 455.95 13.5232 469.383 30.0928 469.383L345.819 469.383C362.386 469.383 375.813 455.953 375.81 439.385L375.732 30.1074ZM61.9405 346.464C61.5979 354.756 61.252 363.129 77.0381 367.325C98.4554 373.017 104.764 386.641 111.283 400.72C117.172 413.438 123.233 426.528 140.76 434.478C205.89 464.019 281.008 444.415 331.304 401.927C369.859 369.357 349.299 336.006 326.525 299.065C310.705 273.404 293.817 246.01 294.936 215.943C295.857 191.171 310.645 168.765 324.497 147.777C345.119 116.532 363.668 88.4294 331.304 60.3369C313.794 45.1382 293.943 38.2023 272.117 35.3735L272.826 37.0013L292.101 81.1939L292.886 82.9945L292.236 84.8481L268.622 152.176L259.186 148.865L282.15 83.3905L268.749 52.6655L237.658 141.311L228.222 138L263.526 37.3444L264.505 34.5539C245.473 32.8977 225.031 33.8902 203.406 34.94L203.406 34.94L203.404 34.9401C189.421 35.619 174.943 36.3219 160.032 36.3481C93.0387 36.4659 77.0381 77.1831 110.604 111.356C139.654 140.931 117.606 150.938 90.0999 163.423C62.717 175.852 29.9249 190.736 36.7507 229.824C40.03 248.603 32.6011 265.293 26.2691 279.519C16.6318 301.17 9.53524 317.114 46.5979 326.026C62.6256 329.88 62.2847 338.132 61.9405 346.464ZM257.219 173.655L250.788 191.99L285.832 179.569L289.174 188.995L246.539 204.107L241.024 219.831L276.378 206.21L279.973 215.543L236.677 232.222L217.665 286.429L208.229 283.118L228.006 226.731L237.895 198.537L247.783 170.344L257.219 173.655Z" fill="#FF8CFF"/>
<mask id="mask0_491_777" style="mask-type:alpha" maskUnits="userSpaceOnUse" x="0" y="0" width="376" height="470">
<rect width="375.907" height="470" rx="30" transform="matrix(1 1.13413e-08 0.000197657 1 0 0)" fill="#FF50FF"/>
</mask>
<g mask="url(#mask0_491_777)">
<g filter="url(#filter6_f_491_777)">
<path d="M28.9931 440.922L43.2798 400.189M43.2798 400.189L61.9351 347L81.8701 384.997L43.2798 400.189Z" stroke="#FF00FF" stroke-width="10"/>
</g>
<g filter="url(#filter7_f_491_777)">
<path d="M-5.73617 106.603L10.8529 59.3049M56.2289 75.4168L41.8354 43.7119M41.8354 43.7119L27.4419 12.0071L10.8529 59.3049M41.8354 43.7119L10.8529 59.3049M41.8354 43.7119L72.877 27.9507L39.6989 122.546" stroke="#FF00FF" stroke-width="10"/>
</g>
<path d="M28.9931 440.922L43.2798 400.189M43.2798 400.189L61.9351 347L81.8701 384.997L43.2798 400.189Z" stroke="#FFD7FF" stroke-width="10"/>
<path d="M-5.73617 106.603L10.8529 59.3049M56.2289 75.4168L41.8354 43.7119M41.8354 43.7119L27.4419 12.0071L10.8529 59.3049M41.8354 43.7119L10.8529 59.3049M41.8354 43.7119L72.877 27.9507L39.6989 122.546" stroke="#FFD7FF" stroke-width="10"/>
</g>
<defs>
<filter id="filter0_f_491_777" x="94.5259" y="251.123" width="111.067" height="144.913" filterUnits="userSpaceOnUse" color-interpolation-filters="sRGB">
<feFlood flood-opacity="0" result="BackgroundImageFix"/>
<feBlend mode="normal" in="SourceGraphic" in2="BackgroundImageFix" result="shape"/>
<feGaussianBlur stdDeviation="7.5" result="effect1_foregroundBlur_491_777"/>
</filter>
<filter id="filter1_f_491_777" x="86.2563" y="27.4975" width="94.6108" height="148.254" filterUnits="userSpaceOnUse" color-interpolation-filters="sRGB">
<feFlood flood-opacity="0" result="BackgroundImageFix"/>
<feBlend mode="normal" in="SourceGraphic" in2="BackgroundImageFix" result="shape"/>
<feGaussianBlur stdDeviation="7.5" result="effect1_foregroundBlur_491_777"/>
</filter>
<filter id="filter2_f_491_777" x="42.9302" y="53.9774" width="272.038" height="378.656" filterUnits="userSpaceOnUse" color-interpolation-filters="sRGB">
<feFlood flood-opacity="0" result="BackgroundImageFix"/>
<feBlend mode="normal" in="SourceGraphic" in2="BackgroundImageFix" result="shape"/>
<feGaussianBlur stdDeviation="4" result="effect1_foregroundBlur_491_777"/>
</filter>
<filter id="filter3_f_491_777" x="8.05322" y="23.171" width="355.286" height="435.944" filterUnits="userSpaceOnUse" color-interpolation-filters="sRGB">
<feFlood flood-opacity="0" result="BackgroundImageFix"/>
<feBlend mode="normal" in="SourceGraphic" in2="BackgroundImageFix" result="shape"/>
<feGaussianBlur stdDeviation="4" result="effect1_foregroundBlur_491_777"/>
</filter>
<filter id="filter4_f_491_777" x="193.229" y="155.344" width="110.944" height="146.085" filterUnits="userSpaceOnUse" color-interpolation-filters="sRGB">
<feFlood flood-opacity="0" result="BackgroundImageFix"/>
<feBlend mode="normal" in="SourceGraphic" in2="BackgroundImageFix" result="shape"/>
<feGaussianBlur stdDeviation="7.5" result="effect1_foregroundBlur_491_777"/>
</filter>
<filter id="filter5_f_491_777" x="213.222" y="10.3345" width="94.6636" height="156.841" filterUnits="userSpaceOnUse" color-interpolation-filters="sRGB">
<feFlood flood-opacity="0" result="BackgroundImageFix"/>
<feBlend mode="normal" in="SourceGraphic" in2="BackgroundImageFix" result="shape"/>
<feGaussianBlur stdDeviation="7.5" result="effect1_foregroundBlur_491_777"/>
</filter>
<filter id="filter6_f_491_777" x="9.27539" y="319.497" width="94.6108" height="138.081" filterUnits="userSpaceOnUse" color-interpolation-filters="sRGB">
<feFlood flood-opacity="0" result="BackgroundImageFix"/>
<feBlend mode="normal" in="SourceGraphic" in2="BackgroundImageFix" result="shape"/>
<feGaussianBlur stdDeviation="7.5" result="effect1_foregroundBlur_491_777"/>
</filter>
<filter id="filter7_f_491_777" x="-25.4541" y="-16.4005" width="122.171" height="155.602" filterUnits="userSpaceOnUse" color-interpolation-filters="sRGB">
<feFlood flood-opacity="0" result="BackgroundImageFix"/>
<feBlend mode="normal" in="SourceGraphic" in2="BackgroundImageFix" result="shape"/>
<feGaussianBlur stdDeviation="7.5" result="effect1_foregroundBlur_491_777"/>
</filter>
</defs>
</svg>
