<svg width="377" height="470" viewBox="0 0 377 470" fill="none" xmlns="http://www.w3.org/2000/svg">
<rect width="375.909" height="470" rx="30" transform="matrix(1 0 0.000197668 1 0 0)" fill="#AC43FF"/>
<circle cx="122.563" cy="261.454" r="44.876" transform="rotate(4.26678 122.563 261.454)" fill="#9817FF"/>
<path d="M82.1077 256.557C53.0272 265.543 33.872 276.547 35.4336 284.786C37.6067 296.25 79.0792 298.017 128.065 288.732C177.051 279.446 215 262.625 212.826 251.16C211.315 243.187 190.794 239.904 161.956 241.768" stroke="#9817FF" stroke-width="2"/>
<path d="M83.8454 264.075C60.6732 270.766 45.5485 277.993 46.4633 282.819C47.8163 289.957 83.7361 289.142 126.692 280.999C169.649 272.857 203.375 260.47 202.022 253.332C201.112 248.531 184.561 247.328 160.749 249.534" stroke="#9817FF" stroke-width="7"/>
<path fill-rule="evenodd" clip-rule="evenodd" d="M345.817 0.145874C362.388 0.145876 375.826 13.5811 375.829 30.1521L375.904 439.86C375.907 456.426 362.481 469.854 345.915 469.854H30.0917C13.5207 469.854 0.0830014 456.418 0.0799836 439.847L0.0053716 30.1397C0.00235527 13.5736 13.4276 0.14589 29.9937 0.14589L345.817 0.145874ZM303.691 356.295C307.745 336.327 296.662 315.679 284.777 293.536C272.894 271.395 260.209 247.76 261.049 221.816C261.741 200.441 272.849 181.107 283.254 162.995C298.745 136.033 312.677 111.782 288.367 87.5457C262.465 61.7226 229.741 63.5529 192.296 65.6473C181.792 66.2348 170.916 66.8431 159.715 66.8675C109.393 66.9772 97.374 102.112 122.588 131.595C144.409 157.11 127.847 165.748 107.185 176.524C86.6167 187.251 61.9847 200.098 67.112 233.825C69.5752 250.028 63.995 264.43 59.2387 276.706C51.9996 295.389 46.6689 309.147 74.5087 316.833C85.1729 319.776 86.1901 325.699 86.1036 332.01H86.4608C86.4608 332.01 87.0424 339.015 90.3067 341.78C92.4478 343.593 97.0756 344.711 97.0756 344.711V352.371C97.1742 352.402 97.2737 352.433 97.374 352.464C107.61 355.587 113.251 361.482 117.262 368.485C119.846 368.145 122.487 367.932 124.766 368.019C130.829 368.25 139.996 370.81 139.996 370.81V357.97L142.765 356.574V350.712L145.688 348.758V341.78L156.765 334.243V340.943L162.918 337.174V341.78L166.764 338.43V348.758C166.764 348.758 170.673 345.437 173.841 344.711C176.345 344.137 180.456 344.711 180.456 344.711V290C180.456 290 188.744 296.013 193.224 300.607C202.528 310.148 205.548 318.475 209.349 328.958C210.423 331.919 211.558 335.051 212.916 338.43C213.302 339.393 213.666 340.288 214.012 341.136C215.81 345.553 217.104 348.73 218.454 353.923C220.799 362.944 221.377 377.51 221.377 377.51L223.838 378.487V325.311H244.914V353.923L250.452 349.596L251.067 396.631L255.529 391.467L260.144 384.767H267.682V379.464H263.221V372.764H269.528V368.019H263.221V357.97H273.835V353.923H261.836L258.605 348.758L252.76 341.78H257.682V334.243H260.144V326.986H281.373V333.685H284.45V340.943H286.142V381.138L295.527 373.741V356.295H303.691Z" fill="#C276FF"/>
<path fill-rule="evenodd" clip-rule="evenodd" d="M375.824 30.1075C375.821 13.5379 362.386 0.104794 345.816 0.104797L29.9975 0.104805C13.43 0.104809 0.00268471 13.5346 0.00585994 30.1021L0.0844123 439.892C0.0875885 456.461 13.5233 469.895 30.0928 469.895H345.911C362.479 469.895 375.906 456.465 375.903 439.897L375.824 30.1075ZM61.9558 346.841C61.6131 355.143 61.2671 363.525 77.0571 367.725C98.4798 373.424 104.79 387.062 111.31 401.157C117.201 413.889 123.264 426.993 140.795 434.952C205.941 464.525 281.077 444.9 331.386 402.366C369.951 369.76 349.385 336.373 326.606 299.392C316.612 283.167 306.192 266.25 300.152 248.404C297.903 252.768 295.19 257.046 292.084 260.152C286.973 265.264 276.866 271.141 276.866 271.141C276.866 271.141 268.464 277.589 262.397 276.393C256.136 275.159 250.816 265.482 250.816 265.482C250.816 265.482 244.406 255.966 242.005 249.274C239.183 241.411 239.335 230.313 239.864 222.966C239.848 220.437 240.108 217.866 240.668 215.289C244.723 196.621 262.976 184.739 281.436 188.749C287.987 190.172 293.683 193.405 298.125 197.818C303.346 180.134 314.223 163.64 324.577 147.939L324.578 147.939C345.205 116.659 363.758 88.5258 331.386 60.4027C322.134 52.3654 312.229 46.6362 301.725 42.602C302.622 44.6361 303.676 46.4865 304.912 47.9542C311.403 55.6617 327.135 57.8478 327.135 57.8478C327.135 57.8478 311.36 59.5695 304.702 67.0832C298.044 74.5969 296.156 92.8091 296.156 92.8091C296.156 92.8091 294.668 74.5472 288.178 66.8396C281.688 59.1321 265.956 56.946 265.956 56.946C265.956 56.946 281.73 55.2243 288.388 47.7106C290.23 45.6324 291.706 42.7359 292.879 39.6327C266.321 31.9235 236.248 33.3847 203.456 34.9781C189.469 35.6578 174.987 36.3615 160.072 36.3877C93.0617 36.5056 77.0571 77.2672 110.632 111.477C113.25 114.145 115.453 116.654 117.274 119.019C129.939 108.439 155.647 104.025 155.647 104.025C155.647 104.025 163.212 92.2169 169.537 86.3751C178.975 77.6576 185.766 72.9237 197.478 71.3036C197.955 71.2376 198.427 71.1784 198.893 71.1262L198.49 62.1093C198.096 62.0606 197.703 61.9696 197.316 61.8339C193.96 60.6562 192.345 56.5522 193.709 52.6675C195.072 48.7828 198.898 46.5883 202.253 47.766C205.609 48.9438 207.224 53.0477 205.861 56.9324C205.029 59.3022 203.281 61.043 201.282 61.773L201.69 70.8917C213.559 70.2478 221.803 74.4894 231.219 83.1456C238.119 89.4892 244.716 103.851 244.716 103.851C244.716 103.851 292.523 113.859 285.353 135.763C281.682 146.976 274.009 151.049 264.725 155.977L264.724 155.977L264.718 155.98L264.718 155.981C263.563 156.593 262.384 157.219 261.185 157.874C255.113 161.187 250.4 162.067 245.115 163.053C242.288 163.581 239.296 164.139 235.846 165.118C230.827 166.54 226.591 168.154 222.588 169.679C215.061 172.546 208.356 175.1 198.811 175.485C186.206 175.992 178.036 172.687 168.475 168.82C164.387 167.166 160.046 165.41 154.994 163.804C151.602 162.727 148.563 162.041 145.699 161.395C139.563 160.011 134.234 158.809 127.975 154.322C126.893 153.546 125.83 152.812 124.797 152.098C122.548 150.544 120.437 149.086 118.555 147.495C112.313 153.521 101.701 158.341 90.1221 163.601C62.7326 176.044 29.9323 190.944 36.7598 230.075C40.0399 248.874 32.6092 265.582 26.2756 279.824C16.636 301.499 9.53761 317.46 46.6094 326.381C62.6411 330.24 62.3001 338.5 61.9558 346.841ZM298.095 241.643C296.394 241.077 285.826 237.749 280.159 240.498C274.706 243.144 271.436 252.558 271.436 252.558C271.436 252.558 282.294 254.212 288.079 251.635C292.793 249.536 297.304 243.217 298.177 241.947C298.15 241.846 298.123 241.744 298.095 241.643ZM197.355 123.369C200.925 124.622 204.995 122.287 206.445 118.155C207.895 114.022 206.177 109.656 202.607 108.403C199.038 107.15 194.968 109.485 193.517 113.618C192.067 117.75 193.785 122.116 197.355 123.369ZM172.493 123.048C171.043 127.181 166.973 129.515 163.403 128.262C159.833 127.009 158.115 122.644 159.566 118.511C161.016 114.378 165.086 112.044 168.656 113.297C172.226 114.549 173.944 118.915 172.493 123.048ZM265.137 138.754C268.707 140.006 272.777 137.672 274.227 133.539C275.678 129.406 273.959 125.041 270.39 123.788C266.82 122.535 262.75 124.869 261.299 129.002C259.849 133.135 261.567 137.501 265.137 138.754ZM241.65 122.106C240.199 126.238 236.129 128.573 232.559 127.32C228.99 126.067 227.271 121.701 228.722 117.568C230.172 113.436 234.242 111.101 237.812 112.354C241.382 113.607 243.1 117.973 241.65 122.106ZM131.237 138.825C134.807 140.078 138.876 137.744 140.327 133.611C141.777 129.478 140.059 125.112 136.489 123.859C132.919 122.606 128.85 124.941 127.399 129.074C125.949 133.206 127.667 137.572 131.237 138.825ZM262.719 250.824C262.719 250.824 252.153 247.824 247.959 243.079C244.151 238.773 242.745 229.808 242.745 229.808C242.745 229.808 255.409 230.945 259.785 236.232C263.649 240.902 262.719 250.824 262.719 250.824ZM321.394 68.0287C321.394 68.0287 322.499 81.5899 327.318 87.3135C332.138 93.0371 343.821 94.6604 343.821 94.6604C343.821 94.6604 332.106 95.9389 327.162 101.519C322.218 107.098 320.816 120.622 320.816 120.622C320.816 120.622 319.711 107.061 314.892 101.338C310.072 95.6141 298.389 93.9907 298.389 93.9907C298.389 93.9907 310.104 92.7122 315.048 87.1326C319.992 81.553 321.394 68.0287 321.394 68.0287Z" fill="#CF93FF"/>
<path fill-rule="evenodd" clip-rule="evenodd" d="M69.9908 65.8384C63.7621 47.8942 75.9337 17 75.9337 17C75.9337 17 62.0927 47.1832 44.8387 55.1262C30.1808 61.8741 4 56.7415 4 56.7415C4 56.7415 25.842 72.0617 31.1335 87.306C37.3622 105.25 25.1906 136.144 25.1906 136.144C25.1906 136.144 39.0316 105.961 56.2855 98.0181C70.9434 91.2703 97.1243 96.4028 97.1243 96.4028C97.1243 96.4028 75.2823 81.0826 69.9908 65.8384Z" fill="#EBD2FF"/>
</svg>
