<svg width="708" height="834" viewBox="0 0 708 834" fill="none" xmlns="http://www.w3.org/2000/svg">
<rect x="1" y="1" width="706" height="832" rx="49" fill="black" stroke="white" stroke-width="2"/>
<g style="mix-blend-mode:lighten">
<g style="mix-blend-mode:color-dodge">
<path d="M626.964 572.454L656.891 567.56" stroke="black" stroke-width="6" stroke-miterlimit="10"/>
<path d="M208.319 410.403L131.758 418.061V447.665L183.311 489.703L231.79 476.746L208.319 410.403Z" fill="white"/>
<path d="M208.319 410.403L131.758 418.061V447.665L183.311 489.703L231.79 476.746L208.319 410.403Z" fill="black" stroke="white" stroke-width="6" stroke-miterlimit="10"/>
<path d="M458.663 499.086L468.201 430.397L484.731 424.038H550.24L597.303 450.058V524.522L586.799 526.202" fill="black"/>
<path d="M458.663 499.086L468.201 430.397L484.731 424.038H550.24L597.303 450.058V524.522L586.799 526.202" stroke="white" stroke-width="6" stroke-miterlimit="10"/>
<path d="M142.477 546.804H30V466.183L59.6643 432.589H173.88V461.824L142.477 546.804Z" fill="black"/>
<path d="M142.477 546.804H30V466.183L59.6643 432.589H173.88V461.824L142.477 546.804Z" stroke="white" stroke-width="6" stroke-miterlimit="10"/>
<path d="M328.288 556.208L328.335 558.725L330.822 559.116L336.397 559.992V561.724L275.997 598.705L98.185 574.435L95.7607 489.561L169.031 464.866L336.397 479.085V481.149L328.868 484.221L326.964 484.999L327.002 487.055L328.288 556.208Z" fill="black" stroke="white" stroke-width="6"/>
<path d="M168.663 461.824L92.6985 487.428L95.2588 577.064L276.651 601.822L339.397 563.405V557.427L331.287 556.152L330.001 486.999L339.397 483.164V476.329L168.663 461.824Z" stroke="white" stroke-width="6" stroke-miterlimit="10"/>
<path d="M474.334 624.389V658.019C474.334 658.388 474.536 658.734 474.87 658.912L488.076 665.938C488.279 666.046 488.517 666.081 488.743 666.046L511.953 661.663C512.429 661.568 512.775 661.151 512.775 660.663V625.675C512.775 625.211 512.465 624.818 512.025 624.699L497.151 620.745C497.02 620.709 496.889 620.698 496.77 620.721L475.239 623.389C474.715 623.437 474.334 623.877 474.334 624.389Z" fill="black"/>
<path d="M474.334 624.389V658.019C474.334 658.388 474.536 658.734 474.87 658.912L488.076 665.938C488.279 666.046 488.517 666.081 488.743 666.046L511.953 661.663C512.429 661.568 512.775 661.151 512.775 660.663V625.675C512.775 625.211 512.465 624.818 512.025 624.699L497.151 620.745C497.02 620.709 496.889 620.698 496.77 620.721L475.239 623.389C474.715 623.437 474.334 623.877 474.334 624.389Z" stroke="white" stroke-width="6" stroke-miterlimit="10"/>
<path d="M515.596 678.294V685.558C515.596 686.046 515.203 686.463 514.655 686.558L488.599 691L472.415 683.807C472.034 683.629 471.808 683.283 471.808 682.914V674.352L493.374 670.886C493.589 670.851 493.803 670.874 493.994 670.934L515.596 678.294Z" fill="black"/>
<path d="M515.454 677.894V685.158C515.454 685.647 515.061 686.064 514.513 686.159L488.457 690.601L472.274 683.408C471.893 683.229 471.666 682.884 471.666 682.515V673.952L493.233 670.487C493.447 670.451 493.662 670.475 493.852 670.535L515.454 677.894Z" stroke="white" stroke-width="6" stroke-miterlimit="10"/>
<path d="M471.666 673.941L488.029 681.812C488.255 681.92 488.517 681.955 488.779 681.92L515.454 677.883" stroke="white" stroke-width="6" stroke-miterlimit="10"/>
<path d="M475.226 623.377L488.742 630.296L512.774 625.664" stroke="white" stroke-width="6" stroke-miterlimit="10"/>
<path d="M488.744 630.296V666.034" stroke="white" stroke-width="6" stroke-miterlimit="10"/>
<path d="M520.634 610.455V617.761C520.634 618.252 520.174 618.671 519.533 618.767L489.063 623.234L470.137 616C469.691 615.821 469.427 615.473 469.427 615.102V606.491L494.647 603.006C494.898 602.97 495.149 602.994 495.371 603.054L520.634 610.455Z" fill="black"/>
<path d="M520.634 610.455V617.761C520.634 618.252 520.174 618.671 519.533 618.767L489.063 623.234L470.137 616C469.691 615.821 469.427 615.473 469.427 615.102V606.491L494.647 603.006C494.898 602.97 495.149 602.994 495.371 603.054L520.634 610.455Z" stroke="white" stroke-width="6" stroke-miterlimit="10"/>
<path d="M469.427 606.562L488.561 614.772C488.826 614.884 489.132 614.921 489.439 614.884L520.634 610.673" stroke="white" stroke-width="6" stroke-miterlimit="10"/>
<path d="M489.672 614.897V623.233" stroke="white" stroke-width="6" stroke-miterlimit="10"/>
<path d="M631.527 588.662V622.292C631.527 622.661 631.73 623.007 632.063 623.185L645.27 630.211C645.472 630.318 645.711 630.354 645.937 630.318L669.147 625.936C669.623 625.841 669.968 625.424 669.968 624.936V589.948C669.968 589.484 669.659 589.091 669.218 588.972L654.344 585.018C654.213 584.982 654.082 584.971 653.963 584.994L632.432 587.662C631.908 587.709 631.527 588.15 631.527 588.662Z" fill="black"/>
<path d="M631.527 588.662V622.292C631.527 622.661 631.73 623.007 632.063 623.185L645.27 630.211C645.472 630.318 645.711 630.354 645.937 630.318L669.147 625.936C669.623 625.841 669.968 625.424 669.968 624.936V589.948C669.968 589.484 669.659 589.091 669.218 588.972L654.344 585.018C654.213 584.982 654.082 584.971 653.963 584.994L632.432 587.662C631.908 587.709 631.527 588.15 631.527 588.662Z" stroke="white" stroke-width="6" stroke-miterlimit="10"/>
<path d="M672.789 642.567V649.831C672.789 650.319 672.396 650.736 671.849 650.831L645.793 655.273L629.609 648.08C629.228 647.902 629.001 647.556 629.001 647.187V638.625L650.568 635.159C650.782 635.124 650.997 635.147 651.187 635.207L672.789 642.567Z" fill="black"/>
<path d="M672.648 642.167V649.431C672.648 649.92 672.255 650.336 671.707 650.432L645.651 654.874L629.467 647.681C629.086 647.502 628.86 647.157 628.86 646.788V638.225L650.426 634.76C650.641 634.724 650.855 634.748 651.046 634.808L672.648 642.167Z" stroke="white" stroke-width="6" stroke-miterlimit="10"/>
<path d="M628.86 638.214L645.222 646.085C645.449 646.193 645.711 646.228 645.973 646.193L672.648 642.156" stroke="white" stroke-width="6" stroke-miterlimit="10"/>
<path d="M334.612 84C338.851 84.0238 342.567 86.346 344.067 89.8471C345.472 93.1458 344.377 96.2539 344.067 97.0518H345.163C346.639 97.0518 347.402 98.8024 346.401 99.8861L343.615 102.911V108.877C343.615 109.806 344.365 110.568 345.306 110.568H366.086C366.408 110.568 366.729 110.663 367.003 110.83L423.426 147.128C424.129 147.58 424.403 148.497 424.045 149.259L385.057 233.382C384.783 233.977 384.187 234.358 383.52 234.358H371.779C370.719 234.358 369.921 235.323 370.123 236.359L371.278 242.432C371.433 243.23 372.124 243.802 372.934 243.802H440.122C441.325 243.802 442.146 245.04 441.67 246.148L437.836 255.21C437.752 255.412 437.705 255.627 437.705 255.841L436.811 306.465C436.811 306.715 436.859 306.953 436.954 307.179L441.587 317.516C442.087 318.635 441.265 319.898 440.051 319.898H410.255C409.279 319.898 408.505 320.731 408.576 321.708L408.862 325.709C408.886 326.031 408.993 326.34 409.195 326.602L484.517 427.813C484.732 428.099 484.851 428.456 484.851 428.826L487.447 516.378L339.339 533.038H330.563L329.932 486.666L339.328 482.903V475.388L184.79 462.491V428.838C184.79 428.48 184.909 428.123 185.123 427.825L260.445 326.614C260.635 326.352 260.755 326.042 260.778 325.721L261.064 321.72C261.136 320.743 260.362 319.91 259.385 319.91H229.59C228.363 319.91 227.553 318.647 228.054 317.528L232.686 307.191C232.781 306.965 232.841 306.715 232.829 306.477L231.936 255.853C231.936 255.639 231.888 255.424 231.805 255.222L227.97 246.159C227.494 245.052 228.316 243.814 229.518 243.814H296.707C297.516 243.814 298.207 243.242 298.362 242.444L299.517 236.371C299.72 235.335 298.922 234.37 297.862 234.37H286.12C285.465 234.37 284.869 233.989 284.584 233.393L245.595 149.271C245.238 148.509 245.5 147.604 246.214 147.139L302.637 110.842C302.911 110.663 303.221 110.58 303.554 110.58H324.335C325.263 110.58 326.026 109.818 326.026 108.889V102.923L323.239 99.898C322.239 98.8143 323.013 97.0637 324.478 97.0637H325.573C325.264 96.2659 324.168 93.1577 325.573 89.859C327.062 86.346 330.789 84.0357 335.029 84.0119" fill="black"/>
<path d="M334.612 84C338.851 84.0238 342.567 86.346 344.067 89.8471C345.472 93.1458 344.377 96.2539 344.067 97.0518H345.163C346.639 97.0518 347.402 98.8024 346.401 99.8861L343.615 102.911V108.877C343.615 109.806 344.365 110.568 345.306 110.568H366.086C366.408 110.568 366.729 110.663 367.003 110.83L423.426 147.128C424.129 147.58 424.403 148.497 424.045 149.259L385.057 233.382C384.783 233.977 384.187 234.358 383.52 234.358H371.779C370.719 234.358 369.921 235.323 370.123 236.359L371.278 242.432C371.433 243.23 372.124 243.802 372.934 243.802H440.122C441.325 243.802 442.146 245.04 441.67 246.148L437.836 255.21C437.752 255.412 437.705 255.627 437.705 255.841L436.811 306.465C436.811 306.715 436.859 306.953 436.954 307.179L441.587 317.516C442.087 318.635 441.265 319.898 440.051 319.898H410.255C409.279 319.898 408.505 320.731 408.576 321.708L408.862 325.709C408.886 326.031 408.993 326.34 409.195 326.602L484.517 427.813C484.732 428.099 484.851 428.456 484.851 428.826L487.447 516.378L339.339 533.038H330.563L329.932 486.666L339.328 482.903V475.388L184.79 462.491V428.838C184.79 428.48 184.909 428.123 185.123 427.825L260.445 326.614C260.635 326.352 260.755 326.042 260.778 325.721L261.064 321.72C261.136 320.743 260.362 319.91 259.385 319.91H229.59C228.363 319.91 227.553 318.647 228.054 317.528L232.686 307.191C232.781 306.965 232.841 306.715 232.829 306.477L231.936 255.853C231.936 255.639 231.888 255.424 231.805 255.222L227.97 246.159C227.494 245.052 228.316 243.814 229.518 243.814H296.707C297.516 243.814 298.207 243.242 298.362 242.444L299.517 236.371C299.72 235.335 298.922 234.37 297.862 234.37H286.12C285.465 234.37 284.869 233.989 284.584 233.393L245.595 149.271C245.238 148.509 245.5 147.604 246.214 147.139L302.637 110.842C302.911 110.663 303.221 110.58 303.554 110.58H324.335C325.263 110.58 326.026 109.818 326.026 108.889V102.923L323.239 99.898C322.239 98.8143 323.013 97.0637 324.478 97.0637H325.573C325.264 96.2659 324.168 93.1577 325.573 89.859C327.062 86.346 330.789 84.0357 335.029 84.0119" fill="black"/>
<path d="M334.612 84C338.851 84.0238 342.567 86.346 344.067 89.8471C345.472 93.1458 344.377 96.2539 344.067 97.0518H345.163C346.639 97.0518 347.402 98.8024 346.401 99.8861L343.615 102.911V108.877C343.615 109.806 344.365 110.568 345.306 110.568H366.086C366.408 110.568 366.729 110.663 367.003 110.83L423.426 147.128C424.129 147.58 424.403 148.497 424.045 149.259L385.057 233.382C384.783 233.977 384.187 234.358 383.52 234.358H371.779C370.719 234.358 369.921 235.323 370.123 236.359L371.278 242.432C371.433 243.23 372.124 243.802 372.934 243.802H440.122C441.325 243.802 442.146 245.04 441.67 246.148L437.836 255.21C437.752 255.412 437.705 255.627 437.705 255.841L436.811 306.465C436.811 306.715 436.859 306.953 436.954 307.179L441.587 317.516C442.087 318.635 441.265 319.898 440.051 319.898H410.255C409.279 319.898 408.505 320.731 408.576 321.708L408.862 325.709C408.886 326.031 408.993 326.34 409.195 326.602L484.517 427.813C484.732 428.099 484.851 428.456 484.851 428.826L487.447 516.378L339.339 533.038H330.563L329.932 486.666L339.328 482.903V475.388L184.79 462.491V428.838C184.79 428.48 184.909 428.123 185.123 427.825L260.445 326.614C260.635 326.352 260.755 326.042 260.778 325.721L261.064 321.72C261.136 320.743 260.362 319.91 259.385 319.91H229.59C228.363 319.91 227.553 318.647 228.054 317.528L232.686 307.191C232.781 306.965 232.841 306.715 232.829 306.477L231.936 255.853C231.936 255.639 231.888 255.424 231.805 255.222L227.97 246.159C227.494 245.052 228.316 243.814 229.518 243.814H296.707C297.516 243.814 298.207 243.242 298.362 242.444L299.517 236.371C299.72 235.335 298.922 234.37 297.862 234.37H286.12C285.465 234.37 284.869 233.989 284.584 233.393L245.595 149.271C245.238 148.509 245.5 147.604 246.214 147.139L302.637 110.842C302.911 110.663 303.221 110.58 303.554 110.58H324.335C325.263 110.58 326.026 109.818 326.026 108.889V102.923L323.239 99.898C322.239 98.8143 323.013 97.0637 324.478 97.0637H325.573C325.264 96.2659 324.168 93.1577 325.573 89.859C327.062 86.346 330.789 84.0357 335.029 84.0119" stroke="white" stroke-width="6" stroke-miterlimit="10"/>
<path d="M632.418 587.651L645.934 594.57L669.966 589.937" stroke="white" stroke-width="6" stroke-miterlimit="10"/>
<path d="M645.937 594.57V630.308" stroke="white" stroke-width="6" stroke-miterlimit="10"/>
<path d="M645.579 646.206L645.651 654.864" stroke="white" stroke-width="6" stroke-miterlimit="10"/>
<path d="M677.827 574.73V582.035C677.827 582.526 677.368 582.945 676.727 583.041L646.257 587.508L627.331 580.275C626.885 580.095 626.62 579.748 626.62 579.377V570.766L651.841 567.281C652.092 567.245 652.342 567.269 652.565 567.328L677.827 574.73Z" fill="black"/>
<path d="M677.827 574.73V582.035C677.827 582.526 677.368 582.945 676.727 583.041L646.257 587.508L627.331 580.275C626.885 580.095 626.62 579.748 626.62 579.377V570.766L651.841 567.281C652.092 567.245 652.342 567.269 652.565 567.328L677.827 574.73Z" stroke="white" stroke-width="6" stroke-miterlimit="10"/>
<path d="M626.62 570.835L645.755 579.046C646.02 579.157 646.326 579.195 646.633 579.158L677.827 574.947" stroke="white" stroke-width="6" stroke-miterlimit="10"/>
<path d="M646.865 579.171V587.507" stroke="white" stroke-width="6" stroke-miterlimit="10"/>
<path d="M517.239 504.671L675.457 553.628V569.954L487.432 608.979V588.258L346.017 532.252L517.239 504.671Z" fill="black"/>
<path d="M487.433 588.257V608.978L675.458 569.953V553.627L517.241 504.67L346.019 532.251L487.433 588.257Z" stroke="white" stroke-width="6" stroke-miterlimit="10"/>
<path d="M675.457 553.628L487.432 588.259L346.017 532.252V546.15L487.432 608.98V588.259" fill="black"/>
<path d="M675.458 553.628L487.433 588.259L346.019 532.252V546.15L487.433 608.98V588.259" stroke="white" stroke-width="6" stroke-miterlimit="10"/>
<path d="M675.459 553.628L487.434 588.259" stroke="white" stroke-width="6" stroke-miterlimit="10"/>
<path d="M423.686 526.203V479.414C424.758 471.888 431.201 466.66 437.834 467.076C443.121 467.41 447.885 471.304 449.659 476.842V521.832L423.686 526.203Z" fill="black"/>
<path d="M423.686 526.203V479.414C424.758 471.888 431.201 466.66 437.834 467.076C443.121 467.41 447.885 471.304 449.659 476.842V521.832L423.686 526.203Z" fill="black" stroke="white" stroke-width="6" stroke-miterlimit="10"/>
<path d="M534.35 488.548C534.35 502.814 522.787 514.389 508.509 514.389C494.242 514.389 482.667 502.814 482.667 488.548C482.667 474.281 494.23 462.706 508.509 462.706C522.787 462.706 534.35 474.281 534.35 488.548Z" fill="black"/>
<path d="M534.35 488.548C534.35 502.814 522.787 514.389 508.509 514.389C494.242 514.389 482.667 502.814 482.667 488.548C482.667 474.281 494.23 462.706 508.509 462.706C522.787 462.706 534.35 474.281 534.35 488.548Z" fill="black" stroke="white" stroke-width="6" stroke-miterlimit="10"/>
<path d="M453.445 521.677V469.398L481.073 465.85V518.188L453.445 521.677Z" fill="black"/>
<path d="M453.445 521.677V469.398L481.073 465.85V518.188L453.445 521.677Z" stroke="white" stroke-width="6" stroke-miterlimit="10"/>
<path d="M397.998 530.061V477.794L420.113 474.233V526.572L397.998 530.061Z" fill="white"/>
<path d="M397.998 530.061V477.794L420.113 474.233V526.572L397.998 530.061Z" fill="black" stroke="white" stroke-width="6" stroke-miterlimit="10"/>
<path d="M408.573 321.696H261.061" stroke="white" stroke-width="6" stroke-miterlimit="10"/>
<path d="M372.921 243.801H296.706" stroke="white" stroke-width="6" stroke-miterlimit="10"/>
<path d="M328.467 291.693C327.926 291.693 327.445 291.604 327.025 291.427C326.614 291.249 326.297 291.007 326.073 290.699C325.849 290.391 325.737 290.041 325.737 289.649C325.737 289.238 325.872 288.883 326.143 288.585C326.423 288.277 326.834 288.006 327.375 287.773C326.927 287.502 326.596 287.227 326.381 286.947C326.176 286.667 326.073 286.349 326.073 285.995C326.073 285.631 326.194 285.295 326.437 284.987C326.68 284.679 327.002 284.436 327.403 284.259C327.804 284.081 328.234 283.993 328.691 283.993C329.158 283.993 329.573 284.077 329.937 284.245C330.301 284.413 330.586 284.641 330.791 284.931C330.996 285.22 331.099 285.547 331.099 285.911C331.099 286.247 330.982 286.564 330.749 286.863C330.516 287.152 330.166 287.413 329.699 287.647C330.315 287.908 330.749 288.183 331.001 288.473C331.262 288.762 331.393 289.131 331.393 289.579C331.393 289.961 331.267 290.316 331.015 290.643C330.772 290.96 330.427 291.217 329.979 291.413C329.54 291.599 329.036 291.693 328.467 291.693ZM329.223 287.395C329.475 287.217 329.666 286.998 329.797 286.737C329.937 286.466 330.007 286.186 330.007 285.897C330.007 285.495 329.886 285.159 329.643 284.889C329.4 284.609 329.06 284.469 328.621 284.469C328.201 284.469 327.865 284.59 327.613 284.833C327.361 285.075 327.235 285.383 327.235 285.757C327.235 286.102 327.403 286.396 327.739 286.639C328.084 286.872 328.579 287.124 329.223 287.395ZM328.593 291.231C329.06 291.231 329.433 291.1 329.713 290.839C329.993 290.577 330.133 290.241 330.133 289.831C330.133 289.56 330.044 289.327 329.867 289.131C329.699 288.925 329.475 288.753 329.195 288.613C328.924 288.463 328.495 288.258 327.907 287.997C327.618 288.193 327.394 288.426 327.235 288.697C327.076 288.967 326.997 289.266 326.997 289.593C326.997 290.078 327.142 290.475 327.431 290.783C327.73 291.081 328.117 291.231 328.593 291.231Z" fill="#010101"/>
<path d="M367.491 534.979V482.7L395.107 479.151V530.061L367.491 534.979Z" fill="black"/>
<path d="M367.491 534.979V482.7L395.107 479.151V530.061L367.491 534.979Z" stroke="white" stroke-width="6" stroke-miterlimit="10"/>
</g>
</g>
</svg>
