<svg width="101" height="103" viewBox="0 0 101 103" fill="none" xmlns="http://www.w3.org/2000/svg">
<mask id="path-1-inside-1_521_155" fill="white">
<path fill-rule="evenodd" clip-rule="evenodd" d="M30.9968 38.0806C32.5595 35.7918 31.9804 32.5618 29.6242 30.7274C27.1794 28.8241 23.7471 29.1441 21.958 31.4421C20.169 33.7402 20.7005 37.1461 23.1453 39.0494C25.496 40.8794 28.7595 40.6541 30.5976 38.5913C33.3056 42.4485 43.4122 57.2673 46.2175 67.4593L26.1178 62.5071C26.8784 60.9513 26.4092 58.9661 24.9041 57.7944C23.1928 56.4621 20.7902 56.6861 19.5378 58.2947C18.2855 59.9033 18.6576 62.2875 20.3689 63.6198C21.9597 64.8582 24.1477 64.752 25.454 63.4388L38.1919 79.9078C29.5067 82.9308 17.0005 84.6143 11.6259 85.2365C11.7193 83.4858 10.9383 81.6731 9.38707 80.4655C6.94227 78.5621 3.51004 78.8821 1.72095 81.1802C-0.0681283 83.4782 0.463435 86.8841 2.90823 88.7875C5.35303 90.6908 8.78527 90.3708 10.5743 88.0727C10.9996 87.5265 11.2938 86.9176 11.4623 86.2813L63.3725 102.445C63.3725 102.445 79.1422 91.3216 86.5879 81.7577C94.0335 72.1938 100.95 54.1777 100.95 54.1777L71.4947 9.68412C71.7209 9.4836 71.9314 9.26007 72.1231 9.01382C73.9122 6.71577 73.3807 3.30988 70.9359 1.40656C68.4911 -0.496766 65.0588 -0.176779 63.2698 2.12128C61.4807 4.41933 62.0122 7.82522 64.457 9.72855C66.264 11.1353 68.6105 11.3275 70.4342 10.4041C71.3402 16.1382 73.0264 28.5816 72.1972 37.3404L53.2459 27.7198C53.3697 27.6019 53.4862 27.4736 53.5941 27.3349C54.8465 25.7263 54.4744 23.3422 52.763 22.0098C51.0517 20.6775 48.6491 20.9015 47.3967 22.5101C46.1444 24.1188 46.5165 26.5029 48.2278 27.8352C49.6502 28.9426 51.5502 28.9748 52.8703 28.0305L61.2966 46.5487C50.8001 45.7686 35.1925 39.7606 30.9968 38.0806Z"/>
</mask>
<path d="M30.9968 38.0806L30.1709 37.5168L29.4683 38.5458L30.6251 39.009L30.9968 38.0806ZM30.5976 38.5913L31.4161 38.0167L30.6908 36.9836L29.851 37.926L30.5976 38.5913ZM46.2175 67.4593L45.9782 68.4303L47.6342 68.8383L47.1816 67.194L46.2175 67.4593ZM26.1178 62.5071L25.2194 62.0679L24.675 63.1815L25.8786 63.478L26.1178 62.5071ZM25.454 63.4388L26.245 62.827L25.5483 61.9262L24.7451 62.7336L25.454 63.4388ZM38.1919 79.9078L38.5206 80.8523L39.8332 80.3954L38.9829 79.296L38.1919 79.9078ZM11.6259 85.2365L10.6273 85.1832L10.5642 86.366L11.7409 86.2298L11.6259 85.2365ZM11.4623 86.2813L11.7596 85.3265L10.7628 85.0161L10.4956 86.0253L11.4623 86.2813ZM63.3725 102.445L63.0752 103.4L63.546 103.547L63.9489 103.262L63.3725 102.445ZM100.95 54.1777L101.883 54.5361L102.068 54.0552L101.784 53.6257L100.95 54.1777ZM71.4947 9.68412L70.8313 8.93581L70.1814 9.51193L70.6608 10.2361L71.4947 9.68412ZM70.4342 10.4041L71.4219 10.2481L71.2076 8.89163L69.9825 9.51197L70.4342 10.4041ZM72.1972 37.3404L71.7446 38.2321L73.0543 38.897L73.1928 37.4347L72.1972 37.3404ZM53.2459 27.7198L52.5562 26.9958L51.532 27.9713L52.7932 28.6115L53.2459 27.7198ZM52.8703 28.0305L53.7805 27.6163L53.277 26.51L52.2884 27.2172L52.8703 28.0305ZM61.2966 46.5487L61.2225 47.546L62.906 47.6711L62.2068 46.1346L61.2966 46.5487ZM29.0098 31.5165C30.9893 33.0575 31.4082 35.7046 30.1709 37.5168L31.8227 38.6445C33.7108 35.879 32.9714 32.066 30.2385 29.9383L29.0098 31.5165ZM22.7471 32.0564C24.1616 30.2395 26.9541 29.916 29.0098 31.5165L30.2385 29.9383C27.4046 27.7321 23.3326 28.0487 21.169 30.8278L22.7471 32.0564ZM23.7596 38.2603C21.7039 36.6599 21.3326 33.8734 22.7471 32.0564L21.169 30.8278C19.0053 33.607 19.6971 37.6322 22.531 39.8385L23.7596 38.2603ZM29.851 37.926C28.3956 39.5594 25.7343 39.7976 23.7596 38.2603L22.531 39.8385C25.2577 41.9612 29.1235 41.7488 31.3442 39.2566L29.851 37.926ZM47.1816 67.194C45.7418 61.9627 42.4552 55.6144 39.2327 50.1423C35.9982 44.6497 32.7781 39.9567 31.4161 38.0167L29.7792 39.1659C31.1251 41.0831 34.3123 45.7281 37.5094 51.1572C40.7185 56.6067 43.8879 62.7639 45.2533 67.7247L47.1816 67.194ZM25.8786 63.478L45.9782 68.4303L46.4567 66.4884L26.3571 61.5361L25.8786 63.478ZM24.2898 58.5835C25.4474 59.4847 25.7581 60.9659 25.2194 62.0679L27.0162 62.9462C27.9987 60.9366 27.3709 58.4475 25.5184 57.0053L24.2898 58.5835ZM20.3269 58.909C21.2047 57.7815 22.9675 57.554 24.2898 58.5835L25.5184 57.0053C23.418 55.3701 20.3757 55.5907 18.7488 57.6804L20.3269 58.909ZM20.9832 62.8307C19.6609 61.8013 19.4491 60.0366 20.3269 58.909L18.7488 57.6804C17.1219 59.7701 17.6542 62.7736 19.7546 64.4089L20.9832 62.8307ZM24.7451 62.7336C23.8247 63.6587 22.209 63.785 20.9832 62.8307L19.7546 64.4089C21.7104 65.9315 24.4707 65.8452 26.163 64.1441L24.7451 62.7336ZM38.9829 79.296L26.245 62.827L24.663 64.0506L37.4009 80.5196L38.9829 79.296ZM11.7409 86.2298C17.1114 85.6082 29.719 83.9157 38.5206 80.8523L37.8631 78.9634C29.2944 81.9458 16.8897 83.6205 11.5109 84.2431L11.7409 86.2298ZM8.77276 81.2545C10.0683 82.2631 10.7031 83.7623 10.6273 85.1832L12.6245 85.2897C12.7355 83.2092 11.8084 81.0832 10.0014 79.6764L8.77276 81.2545ZM2.51002 81.7945C3.92456 79.9775 6.71703 79.6541 8.77276 81.2545L10.0014 79.6764C7.16751 77.4702 3.09551 77.7867 0.931885 80.5659L2.51002 81.7945ZM3.52254 87.9984C1.46681 86.398 1.09548 83.6115 2.51002 81.7945L0.931885 80.5659C-1.23174 83.345 -0.539937 87.3703 2.29393 89.5765L3.52254 87.9984ZM9.78528 87.4584C8.37074 89.2754 5.57827 89.5988 3.52254 87.9984L2.29393 89.5765C5.12779 91.7827 9.19979 91.4662 11.3634 88.687L9.78528 87.4584ZM10.4956 86.0253C10.3606 86.5349 10.1257 87.0212 9.78528 87.4584L11.3634 88.687C11.8736 88.0318 12.2269 87.3004 12.4289 86.5372L10.4956 86.0253ZM63.6698 101.49L11.7596 85.3265L11.165 87.236L63.0752 103.4L63.6698 101.49ZM85.7988 81.1434C82.1489 85.8317 76.419 90.9448 71.5559 94.9131C69.1327 96.8904 66.9403 98.5709 65.3541 99.7568C64.5612 100.35 63.9202 100.818 63.4781 101.139C63.2571 101.299 63.0858 101.422 62.9702 101.504C62.9124 101.546 62.8685 101.577 62.8392 101.598C62.8246 101.608 62.8136 101.616 62.8064 101.621C62.8028 101.623 62.8001 101.625 62.7984 101.626C62.7976 101.627 62.7969 101.627 62.7966 101.628C62.7964 101.628 62.7963 101.628 62.7962 101.628C62.7961 101.628 62.7961 101.628 63.3725 102.445C63.9489 103.262 63.9491 103.262 63.9493 103.262C63.9494 103.262 63.9497 103.262 63.95 103.262C63.9505 103.261 63.9514 103.261 63.9524 103.26C63.9545 103.258 63.9576 103.256 63.9616 103.253C63.9696 103.248 63.9814 103.239 63.9968 103.228C64.0277 103.207 64.0732 103.174 64.1327 103.132C64.2517 103.047 64.4265 102.921 64.6513 102.758C65.1007 102.433 65.7499 101.958 66.5517 101.359C68.1549 100.16 70.3703 98.4618 72.8203 96.4627C77.7034 92.4782 83.5812 87.2476 87.3769 82.372L85.7988 81.1434ZM100.95 54.1777C100.016 53.8193 100.016 53.8193 100.016 53.8193C100.016 53.8194 100.016 53.8195 100.016 53.8198C100.016 53.8202 100.016 53.8209 100.015 53.8219C100.014 53.8239 100.013 53.8269 100.012 53.831C100.009 53.8393 100.004 53.8518 99.9972 53.8685C99.9843 53.902 99.9647 53.9522 99.9389 54.0184C99.8872 54.1507 99.81 54.3469 99.7091 54.6004C99.5071 55.1075 99.2097 55.844 98.8295 56.7581C98.0688 58.5867 96.9774 61.1242 95.6548 63.9584C93.0004 69.6462 89.4487 76.4552 85.7988 81.1434L87.3769 82.372C91.1727 77.4964 94.8019 70.5153 97.4671 64.8041C98.8043 61.9387 99.9073 59.3745 100.676 57.5262C101.061 56.6019 101.362 55.856 101.567 55.3405C101.67 55.0827 101.748 54.8825 101.802 54.7463C101.828 54.6782 101.849 54.6261 101.862 54.5908C101.869 54.5731 101.874 54.5596 101.878 54.5505C101.88 54.5459 101.881 54.5424 101.882 54.54C101.882 54.5388 101.883 54.5379 101.883 54.5372C101.883 54.5369 101.883 54.5366 101.883 54.5364C101.883 54.5362 101.883 54.5361 100.95 54.1777ZM70.6608 10.2361L100.116 54.7297L101.784 53.6257L72.3285 9.13211L70.6608 10.2361ZM71.3341 8.39952C71.1803 8.59702 71.0119 8.77575 70.8313 8.93581L72.158 10.4324C72.4299 10.1915 72.6826 9.92311 72.9122 9.62813L71.3341 8.39952ZM70.3216 2.19563C72.3773 3.79606 72.7486 6.58255 71.3341 8.39952L72.9122 9.62813C75.0758 6.84898 74.384 2.82371 71.5502 0.61749L70.3216 2.19563ZM64.0588 2.73558C65.4734 0.918619 68.2658 0.595197 70.3216 2.19563L71.5502 0.61749C68.7163 -1.58873 64.6443 -1.27218 62.4807 1.50697L64.0588 2.73558ZM65.0713 8.93948C63.0156 7.33905 62.6443 4.55254 64.0588 2.73558L62.4807 1.50697C60.3171 4.28612 61.0089 8.31139 63.8427 10.5176L65.0713 8.93948ZM69.9825 9.51197C68.5146 10.2552 66.5823 10.1158 65.0713 8.93948L63.8427 10.5176C65.9458 12.1549 68.7064 12.3998 70.8859 11.2963L69.9825 9.51197ZM73.1928 37.4347C74.0353 28.534 72.3266 15.9737 71.4219 10.2481L69.4464 10.5602C70.3538 16.3026 72.0174 28.6292 71.2017 37.2462L73.1928 37.4347ZM52.7932 28.6115L71.7446 38.2321L72.6499 36.4488L53.6986 26.8282L52.7932 28.6115ZM52.805 26.7206C52.7276 26.8201 52.6444 26.9118 52.5562 26.9958L53.9356 28.4439C54.0951 28.292 54.2448 28.127 54.3832 27.9492L52.805 26.7206ZM52.1487 22.7989C53.471 23.8283 53.6829 25.5931 52.805 26.7206L54.3832 27.9492C56.0101 25.8595 55.4777 22.856 53.3773 21.2208L52.1487 22.7989ZM48.1858 23.1245C49.0636 21.9969 50.8264 21.7695 52.1487 22.7989L53.3773 21.2208C51.2769 19.5856 48.2346 19.8061 46.6077 21.8958L48.1858 23.1245ZM48.8421 27.0462C47.5198 26.0167 47.308 24.252 48.1858 23.1245L46.6077 21.8958C44.9808 23.9856 45.5131 26.9891 47.6135 28.6243L48.8421 27.0462ZM52.2884 27.2172C51.3479 27.89 49.9344 27.8965 48.8421 27.0462L47.6135 28.6243C49.3661 29.9887 51.7524 30.0596 53.4521 28.8438L52.2884 27.2172ZM62.2068 46.1346L53.7805 27.6163L51.9601 28.4447L60.3864 46.9629L62.2068 46.1346ZM30.6251 39.009C32.7357 39.8541 37.7119 41.786 43.4832 43.6058C49.2373 45.4203 55.854 47.147 61.2225 47.546L61.3707 45.5515C56.2427 45.1703 49.8074 43.503 44.0847 41.6984C38.3791 39.8993 33.4537 37.9872 31.3685 37.1523L30.6251 39.009Z" fill="black" mask="url(#path-1-inside-1_521_155)"/>
</svg>
