<svg width="413" height="324" viewBox="0 0 413 324" fill="none" xmlns="http://www.w3.org/2000/svg">
<path fill-rule="evenodd" clip-rule="evenodd" d="M176.86 0C171.955 0 167.979 3.97656 167.979 8.88189C167.979 13.7872 171.955 17.7638 176.86 17.7638H181.382V63.5655V88.1499C178.503 102.282 175.156 110.905 167.707 124.104C163.801 131.026 158.082 139.91 153.694 146.551C151.799 149.419 150.08 151.702 148.864 153.235C137.105 166.877 130.002 184.601 130.002 203.974C130.002 247.067 165.147 282 208.501 282C251.855 282 287 247.067 287 203.974C287 184.322 279.69 166.366 267.626 152.647C262.991 147.05 252.583 134.119 246.824 124.104C238.903 110.33 236.621 101.172 233.879 85.598V63.5655V17.7638H236.167C241.073 17.7638 245.049 13.7872 245.049 8.88189C245.049 3.97656 241.073 0 236.167 0H176.86Z" fill="#AAE0FF"/>
<path fill-rule="evenodd" clip-rule="evenodd" d="M208.499 281.999C165.145 281.999 130 247.066 130 203.973C130 197.228 130.861 190.683 132.48 184.441C139.083 187.713 149.029 190.96 163.96 190.96C177.867 190.96 197.245 181.41 216.807 171.768C234.864 162.868 253.079 153.891 267.295 152.274C279.555 166.04 286.998 184.143 286.998 203.973C286.998 247.066 251.853 281.999 208.499 281.999Z" fill="url(#paint0_linear_582_214)"/>
<path d="M0 323H412.5" stroke="white" stroke-width="2"/>
<defs>
<linearGradient id="paint0_linear_582_214" x1="211.971" y1="147.657" x2="211.835" y2="292.667" gradientUnits="userSpaceOnUse">
<stop offset="0.209375" stop-color="#00A3FF"/>
<stop offset="1" stop-color="#0EFFF1"/>
</linearGradient>
</defs>
</svg>
