<svg width="377" height="470" viewBox="0 0 377 470" fill="none" xmlns="http://www.w3.org/2000/svg">
<rect width="375.909" height="469.488" rx="30" transform="matrix(1 0 0.000197668 1 0 0)" fill="#008454"/>
<path d="M88.7612 331.475C86.3314 335.659 80.8927 335.448 77.2776 332.223C67.2495 323.277 55.1012 308.388 52.0674 286.35C50.8521 277.537 51.3734 269.59 52.0233 259.679C53.6841 234.167 61.0084 212.192 62.7626 209.165C66.4838 202.761 61.3801 231.539 70.8345 260.004C73.2298 267.212 73.1554 264.735 79.5045 280.959C92.5818 314.352 92.7735 324.559 88.7612 331.475V331.475Z" fill="#006E46"/>
<path d="M60.0353 269.821C60.9807 265.162 67.8585 264.848 71.0931 256.704C73.0274 251.827 71.4072 249.812 73.74 244.507C76.0883 239.164 79.0783 238.163 81.7249 234.586C89.9174 223.5 81.8137 200.6 84.6441 203.405C86.0443 204.796 92.0631 212.217 96.2792 223.561C101.962 238.852 105.365 247.994 102.249 259.767C101.933 260.947 96.5034 280.533 83.0444 284.546C70.6665 288.23 58.669 276.574 60.0353 269.821Z" fill="#006E46"/>
<path d="M73.1612 309.773C67.2196 296.848 93.8615 266.711 102.514 256.926C106.576 252.333 114.593 243.801 126.403 237.639C133.103 234.142 157.597 222.089 146.62 232.85C144.487 234.945 142.751 239.423 135.936 250.592C125.949 266.958 120.052 285.556 117.103 294.855C114.932 301.709 114.941 302.723 113.379 304.978C104.171 318.323 78.0177 320.347 73.1612 309.773Z" fill="#006E46"/>
<path d="M118.247 322.076C124.045 317.161 132.005 316.514 138.989 319.565C145.015 322.197 151.807 325.77 158.859 330.658C163.739 334.042 170.686 338.927 177.778 347.154C191.446 363.025 199.009 383.075 196.635 385.278C194.612 387.151 187.415 374.286 168.279 364.573C161.159 360.953 156.471 358.578 149.246 357.899C136.163 356.665 131.119 362.562 119.698 359.801C116.541 359.041 105.92 356.446 104.228 348.442C102.737 341.384 107.965 330.79 118.247 322.076Z" fill="#006E46"/>
<path d="M79.8985 326.777C80.6348 317.461 91.359 308.825 112.801 291.537C126.156 280.775 133.038 275.355 143.109 272.882C149.273 271.366 149.44 272.674 166.883 270.847C180.474 269.428 187.831 267.852 187.971 269.2C188.117 270.677 179.38 273.04 166.562 281.737C159.767 286.352 155.524 289.233 151.511 294.245C143.508 304.262 145.767 311.143 139.961 323.708C134.852 334.774 122.632 351.265 107.765 352.666C93.0572 354.043 78.8188 340.371 79.8985 326.777Z" fill="#006E46"/>
<path d="M138.949 314.119C146.623 311.854 149.406 308.249 154.052 305.987C173.372 296.561 197.345 316.576 198.258 327.808C198.4 329.551 194.711 328.108 184.774 329.763C171.326 331.992 169.165 335.76 158.998 337.065C155.812 337.474 146.045 338.609 136.302 333.746C126.994 329.097 119.539 319.901 121.265 316.533C122.623 313.863 128.586 317.176 138.949 314.119Z" fill="#006E46"/>
<path d="M33.2272 281.986C32.0325 280.57 29.3385 277.38 27.5677 272.03C27.0834 270.575 25.1638 264.41 26.2245 255.504C27.335 246.208 32.5221 236.517 35.3432 233.456C40.4291 227.948 36.926 244.985 44.5008 256.644C50.4054 265.733 54.3338 264.536 59.8102 273.441C68.2012 287.12 66.4612 309.585 61.1059 312.625C57.5564 314.643 54.2979 307.049 33.2272 281.986Z" fill="#006E46"/>
<path d="M239.184 406.658C241.349 410.994 238.444 416.083 233.98 417.952C221.889 423.014 204.068 427.124 184.985 419.24C177.316 416.073 171.191 411.69 163.553 406.223C143.887 392.163 129.834 374.482 128.263 371.343C124.945 364.69 145.547 383.604 173.029 388.606C179.989 389.872 177.964 388.729 194.098 390.673C227.311 394.665 235.598 399.481 239.184 406.658V406.658Z" fill="#00B574"/>
<path d="M175.62 403.618C172.343 400.443 175.46 393.79 170.507 386.746C167.539 382.53 165.128 383.075 162.012 378.273C158.874 373.438 159.534 370.122 157.96 365.87C153.073 352.7 130.72 349.146 134.358 347.845C136.161 347.203 145.067 345.148 156.238 346.718C171.298 348.835 180.304 350.095 188.228 358.804C189.021 359.68 202.083 374.4 198.712 389.084C195.606 402.584 180.372 408.215 175.62 403.618Z" fill="#00B574"/>
<path d="M214.122 410.775C200.836 410.062 189.693 370.13 186.077 357.163C184.379 351.076 181.458 339.322 182.296 325.145C182.771 317.102 185.094 288.054 188.355 303.696C188.992 306.737 191.737 310.57 197.365 322.479C205.611 339.929 217.651 354.607 223.671 361.946C228.11 367.354 228.929 367.842 229.973 370.422C236.176 385.658 224.99 411.363 214.122 410.775Z" fill="#00B574"/>
<path d="M246.075 374.132C244.985 366.298 248.397 358.421 254.364 353.246C259.404 348.875 265.555 344.251 272.867 340.018C277.974 337.063 285.299 332.89 295.377 330.217C314.813 325.072 334.613 327.741 335.218 331.063C335.731 333.892 321.878 334.394 304.708 347.721C298.314 352.678 294.11 355.945 290.026 362.44C282.627 374.198 284.89 381.852 277.079 391.293C274.922 393.904 267.636 402.669 260.382 400.351C253.977 398.3 248.025 388.146 246.075 374.132Z" fill="#00B574"/>
<path d="M231.072 412.733C223.954 407.476 222.275 393.114 218.9 364.388C216.803 346.498 215.824 337.341 218.771 326.614C220.574 320.046 221.705 320.529 228.783 303.151C234.302 289.614 236.64 281.89 237.792 282.418C239.049 283.002 236.665 292.416 237.369 308.786C237.744 317.467 237.979 322.887 240.037 329.133C244.157 341.6 250.788 342.835 258.031 354.473C264.411 364.719 271.663 384.341 265.505 399.076C259.407 413.649 241.456 420.41 231.072 412.733Z" fill="#00B574"/>
<path d="M249.838 350.735C251.779 342.375 250.247 337.979 250.708 332.481C252.605 309.61 280.416 296.755 289.88 301.391C291.349 302.11 288.384 304.89 284.844 315.091C280.046 328.89 282.012 332.777 278.079 343.024C276.847 346.234 272.973 356.02 264.296 362.846C256.005 369.365 244.971 371.908 243.113 368.628C241.635 366.037 247.215 362.025 249.838 350.735Z" fill="#00B574"/>
<path d="M172.253 434.908C170.531 435.343 166.651 436.327 161.489 435.381C160.083 435.126 154.194 433.922 147.565 428.56C140.646 422.958 135.407 413.312 134.332 409.148C132.402 401.645 144.362 413.296 157.432 411.847C167.621 410.717 168.584 406.419 178.416 405.604C193.506 404.372 210.689 417.016 210.506 423.564C210.387 427.907 202.694 427.268 172.253 434.908Z" fill="#00B574"/>
<path fill-rule="evenodd" clip-rule="evenodd" d="M375.829 30.1521C375.826 13.5811 362.388 0.145903 345.817 0.145903L29.9937 0.145891C13.4276 0.145891 0.00235147 13.5736 0.0053716 30.1397L0.0799712 439.336C0.0829922 455.907 13.5206 469.342 30.0916 469.342L345.915 469.342C362.481 469.342 375.907 455.914 375.904 439.348L375.829 30.1521ZM86.0334 334.101C85.7761 341.249 85.5162 348.466 97.374 352.08C113.462 356.984 118.2 368.726 123.097 380.86C127.521 391.821 132.074 403.103 145.239 409.953C194.162 435.408 250.587 418.501 288.367 381.874C317.328 353.797 301.884 325.053 284.777 293.216C272.894 271.1 260.209 247.491 261.049 221.575C261.741 200.223 272.849 180.91 283.254 162.818C298.745 135.885 312.677 111.66 288.367 87.4505C262.465 61.6555 229.741 63.4839 192.296 65.5759C181.792 66.1628 170.916 66.7704 159.715 66.7948C109.393 66.9044 97.374 102.001 122.588 131.452C144.409 156.939 127.847 165.567 107.185 176.332C86.6167 187.048 61.9847 199.88 67.112 233.571C69.5752 249.756 63.995 264.142 59.2387 276.405C51.9996 295.068 46.6689 308.811 74.5087 316.488C86.5481 319.807 86.292 326.92 86.0334 334.101Z" fill="#00B574"/>
<path d="M61.6808 85.7555C80.7646 63.9488 126.21 78.0301 146.423 83.9341C152.789 85.7907 160.622 88.6533 171.022 87.0584C184.174 85.046 189.262 82.1326 193.87 81.1743C199.022 80.1036 195.972 98.5002 190.071 105.465C185.942 110.344 180.256 108.483 179.657 111.657C178.937 115.444 186.291 118.056 191.823 127.74C196.063 135.178 198.629 145.72 195.413 149.347C193.591 151.402 191.515 149.43 185.507 150.533C178.628 151.795 178.1 154.967 171.983 156.654C163.115 159.098 156.176 154.651 155.518 156.598C154.685 159.082 173.216 168.795 165.753 169.772C161.554 170.315 152.511 171.793 149.205 179.403C148.389 181.274 148.496 182.956 151.455 196.675C154.804 212.154 162.57 214.266 154.375 216.114C149.164 217.292 139.684 218.758 131.028 213.735C117.377 205.812 111.568 191.322 109.126 192.742C107.059 193.94 112.468 203.523 110.535 213.942C107.811 228.646 78.5365 243.806 81.5415 236.523C83.9404 230.721 76.7718 228.005 66.6254 194.905C61.2021 177.222 59.7066 174.554 55.9032 160.209C51.6665 144.228 49.5483 136.237 49.2966 128.841C49.1786 125.418 48.5943 100.708 61.6808 85.7555Z" fill="#00B574"/>
<path fill-rule="evenodd" clip-rule="evenodd" d="M375.825 30.1074C375.821 13.5378 362.386 0.104751 345.816 0.104751L29.9975 0.104752C13.43 0.104752 0.00268068 13.5346 0.00585994 30.1021L0.0843992 439.38C0.0875788 455.95 13.5232 469.383 30.0928 469.383L345.911 469.383C362.479 469.383 375.906 455.953 375.903 439.385L375.825 30.1074ZM61.9558 346.464C61.6131 354.756 61.2671 363.129 77.0571 367.325C98.4798 373.017 104.79 386.641 111.31 400.72C117.201 413.438 123.264 426.528 140.795 434.478C205.941 464.02 281.077 444.415 331.386 401.927C369.951 369.358 349.385 336.006 326.606 299.066C310.782 273.404 293.89 246.011 295.009 215.943C295.931 191.171 310.722 168.765 324.578 147.778C345.205 116.532 363.758 88.4294 331.386 60.3369C296.894 30.4048 253.318 32.5199 203.456 34.9401C189.469 35.619 174.987 36.322 160.072 36.3482C93.0617 36.4659 77.0571 77.1831 110.632 111.356C139.689 140.931 117.635 150.938 90.1221 163.423C62.7325 175.852 29.9323 190.736 36.7598 229.824C40.0399 248.603 32.6092 265.293 26.2756 279.519C16.636 301.17 9.5376 317.114 46.6094 326.026C62.6411 329.88 62.3001 338.132 61.9558 346.464Z" fill="#04DD8F"/>
<path fill-rule="evenodd" clip-rule="evenodd" d="M290.107 221.533C289.21 221.792 288.363 222.036 287.445 222.827C285.945 224.118 285.464 225.613 284.926 227.285C284.634 228.192 284.326 229.15 283.83 230.156C283.4 228.938 283.191 227.784 282.993 226.693C282.628 224.678 282.302 222.877 280.696 221.286C279.721 220.32 278.862 219.953 277.847 219.518C277.435 219.341 276.997 219.154 276.515 218.911C272.434 216.853 270.026 215.762 265.585 214.995C264.17 214.75 262.981 214.867 261.831 214.979C260.353 215.124 258.94 215.262 257.198 214.621C255.847 214.123 254.995 213.051 254.179 212.022C253.176 210.759 252.226 209.563 250.469 209.579C247.617 209.605 245.816 211.129 244.076 213.72C243.269 214.922 243.082 216.051 242.885 217.245C242.74 218.127 242.588 219.045 242.176 220.055C240.283 224.69 238.213 227.027 235.273 230.345C234.876 230.794 234.462 231.261 234.031 231.754C232.883 233.066 231.789 233.94 230.73 234.786C229.365 235.877 228.058 236.921 226.767 238.798C226.421 239.303 226.069 239.749 225.735 240.173C224.722 241.457 223.867 242.541 223.784 244.453C223.689 246.612 224.842 247.723 226.132 248.965C226.831 249.638 227.57 250.35 228.172 251.288C225.024 252.57 223.298 253.521 220.458 255.54C219.344 256.332 218.582 257 217.757 257.723C217.235 258.181 216.688 258.661 216.01 259.208C215.359 259.734 214.786 260.207 214.249 260.65C212.747 261.89 211.521 262.902 209.612 264.224C208.716 264.845 207.742 265.13 206.824 265.399C205.29 265.847 203.91 266.251 203.299 268.101C202.447 270.676 204.892 274.811 204.892 274.811C205.101 275.672 205.328 276.384 205.543 277.058C205.925 278.253 206.269 279.331 206.41 280.91C206.566 282.64 206.199 283.996 205.833 285.348C205.46 286.725 205.089 288.098 205.272 289.857C205.703 293.989 207.175 296.208 209.242 299.32C209.447 299.629 209.657 299.946 209.873 300.275C209.968 300.42 210.061 300.561 210.152 300.7C211.653 302.991 212.621 304.469 214.811 306.137C217.878 308.474 220.14 309.402 223.881 309.387C225.609 309.38 226.811 308.947 228.154 308.463C228.883 308.201 229.652 307.924 230.57 307.691C233.697 306.232 235.497 305.525 238.745 304.48C240.505 303.914 241.913 303.633 243.319 303.353C244.736 303.07 246.151 302.788 247.923 302.215C250.137 301.498 251.808 300.646 253.459 299.805C255.253 298.89 257.025 297.987 259.447 297.281C264.208 295.894 271.886 295.306 271.886 295.306C271.886 295.306 269.762 298.404 268.749 300.614C268.629 300.875 268.512 301.127 268.399 301.372C267.207 303.947 266.378 305.737 266.295 308.797C266.199 312.306 267.209 314.375 268.595 317.214C268.596 317.216 268.598 317.219 268.599 317.221C268.766 317.563 268.938 317.917 269.115 318.285C270.543 321.264 273.736 325.203 273.736 325.203C273.736 325.203 273.016 326.349 271.955 327.78C271.955 327.78 273.994 331.348 275.71 333.218C276.567 334.153 277.298 334.715 278.077 335.314C278.612 335.725 279.17 336.154 279.807 336.733C280.588 337.442 281.145 338.22 281.674 338.956C282.556 340.187 283.357 341.304 284.982 341.803C291.055 343.667 290.208 324.381 290.208 324.381C291.512 324.305 292.527 324.613 293.529 324.917C294.621 325.249 295.697 325.576 297.115 325.394C299.889 325.037 301.552 323.824 303.592 322.337C304.237 321.867 304.919 321.37 305.685 320.863C307.092 319.934 308.102 319.022 309.102 318.119C310.181 317.146 311.247 316.183 312.785 315.222C313.801 314.587 314.691 314.235 315.556 313.892C316.631 313.467 317.668 313.056 318.861 312.137C321.511 310.096 322.843 308.483 324.492 305.384C326.137 302.295 326.855 300.235 327.105 296.673C327.245 294.683 326.924 293.255 326.576 291.712C326.351 290.711 326.115 289.662 325.987 288.38C325.848 286.988 325.914 285.786 325.976 284.642C326.075 282.827 326.165 281.158 325.418 279.113C324.232 275.865 322.98 273.982 320.253 272.293C318.754 271.365 316.067 270.793 316.067 270.793C316.067 270.793 319.726 268.741 321.836 267.014C325.731 263.825 327.691 261.453 330.283 256.885C330.606 256.316 330.919 255.796 331.216 255.303C332.421 253.302 333.367 251.731 333.668 249.035C333.988 246.156 333.074 244.251 332.052 242.123C331.494 240.961 330.904 239.732 330.466 238.241C330.182 237.271 329.932 236.438 329.698 235.654C329.192 233.967 328.756 232.508 328.181 230.406C327.898 229.373 327.872 228.319 327.847 227.323C327.803 225.545 327.763 223.953 326.281 223.001C325.148 222.274 324.139 222.711 323.057 223.181C322.234 223.538 321.368 223.913 320.373 223.808L320.323 223.803C318.064 223.564 316.553 223.405 314.792 221.808C314.154 221.23 313.854 220.566 313.554 219.902C313.256 219.242 312.958 218.581 312.328 218.002C310.839 216.635 309.493 216.417 307.785 216.14C307.383 216.075 306.962 216.006 306.514 215.919C306.436 215.904 306.359 215.889 306.283 215.874C303.348 215.302 301.434 214.928 298.513 215.976C296.951 216.537 295.994 217.482 294.998 218.466C294.2 219.255 293.376 220.068 292.195 220.728C291.441 221.149 290.761 221.345 290.107 221.533Z" fill="#04DD8F"/>
<path d="M268.749 300.614C269.762 298.404 271.886 295.306 271.886 295.306C271.886 295.306 264.208 295.894 259.447 297.281C257.025 297.987 255.253 298.89 253.459 299.805C251.808 300.646 250.137 301.498 247.923 302.215C246.151 302.788 244.736 303.07 243.319 303.353C241.913 303.633 240.505 303.914 238.745 304.48C235.497 305.525 233.697 306.232 230.57 307.691C227.185 310.93 224.108 311.651 221.901 315.986C220.649 318.448 219.099 320.186 219.843 322.849C220.445 325.003 221.863 325.603 223.549 326.808C225.794 328.413 227.752 327.651 230.06 329.141C233.722 331.505 233.461 335.929 237.076 338.378C240.923 340.985 243.883 341.512 248.402 340.975C252.809 340.45 254.763 337.787 258.916 335.972C262.323 334.483 264.667 334.693 267.714 332.4C269.206 331.277 270.787 329.356 271.955 327.78C273.016 326.349 273.736 325.203 273.736 325.203C273.736 325.203 270.543 321.264 269.115 318.285C268.938 317.917 268.766 317.563 268.599 317.221L268.595 317.214C267.209 314.375 266.199 312.306 266.295 308.797C266.378 305.737 267.207 303.947 268.399 301.372C268.512 301.127 268.629 300.875 268.749 300.614Z" fill="#04DD8F"/>
<path fill-rule="evenodd" clip-rule="evenodd" d="M278.455 287.601C277.338 288.195 276.594 288.591 275.8 289.985C275.46 290.583 275.392 291.177 275.326 291.757C275.25 292.424 275.177 293.071 274.692 293.68C273.868 294.717 271.886 295.306 271.886 295.306C271.886 295.306 269.762 298.404 268.749 300.614C268.629 300.875 268.512 301.127 268.399 301.372C267.207 303.947 266.378 305.737 266.295 308.797C266.199 312.306 267.209 314.375 268.595 317.214L268.596 317.216C268.598 317.219 268.599 317.222 268.6 317.224C268.767 317.565 268.939 317.918 269.115 318.285C270.543 321.264 273.736 325.203 273.736 325.203C273.736 325.203 273.016 326.349 271.955 327.78C271.955 327.78 273.994 331.348 275.71 333.218C276.567 334.153 277.298 334.715 278.077 335.314C278.612 335.725 279.17 336.154 279.807 336.733C280.588 337.442 281.145 338.22 281.674 338.956C282.556 340.187 283.357 341.304 284.982 341.803C291.055 343.667 290.208 324.381 290.208 324.381C291.512 324.305 292.527 324.613 293.529 324.917C294.621 325.249 295.697 325.576 297.115 325.394C299.889 325.037 301.552 323.824 303.592 322.337L303.594 322.336C304.238 321.866 304.919 321.369 305.685 320.863C307.092 319.934 308.102 319.022 309.102 318.119C310.181 317.146 311.247 316.183 312.785 315.222C313.801 314.587 314.691 314.235 315.556 313.892C316.631 313.467 317.668 313.056 318.861 312.137C321.511 310.096 322.843 308.483 324.492 305.384C326.137 302.295 326.855 300.235 327.105 296.673C327.245 294.683 326.924 293.255 326.576 291.712C326.351 290.711 326.115 289.662 325.987 288.38C325.848 286.988 325.914 285.786 325.976 284.642C326.075 282.827 326.165 281.158 325.418 279.113C324.232 275.865 322.98 273.982 320.253 272.293C318.754 271.365 316.067 270.793 316.067 270.793C316.067 270.793 309.964 270.581 306.122 271.323C301.698 272.177 299.16 272.959 295.147 275.284C292.981 276.538 291.23 278.16 289.659 279.615C288.594 280.6 287.613 281.509 286.641 282.176L280.481 286.4C279.675 286.952 279.018 287.302 278.455 287.601Z" fill="#04DD8F"/>
<path d="M271.886 295.306C271.886 295.306 273.868 294.717 274.692 293.68C275.177 293.071 275.25 292.424 275.326 291.757C275.392 291.177 275.46 290.583 275.8 289.985C275.345 289.019 272.973 286.319 270.781 283.824C269.014 281.814 268.214 280.323 267.778 279.593C265.101 275.106 261.887 272.381 258.743 269.273C258.019 268.557 257.254 267.801 256.435 266.968C255.914 266.439 255.425 265.938 254.959 265.459C254.958 265.458 254.956 265.456 254.954 265.455C254.589 265.08 254.237 264.719 253.894 264.369C251.481 261.911 249.493 260.012 246.186 257.741C245.854 257.514 245.533 257.292 245.222 257.077C241.664 254.621 239.293 252.984 234.926 251.953C233.25 251.558 232.016 251.505 230.637 251.445C230.608 251.444 230.579 251.443 230.55 251.441C230.507 251.44 230.464 251.438 230.422 251.436C230.399 251.435 230.377 251.434 230.354 251.433C229.69 251.404 228.983 251.368 228.172 251.288C225.024 252.57 223.298 253.521 220.458 255.54C219.344 256.332 218.582 257 217.757 257.723C217.235 258.181 216.688 258.661 216.01 259.208C215.359 259.734 214.786 260.207 214.249 260.65C212.747 261.89 211.521 262.902 209.612 264.224C208.716 264.845 207.742 265.13 206.824 265.399C205.29 265.847 203.91 266.251 203.299 268.101C202.447 270.676 204.892 274.811 204.892 274.811C205.101 275.672 205.328 276.384 205.543 277.058C205.925 278.253 206.269 279.331 206.41 280.91C206.566 282.64 206.199 283.996 205.833 285.348C205.46 286.725 205.089 288.098 205.272 289.857C205.703 293.989 207.175 296.208 209.242 299.32C209.447 299.629 209.657 299.946 209.873 300.275C209.967 300.418 210.059 300.558 210.149 300.695L210.15 300.697L210.152 300.7C211.653 302.991 212.621 304.469 214.811 306.137C217.878 308.474 220.14 309.402 223.881 309.387C225.609 309.38 226.811 308.947 228.154 308.463C228.883 308.201 229.652 307.924 230.57 307.691C233.697 306.232 235.497 305.525 238.745 304.48C240.505 303.914 241.913 303.633 243.319 303.353C244.736 303.07 246.151 302.788 247.923 302.215C250.137 301.498 251.808 300.646 253.459 299.805C255.253 298.89 257.025 297.987 259.447 297.281C264.208 295.894 271.886 295.306 271.886 295.306Z" fill="#04DD8F"/>
<path d="M292.195 220.728C290.407 221.727 289.033 221.459 287.445 222.827C285.132 224.817 285.241 227.293 283.83 230.156C282.606 226.692 283.173 223.739 280.696 221.286C279.325 219.928 278.185 219.753 276.515 218.911C272.434 216.853 270.026 215.762 265.585 214.995C262.353 214.437 260.296 215.762 257.198 214.621C254.187 213.512 253.658 209.55 250.469 209.579C247.617 209.605 245.816 211.129 244.076 213.72C242.672 215.811 243.146 217.678 242.176 220.055C240.027 225.317 237.65 227.617 234.031 231.754C231.404 234.758 229.058 235.465 226.767 238.798C225.37 240.832 223.895 241.91 223.784 244.453C223.638 247.782 226.458 248.619 228.172 251.288C228.983 251.368 229.69 251.404 230.354 251.433L230.422 251.436C230.464 251.438 230.507 251.44 230.55 251.441L230.637 251.445C232.016 251.505 233.25 251.558 234.926 251.953C239.293 252.984 241.664 254.621 245.222 257.077C245.533 257.292 245.854 257.514 246.186 257.741C249.493 260.012 251.481 261.911 253.894 264.369C254.237 264.719 254.589 265.08 254.954 265.455L254.959 265.459C255.425 265.938 255.914 266.439 256.435 266.968C257.254 267.801 258.019 268.557 258.743 269.273C261.887 272.381 265.101 275.106 267.778 279.593C268.214 280.323 269.014 281.814 270.781 283.824C272.973 286.319 275.345 289.019 275.8 289.985C276.594 288.591 277.338 288.195 278.455 287.601C279.018 287.302 279.675 286.952 280.481 286.4L286.641 282.176C287.613 281.509 288.594 280.6 289.659 279.615C291.23 278.16 292.981 276.538 295.147 275.284C299.16 272.959 301.698 272.177 306.122 271.323C309.964 270.581 316.067 270.793 316.067 270.793C316.067 270.793 319.726 268.741 321.836 267.014C325.731 263.825 327.691 261.453 330.283 256.885C331.914 254.009 333.293 252.396 333.668 249.035C334.163 244.583 331.706 242.46 330.466 238.241C329.568 235.183 329.023 233.485 328.181 230.406C327.394 227.53 328.593 224.486 326.281 223.001C324.286 221.72 322.676 224.051 320.373 223.808L320.323 223.803C318.064 223.564 316.553 223.405 314.792 221.808C313.52 220.655 313.593 219.164 312.328 218.002C310.489 216.313 308.868 216.377 306.514 215.919C303.447 215.322 301.51 214.901 298.513 215.976C295.697 216.986 294.849 219.246 292.195 220.728Z" fill="#04DD8F"/>
<path fill-rule="evenodd" clip-rule="evenodd" d="M271.886 295.306C271.886 295.306 269.762 298.404 268.749 300.614C268.629 300.875 268.512 301.127 268.399 301.372C267.207 303.947 266.378 305.737 266.295 308.797C266.199 312.306 267.209 314.375 268.595 317.214C268.763 317.558 268.937 317.914 269.115 318.285C270.543 321.264 273.736 325.203 273.736 325.203C273.736 325.203 273.016 326.349 271.955 327.78C271.955 327.78 273.994 331.348 275.71 333.218C276.567 334.153 277.298 334.715 278.077 335.314C278.612 335.725 279.17 336.154 279.807 336.733C280.588 337.442 281.145 338.22 281.674 338.956C282.556 340.187 283.357 341.304 284.982 341.803C291.055 343.667 290.208 324.381 290.208 324.381C291.512 324.305 292.527 324.613 293.529 324.917C294.621 325.249 295.697 325.576 297.115 325.394C299.889 325.037 301.552 323.824 303.592 322.337L303.594 322.336C304.238 321.866 304.919 321.369 305.685 320.863C307.092 319.934 308.102 319.022 309.102 318.119C310.181 317.146 311.247 316.183 312.785 315.222C313.801 314.587 314.691 314.235 315.556 313.892C316.631 313.467 317.668 313.056 318.861 312.137C321.511 310.096 322.843 308.483 324.492 305.384C326.137 302.295 326.855 300.235 327.105 296.673C327.245 294.683 326.924 293.255 326.576 291.712C326.351 290.711 326.115 289.662 325.987 288.38C325.848 286.988 325.914 285.786 325.976 284.642C326.075 282.827 326.165 281.158 325.418 279.113C324.232 275.865 322.98 273.982 320.253 272.293C318.754 271.365 316.067 270.793 316.067 270.793C316.067 270.793 309.964 270.581 306.122 271.323C301.698 272.177 299.16 272.959 295.147 275.284C292.981 276.538 291.23 278.16 289.659 279.615C288.594 280.6 287.613 281.509 286.641 282.176L280.481 286.4C279.675 286.952 279.018 287.302 278.455 287.601C277.338 288.195 276.594 288.591 275.8 289.985C275.46 290.583 275.392 291.177 275.326 291.757C275.25 292.424 275.177 293.071 274.692 293.68C273.868 294.717 271.886 295.306 271.886 295.306Z" fill="#04DD8F"/>
<path d="M277.231 256.879C277.036 263.365 280.002 279.949 280.481 286.4L286.641 282.176C287.613 281.509 288.594 280.6 289.659 279.615C291.23 278.16 292.981 276.538 295.147 275.284C299.16 272.959 301.698 272.177 306.122 271.323C309.964 270.581 316.067 270.793 316.067 270.793C316.067 270.793 319.726 268.741 321.836 267.014C325.731 263.825 327.691 261.453 330.283 256.885C331.914 254.009 333.293 252.396 333.668 249.035C334.163 244.583 331.706 242.46 330.466 238.241C329.568 235.183 329.023 233.485 328.181 230.406C327.394 227.53 328.593 224.486 326.281 223.001C324.286 221.72 322.676 224.051 320.373 223.808L320.323 223.803C318.064 223.564 316.553 223.405 314.792 221.808C313.52 220.655 313.593 219.164 312.328 218.002C310.489 216.313 308.868 216.377 306.514 215.919C303.447 215.322 301.51 214.901 298.513 215.976C295.697 216.986 294.849 219.246 292.195 220.728C290.407 221.727 289.033 221.459 287.445 222.827C285.132 224.817 285.241 227.293 283.83 230.156C282.173 232.85 281.368 234.483 280.215 237.484C277.494 244.571 277.231 256.879 277.231 256.879Z" fill="#04DD8F"/>
<path fill-rule="evenodd" clip-rule="evenodd" d="M111.21 454.485C105.644 463.944 95.6614 470 84.6863 470H30.0385C13.4721 470 0.0415091 456.572 0.0384908 440.006L0.00878939 276.985C0.00640329 263.889 12.9647 260.365 14.776 273.335V273.335C16.2711 284.022 15.5802 294.961 15.0771 302.928C14.6304 310 14.3317 314.73 15.8422 314.859C17.574 315.008 19.6363 308.934 22.7863 299.657C27.8279 284.808 35.6561 261.752 49.3761 242.869C66.2674 219.616 87.2747 209.311 89.2702 215.924C90.0901 218.626 87.502 223.431 83.1509 231.509C79.7544 237.815 75.2838 246.116 70.5211 256.967C53.9019 294.85 45.4388 337.099 49.9408 340.165C51.6955 341.365 54.903 336.216 60.213 327.692C67.7285 315.627 79.4559 296.802 97.2375 279.646C116.03 261.509 122.655 263.52 125.26 264.943C134.029 269.75 134.818 288.684 135.21 298.08L135.21 298.097V298.097C135.768 311.752 150.58 320.839 162.49 327.541C164.669 328.767 165.858 330.341 165.803 332.026C165.719 334.672 162.575 337.124 157.439 341.13C149.107 347.629 135.533 358.218 121.27 380.359C106.632 403.075 98.9677 426.016 99.9073 427.069C100.128 427.314 101.304 425.289 103.294 421.863C108.149 413.505 117.849 396.806 130.35 384.335C132.85 381.852 134.769 380.204 136.172 379.091C136.337 378.958 136.529 378.802 136.747 378.624C140.483 375.585 151.654 366.497 159.131 369.158C175.537 374.998 172.983 419.003 172.705 423.368C172.07 432.988 169.713 453.155 165.736 455.46C163.902 456.514 163.352 448.231 162.668 437.956C161.515 420.609 159.984 397.582 151.263 404.229C147.975 406.735 145.796 408.202 144.156 409.307C139.575 412.392 139.181 412.658 130.526 424.823C122.12 436.64 116.003 446.338 111.21 454.485ZM108.062 342.025C114.363 336.915 118.191 328.982 116.496 321.048V321.048C112.007 300.007 110.788 297.886 109.595 298.85C95.5456 310.144 76.6389 356.741 71.1695 370.22C70.5035 371.862 70.0368 373.012 69.8023 373.548C63.6318 387.646 63.9894 392.212 64.7821 393.164C65.9641 394.587 69.7801 389.024 75.4227 380.8C81.6516 371.72 90.1064 359.396 99.701 349.642C102.475 346.821 105.27 344.289 108.062 342.025Z" fill="#48FFBD"/>
<path fill-rule="evenodd" clip-rule="evenodd" d="M360.783 65.5693C362.128 64.2902 363.727 63.2898 365.53 62.8518C367.304 62.4211 369.613 62.0148 371.382 62.2455V62.2455C374.294 62.6253 375.904 65.662 375.905 68.5987L375.911 101.625C375.911 102.756 374.719 103.326 373.923 102.522V102.522C373.784 102.382 373.64 102.236 373.488 102.084C372.961 101.559 372.372 100.851 371.861 100.201C371.349 99.5504 370.279 99.7771 370.108 100.587V100.587C369.98 101.192 369.317 101.51 368.776 101.21C367.813 100.676 366.417 99.8431 365.496 99.0344C364.403 98.0753 363.791 97.2009 363.107 96.2231C362.736 95.6932 362.344 95.133 361.843 94.5124L361.817 94.4809C361.017 93.4898 359.541 93.393 358.617 94.271V94.271C357.821 95.0286 356.586 95.0733 355.807 94.2975C354.722 93.2169 353.318 91.6106 352.751 90.0612C352.183 88.5073 352.282 87.2306 352.388 85.8577C352.46 84.9326 352.534 83.9638 352.411 82.8371C352.216 81.0581 351.764 78.602 351.522 77.3435C351.419 76.8055 351.429 76.2521 351.558 75.7197V75.7197C351.832 74.5908 351.565 73.3986 350.835 72.4949L350.466 72.0384C350.209 71.7204 350.052 71.3334 350.015 70.9263V70.9263C349.912 69.7966 348.917 68.9611 347.783 68.927C346.826 68.8982 345.714 68.7919 344.875 68.4976C343.551 68.0337 342.78 67.3523 341.901 66.5765C341.467 66.1932 341.007 65.7869 340.441 65.3724C339.81 64.9099 339.246 64.5179 338.716 64.1499C337.358 63.2062 336.226 62.4202 334.776 61.0067C333.365 59.6323 331.702 57.4465 330.758 56.1548C330.391 55.652 330.662 54.9479 331.269 54.8067V54.8067C332.044 54.6263 332.216 53.5724 331.554 53.1294C330.693 52.5522 329.702 51.8412 328.979 51.1827C328.877 51.0901 328.777 50.9995 328.679 50.9105C326.876 49.2728 325.692 48.1979 324.633 45.8031C324.366 45.201 324.127 44.4062 323.943 43.7096C323.73 42.9055 324.366 42.1517 325.197 42.1788V42.1788C326.35 42.2164 326.996 40.8145 326.257 39.9286C325.484 39.0025 324.655 37.938 324.069 36.999C323.794 36.558 323.528 36.1551 323.275 35.7723C322.219 34.1757 321.393 32.9269 321.122 30.7029C321.007 29.7671 321.102 28.4897 321.193 27.6401C321.249 27.1184 321.694 26.7356 322.219 26.7351V26.7351C322.854 26.7344 323.347 26.1808 323.285 25.5488C323.2 24.6924 323.099 23.5347 323.07 22.6461C323.001 20.49 323.059 19.2676 323.272 17.1118C323.321 16.6181 323.353 16.1711 323.382 15.7503V15.7503C323.531 13.6384 325.392 12.2669 327.509 12.2669H330.578C330.85 12.2669 331.107 12.3897 331.277 12.601V12.601C331.807 13.2563 332.174 14.1695 332.522 15.033C333.163 16.6269 333.737 18.0519 335.135 17.3764C335.187 17.3514 335.237 17.3232 335.287 17.292C336.626 16.4453 338.591 15.6664 339.587 16.8993V16.8993L341.902 19.7653C341.985 19.8675 342.044 19.9864 342.077 20.1138L342.299 20.9885C342.476 21.6835 343.465 21.6785 343.635 20.9817V20.9817C343.77 20.428 344.481 20.2688 344.839 20.7122L346.09 22.2609C346.453 22.7102 346.797 23.0623 347.122 23.3953C347.722 24.0098 348.258 24.5593 348.735 25.5354C348.815 25.6987 348.893 25.8844 348.968 26.078C349.273 26.867 350.291 27.1576 350.904 26.5749V26.5749C351.392 26.1108 352.175 26.1848 352.557 26.7394C353.433 28.0116 354.897 30.2043 355.798 31.9156C356.055 32.4039 356.301 32.8351 356.533 33.2411C357.247 34.4929 357.825 35.5051 358.167 37.2107C358.332 38.0361 358.656 38.9384 359.018 39.7803C359.953 41.9543 360.573 44.291 360.362 46.6479V46.6479C360.087 49.7327 358.35 52.4091 356.359 54.7815C356.239 54.9248 356.126 55.0674 356.022 55.2081C354.765 56.9094 354.31 58.12 353.58 60.066C353.551 60.1439 353.521 60.2231 353.491 60.3034C353.224 61.0136 352.857 61.6908 352.503 62.3438C351.616 63.9823 350.811 65.4683 351.876 66.9401C353.068 68.5867 354.829 68.4222 356.776 68.036C358.369 67.7201 360.381 65.9374 360.697 65.6498C360.727 65.6229 360.754 65.5968 360.783 65.5693V65.5693Z" fill="#09FFA6"/>
<path fill-rule="evenodd" clip-rule="evenodd" d="M336.14 67.0021C329.947 59.6263 320.042 50.6008 314.953 46.1008C312.809 44.2058 310.375 42.6753 307.762 41.5096L297.779 37.055C297.081 36.7437 296.426 36.3449 295.829 35.8684L288.231 29.8051C287.255 29.0261 285.803 29.4157 285.348 30.5787V30.5787C284.96 31.5712 283.817 32.0327 282.848 31.5879L275.769 28.3368C274.985 27.9771 274.156 27.7292 273.304 27.6002L267.717 26.7548C267.061 26.6556 266.397 26.8648 265.916 27.3217L265.054 28.1416C264.731 28.4491 264.698 28.9533 264.978 29.3003V29.3003C265.466 29.9044 264.963 30.7939 264.194 30.6867L255.613 29.4905C255.202 29.4332 254.784 29.436 254.374 29.4989L246.384 30.7231C245.716 30.8253 245.097 31.1294 244.608 31.5946L242.791 33.3222C242.57 33.5323 242.547 33.8767 242.739 34.1138V34.1138C243.032 34.4766 242.803 35.0198 242.339 35.0638L236.783 35.5905C236.304 35.6359 235.839 35.7773 235.416 36.0062L231.928 37.8934C231.277 38.2457 231.105 39.1023 231.57 39.6781V39.6781C232.171 40.4209 231.689 41.532 230.737 41.6022L226.095 41.9445C225.465 41.9909 224.858 42.2013 224.334 42.5548L216.907 47.57C216.332 47.9582 216.448 48.8365 217.105 49.0619V49.0619C217.805 49.3025 217.875 50.2661 217.216 50.6048L209.308 54.6695C208.916 54.8713 208.554 55.1281 208.235 55.4322L205.428 58.1015C204.815 58.684 204.753 59.6391 205.284 60.2966V60.2966C205.88 61.0343 205.718 62.1238 204.934 62.6573L200.2 65.8787C199.829 66.1318 199.506 66.4501 199.247 66.8182L196.545 70.6688C196.195 71.1673 196.492 71.8597 197.095 71.9493V71.9493C197.82 72.057 198.049 72.9899 197.456 73.4213L192.734 76.8599L189.181 80.2389C188.465 80.9194 188.392 82.0354 189.012 82.8036V82.8036C189.715 83.6734 189.516 84.9592 188.583 85.5759L183.21 89.1284C182.414 89.6547 181.748 90.3554 181.264 91.1773L177.743 97.1468C177.309 97.8831 177.72 98.8288 178.555 99.0126V99.0126C179.539 99.229 179.881 100.457 179.151 101.151L174.574 105.504C174.036 106.015 173.63 106.648 173.389 107.349L172.057 111.231C171.845 111.848 172.199 112.515 172.829 112.685V112.685C173.612 112.897 173.922 113.842 173.416 114.477L170.645 117.949C170.247 118.448 169.973 119.034 169.845 119.659L169.189 122.858C169.041 123.582 169.421 124.311 170.1 124.603V124.603C170.919 124.955 171.277 125.92 170.885 126.72L168.703 131.175C168.283 132.031 168.064 132.972 168.062 133.925L168.058 136.411C168.052 139.927 171.293 142.553 174.731 141.817L174.925 141.776C175.294 141.697 175.672 141.669 176.049 141.694L183.231 142.163C184.052 142.217 184.417 143.223 183.82 143.79V143.79C183.3 144.284 183.5 145.155 184.183 145.374L188.464 146.744C188.914 146.888 189.388 146.943 189.859 146.904L194.443 146.528C195.428 146.448 196.175 147.4 195.863 148.337V148.337C195.581 149.181 196.162 150.066 197.048 150.145L202.574 150.632L210.09 151.406C210.889 151.489 211.224 152.47 210.642 153.023V153.023C210.163 153.479 210.291 154.273 210.889 154.555L215.451 156.709C216.277 157.098 217.203 157.221 218.101 157.06L224.195 155.972C225.149 155.801 225.976 156.644 225.787 157.595V157.595C225.634 158.368 226.159 159.112 226.939 159.226L233.18 160.136C234.163 160.279 235.166 160.161 236.089 159.793L240.791 157.918C241.866 157.489 243.054 158.195 243.192 159.343V159.343C243.312 160.344 244.246 161.04 245.239 160.868L251.465 159.794C252.342 159.643 253.171 159.287 253.884 158.756L259.904 154.272C260.687 153.69 261.807 154.166 261.931 155.134V155.134C262.039 155.983 262.938 156.486 263.719 156.135L270.438 153.112C270.688 153 270.924 152.86 271.143 152.695L275.771 149.201C276.562 148.604 277.684 149.235 277.584 150.221V150.221C277.502 151.034 278.281 151.665 279.059 151.416L284.958 149.53C285.704 149.291 286.387 148.886 286.955 148.346L291.501 144.023C292.106 143.448 293.074 143.511 293.598 144.161V144.161C294.057 144.728 294.868 144.86 295.482 144.466L302.48 139.981C302.945 139.683 303.348 139.298 303.668 138.847L307.869 132.913C308.346 132.239 309.394 132.437 309.593 133.239V133.239C309.782 134.003 310.758 134.231 311.266 133.63L318.355 125.248C318.77 124.757 319.089 124.191 319.294 123.581L321.412 117.275C321.775 116.195 323.189 115.941 323.905 116.828V116.828C324.555 117.632 325.814 117.513 326.302 116.602L331.688 106.537C332.215 105.552 332.555 104.477 332.689 103.367L333.767 94.4528L334.33 87.1428C334.41 86.1101 334.768 85.1183 335.367 84.2731L336.19 83.1108C337.449 81.3341 339.861 80.8213 341.734 81.9323L343.121 82.7554C343.683 83.0886 344.387 83.0636 344.923 82.6914L346.54 81.5701C347.404 80.971 347.513 78.2758 347.107 77.3062V77.3062C346.75 76.4526 346.369 75.5422 345.636 74.9282C344.702 74.1453 343.81 73.8116 342.916 73.4773C342.032 73.1469 341.147 72.8159 340.218 72.0504C339.017 71.0605 338.361 70.096 337.643 69.0405C337.209 68.4028 336.753 67.732 336.14 67.0021Z" fill="#09FFA6"/>
<path fill-rule="evenodd" clip-rule="evenodd" d="M3.52158 115.455C2.11328 116.878 0.00414362 115.182 0.00377885 113.18L0.000976613 97.7991C0.000550919 95.4626 2.68646 94.5331 4.26982 96.2513V96.2513C4.53523 96.5393 4.41428 96.5205 4.55176 96.8872L5.03673 98.1809C5.04657 98.2072 5.05602 98.2321 5.06638 98.2582C5.17722 98.5371 5.89296 100.282 6.73587 101.013C7.76618 101.908 8.74417 102.607 9.84863 102.037C10.8359 101.528 10.7439 100.371 10.6424 99.0961C10.602 98.5878 10.56 98.0607 10.5843 97.5482C10.587 97.4903 10.5898 97.4332 10.5925 97.377C10.6595 95.9729 10.7013 95.0995 10.4016 93.6606C10.3465 93.3961 10.2674 93.1104 10.1749 92.8201C9.60666 91.0368 9.39385 89.1249 9.96549 87.3427V87.3427C10.4851 85.7228 11.6145 84.3931 12.8416 83.2149C13.1585 82.9106 13.4571 82.5831 13.6902 82.2505C14.3175 81.3553 14.9067 80.9522 15.6355 80.4536C15.8718 80.2919 16.1229 80.1202 16.3947 79.9184C17.319 79.2319 18.6642 78.4575 19.4992 77.9961C19.9013 77.7739 20.4013 77.9649 20.5625 78.395V78.395C20.7711 78.9514 21.5072 79.0634 21.949 78.666C21.9968 78.623 22.044 78.5826 22.0898 78.5461C22.6118 78.13 23.0607 77.9873 23.5627 77.8276C23.8347 77.7411 24.1223 77.6497 24.4457 77.5071L25.5217 77.0326C25.8732 76.8775 26.2566 77.1743 26.1945 77.5535V77.5535C26.1138 78.0467 26.7428 78.3237 27.0522 77.9311L27.2966 77.6211C27.3558 77.5459 27.4327 77.4863 27.5203 77.4477L29.5604 76.548V76.548C30.4975 76.1347 31.4829 77.031 31.8325 77.9937C31.8803 78.1255 31.9412 78.2467 32.0178 78.352C32.6574 79.2305 33.3481 78.581 34.1207 77.8545C34.5393 77.4609 34.9819 77.0448 35.4534 76.8368L35.8183 76.6759C37.6196 75.8815 39.8785 76.8873 39.7882 78.854V78.854C39.7395 79.9167 39.5132 80.5785 39.2316 81.4025C39.1428 81.6623 39.0485 81.9382 38.9525 82.2478C38.5334 83.5997 38.2589 84.3446 37.6763 85.6002C37.4431 86.1027 37.1062 86.7324 36.8445 87.2071C36.6291 87.5979 36.7593 88.0918 37.1433 88.319V88.319C37.4543 88.5029 37.6071 88.8693 37.5026 89.2151C37.341 89.75 37.076 90.5331 36.7763 91.0458C36.0592 92.2724 35.2668 92.7312 34.2538 93.3178C34.0109 93.4585 33.7553 93.6065 33.485 93.7742C32.9664 94.096 32.3071 94.4105 31.6839 94.6785C30.9312 95.0022 30.8455 96.0872 31.5637 96.4814V96.4814C32.0545 96.7508 32.2018 97.3863 31.8501 97.8218C31.572 98.1661 31.2414 98.5444 30.9424 98.8048C29.7263 99.8637 28.7705 100.097 27.314 100.453C27.2349 100.472 27.1543 100.491 27.0721 100.512C26.5404 100.642 25.8696 100.723 25.2678 100.773C24.7113 100.819 24.449 101.524 24.8596 101.903V101.903C25.17 102.189 25.1066 102.693 24.73 102.884C23.8505 103.33 22.3791 104.033 21.2427 104.359C20.047 104.702 19.1941 104.782 18.1701 104.878C17.7708 104.915 17.3454 104.955 16.8635 105.014C16.4317 105.066 16.0631 105.15 15.7153 105.229C15.0115 105.39 14.3932 105.53 13.5102 105.353C12.9279 105.237 12.2268 104.899 11.6524 104.578C11.0454 104.238 10.2536 104.427 9.92222 105.039V105.039C9.79915 105.266 9.60413 105.445 9.3678 105.55L9.0703 105.681C8.41604 105.969 7.9517 106.569 7.83577 107.274L7.81877 107.378C7.76218 107.722 7.62847 108.049 7.43057 108.336C6.97239 109.002 6.09626 110.3 5.53723 111.286C5.1821 111.912 4.9816 112.512 4.79015 113.086C4.50602 113.936 4.2418 114.728 3.52158 115.455V115.455Z" fill="#09FFA6"/>
<path fill-rule="evenodd" clip-rule="evenodd" d="M18.9436 107.45C23.586 105.523 30.0943 103.805 34.4392 102.764C37.4994 102.031 40.6607 101.896 43.7881 102.244L48.5752 102.776C49.1347 102.839 49.7001 102.823 50.2551 102.729L55.8834 101.778C56.7589 101.63 57.5498 102.322 57.5191 103.209V103.209C57.4934 103.949 58.046 104.581 58.7819 104.654L63.5148 105.125C64.1351 105.187 64.7433 105.338 65.3204 105.574L68.7089 106.957C69.1057 107.119 69.4168 107.439 69.5673 107.84L69.8932 108.71C69.9963 108.985 69.8668 109.293 69.5979 109.411V109.411C69.1532 109.607 69.1584 110.24 69.6062 110.429L74.9965 112.702C75.2577 112.812 75.5025 112.958 75.7238 113.135L80.0922 116.632C80.4222 116.896 80.6747 117.244 80.823 117.64L81.4786 119.389C81.5474 119.572 81.461 119.777 81.2818 119.856V119.856C81.0201 119.972 80.9832 120.328 81.2157 120.495L84.3942 122.773C84.6485 122.955 84.8678 123.182 85.0417 123.442L86.6617 125.867C86.9224 126.257 86.7679 126.788 86.3385 126.977V126.977C85.7975 127.216 85.7281 127.955 86.2153 128.29L88.9897 130.198C89.3274 130.431 89.6063 130.738 89.8041 131.097L92.9125 136.739C93.1196 137.115 92.7906 137.561 92.3703 137.473V137.473C91.9255 137.381 91.5963 137.88 91.8556 138.253L95.5269 143.533C95.6724 143.742 95.7912 143.969 95.8806 144.207L96.9061 146.943C97.0884 147.429 96.8594 147.973 96.3841 148.183V148.183C95.859 148.415 95.6446 149.046 95.9199 149.549L97.982 153.32C98.1005 153.536 98.1838 153.77 98.2288 154.013L98.8483 157.351C98.9181 157.727 98.5437 158.031 98.19 157.885V157.885C97.7753 157.715 97.3724 158.152 97.5765 158.552L99.4902 162.293L100.747 165.646C100.96 166.215 100.692 166.851 100.136 167.096V167.096C99.5175 167.369 99.2685 168.116 99.6 168.706L102.024 173.017C102.282 173.477 102.445 173.983 102.505 174.507L103.068 179.5C103.128 180.031 102.617 180.444 102.111 180.276V180.276C101.527 180.082 100.979 180.651 101.195 181.226L102.842 185.62C102.993 186.023 103.055 186.455 103.023 186.884L102.808 189.77C102.777 190.178 102.381 190.456 101.988 190.346V190.346C101.511 190.212 101.067 190.641 101.184 191.122L101.961 194.32C102.049 194.685 102.057 195.065 101.983 195.434L101.538 197.653C101.447 198.103 101.025 198.407 100.57 198.35V198.35C100.032 198.282 99.5627 198.714 99.5854 199.255L99.7357 202.841C99.7599 203.418 99.656 203.993 99.4314 204.525L98.9343 205.702C98.0211 207.866 95.2512 208.489 93.4992 206.926L93.4047 206.841C93.2474 206.701 93.0725 206.581 92.8846 206.486L88.6313 204.323C88.1492 204.077 87.6175 204.553 87.8073 205.059V205.059C87.9732 205.502 87.5799 205.951 87.1192 205.845L84.3247 205.202C84.0578 205.141 83.8052 205.029 83.5807 204.872L80.9531 203.035C80.4426 202.678 79.7374 203.009 79.6858 203.63V203.63C79.6389 204.194 79.0411 204.536 78.5309 204.291L75.2222 202.698L70.7624 200.63C70.28 200.407 69.7691 200.88 69.9557 201.378V201.378C70.1093 201.788 69.7826 202.218 69.3467 202.179L66.1679 201.898C65.6367 201.851 65.1328 201.642 64.7242 201.3L61.3213 198.447C60.8597 198.06 60.1522 198.306 60.0303 198.896V198.896C59.9292 199.385 59.4075 199.661 58.946 199.47L55.0292 197.847C54.4756 197.618 53.9865 197.256 53.6044 196.795L51.1625 193.844C50.7166 193.306 49.8705 193.375 49.5188 193.98V193.98C49.2064 194.517 48.4864 194.645 48.008 194.249L44.5104 191.349C44.1048 191.012 43.7737 190.595 43.5382 190.124L41.0403 185.125C40.7762 184.597 40.0318 184.57 39.7305 185.078V185.078C39.4609 185.533 38.817 185.571 38.4957 185.151L35.2727 180.94C35.1789 180.818 35.0973 180.686 35.0291 180.548L33.1394 176.712C32.8724 176.17 32.0803 176.233 31.9025 176.81V176.81C31.7518 177.3 31.1282 177.444 30.7777 177.071L27.6869 173.776C27.3897 173.459 27.1581 173.086 27.0056 172.679L25.3477 168.257C25.169 167.78 24.6264 167.552 24.1606 167.757V167.757C23.7471 167.939 23.2626 167.781 23.0363 167.39L20.0199 162.176C19.8524 161.887 19.735 161.571 19.6728 161.242L18.6918 156.064C18.5971 155.564 17.9566 155.409 17.6443 155.811V155.811C17.3449 156.197 16.7338 156.074 16.6068 155.603L14.5705 148.052C14.4588 147.638 14.4194 147.208 14.4539 146.781L14.8295 142.132C14.8876 141.414 14.1569 140.895 13.4976 141.185V141.185C12.8966 141.45 12.2143 141.041 12.1652 140.386L11.5703 132.442C11.5122 131.666 11.592 130.887 11.806 130.139L13.4072 124.547L14.8908 120.109C15.1252 119.408 15.176 118.659 15.0382 117.932L14.8041 116.698C14.548 115.348 13.3585 114.377 11.9844 114.397L10.9172 114.412C10.5165 114.417 10.146 114.199 9.95639 113.846L9.12797 112.303C8.84171 111.77 9.55299 110.224 10.0002 109.817V109.817C10.4219 109.432 10.8717 109.022 11.4504 108.908C12.1883 108.763 12.789 108.87 13.3908 108.977C13.9854 109.083 14.5812 109.189 15.3117 109.052C16.2563 108.875 16.8789 108.527 17.5603 108.146C17.972 107.916 18.4051 107.674 18.9436 107.45Z" fill="#09FFA6"/>
</svg>
