<svg width="413" height="323" viewBox="0 0 413 323" fill="none" xmlns="http://www.w3.org/2000/svg">
<path fill-rule="evenodd" clip-rule="evenodd" d="M247.055 0C252.342 0 256.628 4.28612 256.628 9.57331C256.628 14.8605 252.342 19.1466 247.055 19.1466H238.985V70.629C278.948 83.1424 307.858 119.541 307.858 162.493C307.858 215.792 263.342 259 208.43 259C153.517 259 109.001 215.792 109.001 162.493C109.001 119.538 137.915 83.137 177.883 70.6262V19.1466H169.813C164.526 19.1466 160.24 14.8605 160.24 9.57331C160.24 4.28612 164.526 0 169.813 0H247.055Z" fill="#AAE0FF"/>
<path fill-rule="evenodd" clip-rule="evenodd" d="M208.428 258.998C153.516 258.998 109 215.79 109 162.491C109 154.518 109.996 146.771 111.874 139.36C117.843 141.469 124.979 145.13 133.081 149.288C138.507 152.072 144.367 155.079 150.6 157.99C168.025 166.13 189.221 163.295 209.494 160.583L209.494 160.583C219.293 159.272 228.876 157.99 237.714 157.99C266.026 157.99 286.32 145.89 300.179 137.626C301.473 136.854 302.71 136.116 303.893 135.425C306.473 144.012 307.857 153.095 307.857 162.491C307.857 215.79 263.341 258.998 208.428 258.998Z" fill="url(#paint0_linear_579_193)"/>
<path d="M0 322H412.5" stroke="white" stroke-width="2"/>
<defs>
<linearGradient id="paint0_linear_579_193" x1="337.153" y1="201.383" x2="79.494" y2="200.406" gradientUnits="userSpaceOnUse">
<stop stop-color="#1B3789"/>
<stop offset="1" stop-color="#486FFA"/>
</linearGradient>
</defs>
</svg>
