<svg width="376" height="196" viewBox="0 0 376 196" fill="none" xmlns="http://www.w3.org/2000/svg">
<mask id="path-1-inside-1_495_302" fill="white">
<path fill-rule="evenodd" clip-rule="evenodd" d="M360.782 53.5724C362.127 52.2933 363.726 51.2929 365.529 50.8549C367.303 50.4242 369.612 50.0179 371.38 50.2486C374.293 50.6284 375.903 53.6651 375.903 56.6018L375.91 89.6279C375.91 90.7594 374.718 91.3294 373.922 90.5253C373.783 90.3852 373.639 90.2393 373.486 90.0871C372.96 89.562 372.371 88.8545 371.859 88.204C371.348 87.5535 370.278 87.7802 370.107 88.5897C369.978 89.1953 369.316 89.5131 368.775 89.213C367.812 88.6793 366.416 87.8462 365.495 87.0375C364.402 86.0784 363.79 85.204 363.106 84.2262C362.735 83.6963 362.343 83.1361 361.842 82.5155L361.816 82.484C361.016 81.4929 359.539 81.3961 358.616 82.2741C357.82 83.0317 356.585 83.0764 355.806 82.3006C354.721 81.22 353.317 79.6136 352.75 78.0643C352.182 76.5104 352.281 75.2337 352.387 73.8608C352.458 72.9357 352.533 71.9669 352.41 70.8402C352.215 69.0612 351.763 66.6051 351.521 65.3466C351.418 64.8086 351.428 64.2552 351.557 63.7228C351.831 62.5939 351.564 61.4017 350.834 60.498L350.465 60.0415C350.208 59.7235 350.051 59.3365 350.014 58.9294C349.911 57.7997 348.916 56.9642 347.782 56.93C346.824 56.9013 345.713 56.795 344.874 56.5007C343.55 56.0368 342.778 55.3554 341.9 54.5796C341.466 54.1963 341.006 53.79 340.44 53.3755C339.809 52.913 339.245 52.521 338.715 52.153C337.357 51.2093 336.225 50.4233 334.775 49.0098C333.364 47.6354 331.701 45.4496 330.757 44.1579C330.39 43.6551 330.661 42.951 331.267 42.8098C332.043 42.6294 332.214 41.5755 331.553 41.1325C330.692 40.5553 329.701 39.8443 328.977 39.1858C328.876 39.0932 328.776 39.0026 328.678 38.9136C326.874 37.2759 325.691 36.201 324.632 33.8062C324.365 33.2041 324.126 32.4093 323.942 31.7127C323.729 30.9086 324.365 30.1548 325.196 30.1819C326.349 30.2195 326.995 28.8176 326.256 27.9317C325.483 27.0056 324.653 25.9411 324.068 25.0021C323.793 24.5611 323.527 24.1582 323.273 23.7754C322.218 22.1788 321.392 20.93 321.121 18.706C321.006 17.7702 321.101 16.4928 321.192 15.6432C321.248 15.1215 321.693 14.7387 322.217 14.7382C322.853 14.7375 323.346 14.1839 323.284 13.5519C323.199 12.6955 323.098 11.5378 323.069 10.6492C323 8.49313 323.058 7.27065 323.271 5.11494C323.32 4.62116 323.351 4.17424 323.381 3.75343C323.53 1.64146 325.391 0.270004 327.508 0.270004H330.577C330.848 0.270004 331.105 0.392795 331.276 0.604073C331.806 1.25944 332.173 2.17255 332.521 3.03613C333.162 4.62995 333.735 6.05502 335.134 5.37946C335.186 5.35449 335.236 5.32627 335.285 5.29508C336.625 4.44844 338.59 3.66952 339.586 4.90241L341.901 7.76836C341.984 7.87063 342.043 7.98953 342.076 8.11694L342.298 8.99164C342.475 9.68662 343.464 9.68158 343.634 8.98483C343.769 8.4311 344.48 8.27192 344.838 8.71525L346.089 10.264C346.452 10.7133 346.796 11.0654 347.121 11.3984C347.721 12.0129 348.257 12.5624 348.734 13.5385C348.814 13.7018 348.892 13.8874 348.967 14.0811C349.272 14.8701 350.29 15.1607 350.903 14.578C351.391 14.1139 352.174 14.1879 352.556 14.7425C353.432 16.0147 354.896 18.2074 355.797 19.9187C356.054 20.407 356.3 20.8382 356.532 21.2442C357.246 22.496 357.824 23.5082 358.166 25.2138C358.331 26.0392 358.655 26.9415 359.017 27.7834C359.952 29.9574 360.571 32.294 360.361 34.651C360.086 37.7358 358.349 40.4122 356.358 42.7846C356.238 42.9279 356.125 43.0705 356.021 43.2112C354.764 44.9125 354.309 46.1231 353.579 48.0691C353.55 48.147 353.52 48.2262 353.49 48.3065C353.223 49.0167 352.856 49.6939 352.502 50.3469C351.615 51.9854 350.81 53.4714 351.875 54.9432C353.067 56.5898 354.827 56.4253 356.775 56.0391C358.368 55.7232 360.38 53.9405 360.696 53.6529C360.726 53.626 360.753 53.5999 360.782 53.5724Z"/>
</mask>
<path d="M373.486 90.0871L372.78 90.7949L373.486 90.0871ZM365.495 87.0375L364.835 87.7889L365.495 87.0375ZM363.106 84.2262L363.925 83.6527L363.106 84.2262ZM361.842 82.5155L362.619 81.8871L361.842 82.5155ZM352.75 78.0643L351.811 78.4078L352.75 78.0643ZM352.387 73.8608L351.39 73.7837L352.387 73.8608ZM352.41 70.8402L351.416 70.9491L352.41 70.8402ZM344.874 56.5007L344.543 57.4444L344.874 56.5007ZM341.9 54.5796L342.562 53.8301H342.562L341.9 54.5796ZM340.44 53.3755L339.849 54.1821H339.849L340.44 53.3755ZM338.715 52.153L338.145 52.9742L338.715 52.153ZM334.775 49.0098L334.077 49.7261H334.077L334.775 49.0098ZM328.977 39.1858L329.651 38.4463H329.651L328.977 39.1858ZM328.678 38.9136L328.006 39.6539H328.006L328.678 38.9136ZM324.632 33.8062L323.717 34.2107H323.717L324.632 33.8062ZM324.068 25.0021L323.219 25.5313H323.219L324.068 25.0021ZM323.273 23.7754L322.439 24.3268H322.439L323.273 23.7754ZM321.121 18.706L322.113 18.5848L322.113 18.5848L321.121 18.706ZM323.069 10.6492L322.07 10.6812V10.6812L323.069 10.6492ZM323.271 5.11494L324.266 5.21346V5.21346L323.271 5.11494ZM332.521 3.03613L331.593 3.40946V3.40946L332.521 3.03613ZM335.134 5.37946L334.699 4.47903L335.134 5.37946ZM346.089 10.264L345.311 10.8924L345.311 10.8924L346.089 10.264ZM347.121 11.3984L346.405 12.0969V12.0969L347.121 11.3984ZM348.734 13.5385L347.836 13.9777L348.734 13.5385ZM355.797 19.9187L356.682 19.4528L356.682 19.4528L355.797 19.9187ZM356.532 21.2442L355.663 21.7399L356.532 21.2442ZM358.166 25.2138L357.185 25.4103V25.4103L358.166 25.2138ZM356.021 43.2112L356.825 43.8056H356.825L356.021 43.2112ZM353.579 48.0691L352.643 47.7178L352.643 47.7178L353.579 48.0691ZM353.49 48.3065L354.426 48.6583L354.426 48.6583L353.49 48.3065ZM352.502 50.3469L351.623 49.8706L352.502 50.3469ZM351.875 54.9432L351.065 55.5295H351.065L351.875 54.9432ZM356.775 56.0391L356.58 55.0582L356.58 55.0582L356.775 56.0391ZM335.285 5.29508L334.751 4.44971L335.285 5.29508ZM323.284 13.5519L322.289 13.6505L323.284 13.5519ZM360.696 53.6529L361.369 54.3928L360.696 53.6529ZM347.782 56.93L347.752 57.9296L347.782 56.93ZM351.521 65.3466L352.503 65.1576L351.521 65.3466ZM359.017 27.7834L358.099 28.1784L359.017 27.7834ZM361.816 82.484L361.038 83.1124L361.816 82.484ZM375.903 56.6018L374.903 56.602L375.903 56.6018ZM331.553 41.1325L330.997 41.9633L331.553 41.1325ZM375.91 89.6279L374.91 89.6281L375.91 89.6279ZM350.465 60.0415L351.243 59.4131L350.465 60.0415ZM352.556 14.7425L353.379 14.1753L352.556 14.7425ZM365.529 50.8549L365.293 49.8831L365.529 50.8549ZM342.298 8.99164L341.329 9.23823L342.298 8.99164ZM330.757 44.1579L331.565 43.5681L330.757 44.1579ZM371.859 88.204L372.646 87.586L371.859 88.204ZM355.806 82.3006L355.1 83.0092L355.806 82.3006ZM341.901 7.76836L342.679 7.13996L341.901 7.76836ZM342.076 8.11694L341.106 8.36354L342.076 8.11694ZM371.51 49.257C369.544 49.0006 367.079 49.4496 365.293 49.8831L365.765 51.8266C367.528 51.3987 369.68 51.0353 371.251 51.2402L371.51 49.257ZM374.903 56.602L374.91 89.6281L376.91 89.6277L376.903 56.6016L374.903 56.602ZM372.78 90.7949C372.93 90.9447 373.072 91.0884 373.211 91.2288L374.633 89.8218C374.494 89.682 374.348 89.534 374.193 89.3792L372.78 90.7949ZM371.073 88.822C371.592 89.4816 372.211 90.2267 372.78 90.7949L374.193 89.3792C373.71 88.8973 373.15 88.2275 372.646 87.586L371.073 88.822ZM364.835 87.7889C365.843 88.6746 367.323 89.5516 368.29 90.0876L369.259 88.3384C368.301 87.807 366.988 87.0179 366.154 86.2861L364.835 87.7889ZM362.287 84.7996C362.974 85.781 363.644 86.7435 364.835 87.7889L366.154 86.2861C365.161 85.4133 364.607 84.6271 363.925 83.6527L362.287 84.7996ZM361.064 83.1439C361.541 83.7345 361.915 84.2688 362.287 84.7996L363.925 83.6527C363.555 83.1239 363.145 82.5376 362.619 81.8871L361.064 83.1439ZM361.038 83.1124L361.064 83.1439L362.619 81.8871L362.594 81.8556L361.038 83.1124ZM351.811 78.4078C352.46 80.1808 354.007 81.9202 355.1 83.0092L356.512 81.5921C355.435 80.5199 354.174 79.0465 353.69 77.7209L351.811 78.4078ZM351.39 73.7837C351.284 75.1546 351.161 76.6293 351.811 78.4078L353.69 77.7209C353.203 76.3914 353.278 75.3127 353.384 73.9379L351.39 73.7837ZM351.416 70.9491C351.528 71.9718 351.462 72.8547 351.39 73.7837L353.384 73.9379C353.455 73.0166 353.539 71.962 353.404 70.7312L351.416 70.9491ZM350.539 65.5355C350.782 66.7952 351.226 69.2151 351.416 70.9491L353.404 70.7312C353.204 68.9073 352.745 66.4149 352.503 65.1576L350.539 65.5355ZM349.687 60.6699L350.056 61.1264L351.612 59.8696L351.243 59.4131L349.687 60.6699ZM344.543 57.4444C345.534 57.7917 346.772 57.9001 347.752 57.9296L347.812 55.9305C346.877 55.9024 345.893 55.7983 345.204 55.557L344.543 57.4444ZM341.238 55.3292C342.12 56.1076 343.018 56.91 344.543 57.4444L345.204 55.557C344.082 55.1636 343.437 54.6032 342.562 53.8301L341.238 55.3292ZM339.849 54.1821C340.374 54.5663 340.802 54.9443 341.238 55.3292L342.562 53.8301C342.13 53.4483 341.638 53.0137 341.031 52.5689L339.849 54.1821ZM338.145 52.9742C338.675 53.3426 339.23 53.728 339.849 54.1821L341.031 52.5689C340.389 52.098 339.815 51.6993 339.286 51.3317L338.145 52.9742ZM334.077 49.7261C335.591 51.2013 336.781 52.0268 338.145 52.9742L339.286 51.3317C337.933 50.3917 336.86 49.6453 335.473 48.2936L334.077 49.7261ZM329.95 44.7477C330.892 46.0381 332.599 48.2865 334.077 49.7261L335.473 48.2936C334.129 46.9843 332.509 44.8611 331.565 43.5681L329.95 44.7477ZM328.304 39.9253C329.084 40.6351 330.125 41.3793 330.997 41.9633L332.11 40.3017C331.258 39.7313 330.318 39.0534 329.651 38.4463L328.304 39.9253ZM328.006 39.6539C328.104 39.7429 328.203 39.8332 328.304 39.9253L329.651 38.4463C329.548 38.3533 329.448 38.2622 329.35 38.1733L328.006 39.6539ZM323.717 34.2107C324.867 36.8117 326.191 38.0059 328.006 39.6539L329.35 38.1733C327.558 36.5458 326.514 35.5903 325.546 33.4017L323.717 34.2107ZM322.975 31.968C323.162 32.6766 323.418 33.5338 323.717 34.2107L325.546 33.4017C325.313 32.8744 325.089 32.1419 324.909 31.4573L322.975 31.968ZM323.219 25.5313C323.842 26.5291 324.706 27.6353 325.488 28.5722L327.024 27.2912C326.26 26.3759 325.465 25.3531 324.916 24.473L323.219 25.5313ZM322.439 24.3268C322.693 24.7108 322.952 25.1031 323.219 25.5313L324.916 24.473C324.633 24.019 324.36 23.6056 324.108 23.2239L322.439 24.3268ZM320.128 18.8273C320.43 21.3018 321.377 22.7198 322.439 24.3268L324.108 23.2239C323.059 21.6379 322.354 20.5581 322.113 18.5848L320.128 18.8273ZM320.198 15.5369C320.107 16.3887 319.999 17.767 320.128 18.8273L322.113 18.5848C322.014 17.7733 322.096 16.5969 322.187 15.7495L320.198 15.5369ZM322.07 10.6812C322.099 11.6054 322.204 12.7913 322.289 13.6505L324.279 13.4534C324.194 12.5997 324.096 11.4702 324.069 10.6173L322.07 10.6812ZM322.276 5.01641C322.059 7.20855 321.999 8.47509 322.07 10.6812L324.069 10.6173C324.001 8.51117 324.056 7.33275 324.266 5.21346L322.276 5.01641ZM322.384 3.68328C322.354 4.10514 322.323 4.5387 322.276 5.01642L324.266 5.21346C324.317 4.70362 324.349 4.24334 324.379 3.82358L322.384 3.68328ZM327.508 1.27H330.577V-0.729996H327.508V1.27ZM333.448 2.6628C333.116 1.83783 332.696 0.770506 332.054 -0.0243284L330.498 1.23248C330.915 1.74836 331.23 2.50728 331.593 3.40946L333.448 2.6628ZM334.699 4.47903C334.597 4.52815 334.532 4.54409 334.498 4.54912C334.482 4.5516 334.472 4.55159 334.468 4.55142C334.466 4.55134 334.464 4.55118 334.464 4.55109C334.463 4.55101 334.463 4.55094 334.463 4.55091C334.463 4.55088 334.462 4.55078 334.461 4.55053C334.461 4.55027 334.459 4.54973 334.457 4.54872C334.453 4.54675 334.444 4.54239 334.432 4.53359C334.405 4.5153 334.363 4.47947 334.307 4.41309C334.036 4.09316 333.792 3.51807 333.448 2.6628L331.593 3.40946C331.89 4.14801 332.254 5.08237 332.78 5.70453C333.064 6.04072 333.457 6.36427 333.989 6.49398C334.531 6.62607 335.069 6.52151 335.569 6.27989L334.699 4.47903ZM334.751 4.44971C334.732 4.46182 334.715 4.47142 334.699 4.47903L335.569 6.27989C335.656 6.23756 335.74 6.19072 335.82 6.14045L334.751 4.44971ZM342.679 7.13996L340.364 4.27401L338.808 5.53081L341.123 8.39676L342.679 7.13996ZM343.267 8.74505L343.045 7.87035L341.106 8.36354L341.329 9.23823L343.267 8.74505ZM346.867 9.63555L345.616 8.08685L344.06 9.34365L345.311 10.8924L346.867 9.63555ZM347.836 10.6999C347.51 10.3658 347.197 10.0441 346.867 9.63555L345.311 10.8924C345.707 11.3825 346.081 11.765 346.405 12.0969L347.836 10.6999ZM349.633 13.0993C349.08 11.9682 348.443 11.3214 347.836 10.6999L346.405 12.0969C346.998 12.7045 347.434 13.1566 347.836 13.9777L349.633 13.0993ZM349.9 13.721C349.819 13.5104 349.729 13.2965 349.633 13.0993L347.836 13.9777C347.899 14.107 347.966 14.2645 348.034 14.4413L349.9 13.721ZM356.682 19.4528C355.75 17.6837 354.256 15.4477 353.379 14.1753L351.732 15.3097C352.608 16.5816 354.041 18.7311 354.912 20.3847L356.682 19.4528ZM357.4 20.7485C357.168 20.3415 356.93 19.9241 356.682 19.4528L354.912 20.3847C355.178 20.89 355.432 21.335 355.663 21.7399L357.4 20.7485ZM359.146 25.0173C358.771 23.1422 358.121 22.0107 357.4 20.7485L355.663 21.7399C356.372 22.9814 356.877 23.8741 357.185 25.4103L359.146 25.0173ZM359.936 27.3884C359.587 26.5766 359.292 25.7461 359.146 25.0173L357.185 25.4103C357.37 26.3323 357.724 27.3063 358.099 28.1784L359.936 27.3884ZM356.825 43.8056C356.915 43.6838 357.015 43.5574 357.124 43.4274L355.592 42.1418C355.461 42.2984 355.335 42.4572 355.217 42.6169L356.825 43.8056ZM354.515 48.4204C355.242 46.4827 355.657 45.3862 356.825 43.8056L355.217 42.6169C353.87 44.4387 353.376 45.7635 352.643 47.7178L354.515 48.4204ZM354.426 48.6583C354.456 48.5776 354.486 48.4983 354.515 48.4204L352.643 47.7178C352.614 47.7957 352.584 47.8747 352.554 47.9548L354.426 48.6583ZM353.382 50.8232C353.73 50.1806 354.131 49.4435 354.426 48.6583L352.554 47.9548C352.315 48.59 351.983 49.2072 351.623 49.8706L353.382 50.8232ZM352.685 54.3569C352.353 53.8978 352.305 53.4685 352.43 52.9368C352.572 52.3323 352.92 51.6755 353.382 50.8232L351.623 49.8706C351.197 50.6568 350.699 51.5622 350.483 52.4783C350.25 53.4672 350.332 54.5168 351.065 55.5295L352.685 54.3569ZM356.58 55.0582C355.609 55.2508 354.83 55.3539 354.18 55.2631C353.592 55.1809 353.107 54.9401 352.685 54.3569L351.065 55.5295C351.835 56.5929 352.826 57.0932 353.903 57.2438C354.919 57.3858 355.993 57.2136 356.969 57.02L356.58 55.0582ZM360.023 52.9129C359.881 53.0425 359.333 53.5296 358.639 54.0172C357.916 54.5255 357.159 54.9434 356.58 55.0582L356.969 57.02C357.984 56.8189 359.029 56.1875 359.789 55.6536C360.579 55.0989 361.195 54.5508 361.369 54.3928L360.023 52.9129ZM335.82 6.14045C336.44 5.7486 337.142 5.41522 337.748 5.30188C338.346 5.19014 338.635 5.31676 338.808 5.53081L340.364 4.27401C339.541 3.25518 338.349 3.15481 337.381 3.33596C336.421 3.51553 335.471 3.99493 334.751 4.44971L335.82 6.14045ZM322.219 15.7382C323.453 15.7369 324.399 14.6643 324.279 13.4534L322.289 13.6505C322.291 13.6748 322.284 13.6961 322.268 13.7142C322.252 13.7318 322.235 13.7381 322.216 13.7382L322.219 15.7382ZM325.164 31.1814C327.235 31.249 328.279 28.7967 327.024 27.2912L325.488 28.5722C325.579 28.6816 325.599 28.8306 325.529 28.98C325.461 29.1257 325.351 29.1864 325.229 29.1825L325.164 31.1814ZM361.369 54.3928C361.407 54.3581 361.441 54.3258 361.471 54.2971L360.093 52.8478C360.065 52.8741 360.044 52.8939 360.023 52.9129L361.369 54.3928ZM351.01 58.8384C350.855 57.1457 349.389 55.9779 347.812 55.9305L347.752 57.9296C348.442 57.9504 348.967 58.4536 349.018 59.0203L351.01 58.8384ZM352.503 65.1576C352.426 64.7566 352.434 64.3482 352.529 63.9588L350.585 63.4868C350.421 64.1621 350.409 64.8606 350.539 65.5355L352.503 65.1576ZM358.099 28.1784C358.999 30.2718 359.555 32.4338 359.365 34.5622L361.357 34.7399C361.588 32.1542 360.905 29.6429 359.936 27.3884L358.099 28.1784ZM362.594 81.8556C361.426 80.4102 359.274 80.269 357.927 81.5495L359.305 82.9988C359.805 82.5233 360.605 82.5757 361.038 83.1124L362.594 81.8556ZM371.251 51.2402C373.436 51.5252 374.903 53.896 374.903 56.602L376.903 56.6016C376.903 53.4342 375.149 49.7316 371.51 49.257L371.251 51.2402ZM344.605 9.22152C344.544 9.47239 344.222 9.5445 344.06 9.34365L345.616 8.08685C344.737 6.99933 342.993 7.38982 342.662 8.74813L344.605 9.22152ZM331.494 43.7838C333.169 43.3939 333.457 41.204 332.11 40.3017L330.997 41.9633C330.994 41.9615 330.988 41.9565 330.981 41.9478C330.974 41.9394 330.969 41.9308 330.966 41.9235C330.961 41.9104 330.963 41.9044 330.963 41.9044C330.963 41.9042 330.964 41.8927 330.98 41.8752C330.988 41.8659 330.999 41.8564 331.012 41.8486C331.025 41.8405 331.036 41.837 331.041 41.8358L331.494 43.7838ZM374.91 89.6281C374.91 89.7323 374.884 89.796 374.862 89.8311C374.839 89.8682 374.813 89.8864 374.796 89.8945C374.779 89.9021 374.766 89.903 374.753 89.9006C374.743 89.8987 374.699 89.8887 374.633 89.8218L373.211 91.2288C373.898 91.9225 374.845 92.0745 375.634 91.7105C376.405 91.3547 376.91 90.562 376.91 89.6277L374.91 89.6281ZM330.577 1.27C330.546 1.27 330.517 1.25621 330.498 1.23247L332.054 -0.0243283C331.694 -0.47062 331.151 -0.729996 330.577 -0.729996V1.27ZM351.243 59.4131C351.11 59.2488 351.029 59.0488 351.01 58.8384L349.018 59.0203C349.073 59.6242 349.306 60.1982 349.687 60.6699L351.243 59.4131ZM324.909 31.4573C324.889 31.3849 324.905 31.3246 324.948 31.2731C324.993 31.2184 325.067 31.1782 325.164 31.1814L325.229 29.1825C323.77 29.1349 322.581 30.4766 322.975 31.968L324.909 31.4573ZM351.592 15.3026C351.644 15.2535 351.706 15.2717 351.732 15.3097L353.379 14.1753C352.642 13.1042 351.138 12.9743 350.214 13.8533L351.592 15.3026ZM369.128 88.3824C369.131 88.3685 369.146 88.3475 369.169 88.3366C369.18 88.3313 369.195 88.3272 369.214 88.3276C369.235 88.328 369.251 88.3338 369.259 88.3384L368.29 90.0876C369.444 90.7276 370.823 90.0318 371.085 88.7971L369.128 88.3824ZM365.293 49.8831C363.281 50.3718 361.532 51.4789 360.093 52.8478L361.471 54.2971C362.722 53.1076 364.17 52.2139 365.765 51.8266L365.293 49.8831ZM341.329 9.23823C341.763 10.9431 344.189 10.9307 344.605 9.22152L342.662 8.74813C342.675 8.69425 342.716 8.62333 342.787 8.57138C342.849 8.52544 342.913 8.5104 342.963 8.51015C343.014 8.50989 343.078 8.52427 343.141 8.56957C343.212 8.6208 343.254 8.6913 343.267 8.74505L341.329 9.23823ZM331.565 43.5681C331.575 43.5822 331.586 43.6061 331.59 43.6352C331.593 43.662 331.589 43.6854 331.582 43.704C331.567 43.7428 331.531 43.7752 331.494 43.7838L331.041 41.8358C329.755 42.1351 329.148 43.6504 329.95 44.7477L331.565 43.5681ZM324.379 3.82358C324.482 2.35627 325.786 1.27 327.508 1.27V-0.729996C324.997 -0.729996 322.577 0.926665 322.384 3.68328L324.379 3.82358ZM352.529 63.9588C352.877 62.5273 352.538 61.0155 351.612 59.8696L350.056 61.1264C350.59 61.7878 350.786 62.6605 350.585 63.4868L352.529 63.9588ZM348.034 14.4413C348.561 15.8052 350.395 16.4407 351.592 15.3026L350.214 13.8533C350.194 13.8718 350.178 13.8785 350.163 13.882C350.144 13.8863 350.115 13.8877 350.077 13.8777C349.997 13.8563 349.93 13.7981 349.9 13.721L348.034 14.4413ZM372.646 87.586C371.639 86.3058 369.486 86.6971 369.128 88.3824L371.085 88.7971C371.085 88.7953 371.085 88.7996 371.08 88.8069C371.077 88.8139 371.072 88.8197 371.067 88.8238C371.063 88.8277 371.061 88.8289 371.061 88.8288C371.061 88.8285 371.064 88.8275 371.068 88.8266C371.072 88.8257 371.076 88.8255 371.079 88.8256C371.082 88.8258 371.082 88.8262 371.081 88.8258C371.08 88.8254 371.077 88.8242 371.074 88.8222C371.071 88.82 371.071 88.8191 371.073 88.822L372.646 87.586ZM322.187 15.7495C322.187 15.747 322.187 15.7476 322.186 15.7491C322.186 15.75 322.186 15.7492 322.188 15.7475C322.192 15.7439 322.201 15.7382 322.219 15.7382L322.216 13.7382C321.205 13.7392 320.31 14.4839 320.198 15.5369L322.187 15.7495ZM359.365 34.5622C359.118 37.3315 357.549 39.8099 355.592 42.1418L357.124 43.4274C359.149 41.0145 361.054 38.1401 361.357 34.7399L359.365 34.5622ZM357.927 81.5495C357.483 81.9717 356.869 81.9479 356.512 81.5921L355.1 83.0092C356.301 84.2049 358.156 84.0917 359.305 82.9988L357.927 81.5495ZM341.123 8.39676C341.115 8.38702 341.11 8.37568 341.106 8.36354L343.045 7.87035C342.977 7.60339 342.852 7.35424 342.679 7.13996L341.123 8.39676Z" fill="black" mask="url(#path-1-inside-1_495_302)"/>
<mask id="path-3-inside-2_495_302" fill="white">
<path fill-rule="evenodd" clip-rule="evenodd" d="M336.139 55.0052C329.946 47.6294 320.041 38.6039 314.952 34.1039C312.808 32.2089 310.374 30.6784 307.761 29.5127L297.778 25.0581C297.08 24.7467 296.425 24.348 295.828 23.8715L288.23 17.8082C287.254 17.0292 285.802 17.4188 285.347 18.5818C284.959 19.5743 283.816 20.0358 282.847 19.591L275.768 16.3399C274.985 15.9802 274.155 15.7323 273.303 15.6033L267.716 14.7579C267.06 14.6587 266.396 14.8679 265.915 15.3248L265.053 16.1447C264.73 16.4522 264.697 16.9564 264.977 17.3034C265.465 17.9075 264.962 18.797 264.193 18.6898L255.612 17.4936C255.201 17.4363 254.783 17.4391 254.373 17.502L246.383 18.7262C245.715 18.8284 245.096 19.1325 244.607 19.5977L242.79 21.3253C242.569 21.5354 242.546 21.8798 242.738 22.1169C243.031 22.4797 242.802 23.0229 242.338 23.0669L236.782 23.5936C236.303 23.639 235.838 23.7804 235.415 24.0093L231.927 25.8965C231.276 26.2488 231.104 27.1054 231.569 27.6812C232.17 28.424 231.688 29.5351 230.736 29.6053L226.094 29.9476C225.464 29.994 224.857 30.2044 224.333 30.5579L216.906 35.5731C216.331 35.9613 216.447 36.8396 217.104 37.065C217.804 37.3056 217.874 38.2692 217.215 38.6079L209.307 42.6726C208.915 42.8744 208.553 43.1312 208.234 43.4353L205.427 46.1046C204.814 46.6871 204.752 47.6422 205.283 48.2997C205.879 49.0374 205.718 50.1269 204.933 50.6604L200.199 53.8818C199.828 54.1349 199.505 54.4532 199.246 54.8213L196.544 58.6719C196.194 59.1704 196.491 59.8628 197.094 59.9524C197.819 60.0601 198.048 60.993 197.455 61.4244L192.733 64.863L189.18 68.242C188.464 68.9225 188.391 70.0385 189.011 70.8067C189.714 71.6765 189.515 72.9623 188.582 73.579L183.209 77.1315C182.413 77.6578 181.747 78.3585 181.263 79.1804L177.742 85.1499C177.308 85.8862 177.719 86.8319 178.554 87.0157C179.538 87.2321 179.88 88.4597 179.15 89.1537L174.573 93.5068C174.035 94.0178 173.629 94.6508 173.388 95.3522L172.056 99.2341C171.844 99.8509 172.198 100.518 172.828 100.688C173.611 100.9 173.921 101.846 173.415 102.48L170.644 105.952C170.246 106.451 169.972 107.037 169.844 107.662L169.188 110.861C169.04 111.585 169.42 112.314 170.099 112.606C170.918 112.958 171.276 113.923 170.884 114.723L168.702 119.178C168.282 120.034 168.063 120.975 168.062 121.929L168.057 124.414C168.051 127.931 171.292 130.556 174.73 129.82L174.924 129.779C175.293 129.7 175.671 129.672 176.048 129.697L183.23 130.167C184.051 130.22 184.416 131.226 183.819 131.793C183.299 132.288 183.499 133.158 184.182 133.377L188.463 134.747C188.913 134.891 189.387 134.946 189.858 134.907L194.442 134.532C195.427 134.451 196.174 135.403 195.862 136.34C195.58 137.184 196.161 138.07 197.047 138.148L202.573 138.635L210.089 139.409C210.888 139.492 211.223 140.473 210.641 141.027C210.162 141.482 210.29 142.277 210.888 142.559L215.45 144.712C216.276 145.101 217.202 145.224 218.1 145.064L224.194 143.975C225.148 143.804 225.975 144.647 225.786 145.598C225.633 146.371 226.158 147.115 226.938 147.229L233.179 148.139C234.162 148.282 235.165 148.164 236.088 147.796L240.79 145.921C241.865 145.492 243.053 146.198 243.191 147.346C243.311 148.347 244.245 149.043 245.238 148.872L251.464 147.797C252.341 147.646 253.17 147.29 253.883 146.759L259.903 142.276C260.686 141.693 261.806 142.169 261.93 143.137C262.038 143.986 262.937 144.489 263.718 144.138L270.437 141.116C270.687 141.003 270.923 140.863 271.142 140.698L275.77 137.204C276.561 136.607 277.683 137.239 277.583 138.224C277.501 139.037 278.28 139.668 279.058 139.419L284.957 137.533C285.703 137.294 286.386 136.889 286.954 136.349L291.5 132.026C292.105 131.451 293.073 131.514 293.597 132.164C294.056 132.731 294.867 132.863 295.481 132.469L302.479 127.984C302.944 127.686 303.347 127.301 303.667 126.85L307.868 120.916C308.345 120.242 309.393 120.44 309.592 121.242C309.781 122.006 310.757 122.234 311.265 121.633L318.354 113.251C318.769 112.76 319.088 112.194 319.293 111.584L321.411 105.278C321.774 104.198 323.188 103.944 323.904 104.831C324.554 105.635 325.813 105.516 326.301 104.605L331.687 94.5404C332.214 93.5549 332.554 92.4799 332.688 91.3702L333.766 82.4559L334.329 75.1459C334.409 74.1132 334.767 73.1214 335.366 72.2762L336.189 71.1139C337.448 69.3372 339.86 68.8244 341.733 69.9354L343.12 70.7585C343.682 71.0917 344.386 71.0667 344.923 70.6945L346.539 69.5732C347.403 68.9741 347.512 66.2789 347.106 65.3093C346.749 64.4557 346.368 63.5453 345.635 62.9313C344.701 62.1484 343.809 61.8147 342.915 61.4804C342.031 61.15 341.146 60.819 340.217 60.0535C339.016 59.0635 338.36 58.0991 337.642 57.0436C337.208 56.4059 336.752 55.7351 336.139 55.0052Z"/>
</mask>
<path d="M336.139 55.0052L336.905 54.3622L336.139 55.0052ZM192.733 64.863L192.144 64.0546L192.091 64.0932L192.044 64.1384L192.733 64.863ZM202.573 138.635L202.676 137.64L202.669 137.64L202.661 137.639L202.573 138.635ZM333.766 82.4559L334.759 82.576L334.762 82.5544L334.764 82.5327L333.766 82.4559ZM345.635 62.9313L346.278 62.1649V62.1649L345.635 62.9313ZM342.915 61.4804L343.265 60.5437L342.915 61.4804ZM340.217 60.0535L340.853 59.2818L340.853 59.2818L340.217 60.0535ZM337.642 57.0436L336.815 57.606V57.606L337.642 57.0436ZM343.12 70.7585L343.63 69.8985L343.12 70.7585ZM344.923 70.6945L344.353 69.8728L344.923 70.6945ZM336.189 71.1139L337.005 71.692L336.189 71.1139ZM341.733 69.9354L341.223 70.7955L341.733 69.9354ZM334.329 75.1459L335.326 75.2227L334.329 75.1459ZM331.687 94.5404L332.569 95.0122L331.687 94.5404ZM332.688 91.3702L333.681 91.4903L332.688 91.3702ZM326.301 104.605L325.419 104.133L326.301 104.605ZM321.411 105.278L322.359 105.597L321.411 105.278ZM318.354 113.251L317.59 112.605L318.354 113.251ZM319.293 111.584L320.241 111.902L319.293 111.584ZM311.265 121.633L312.029 122.279L311.265 121.633ZM307.868 120.916L307.052 120.338L307.868 120.916ZM302.479 127.984L303.019 128.826L302.479 127.984ZM303.667 126.85L302.85 126.272L303.667 126.85ZM295.481 132.469L294.942 131.627L295.481 132.469ZM291.5 132.026L290.811 131.302L291.5 132.026ZM284.957 137.533L285.261 138.485L284.957 137.533ZM286.954 136.349L286.265 135.625L286.954 136.349ZM279.058 139.419L279.363 140.372L279.058 139.419ZM275.77 137.204L275.168 136.406L275.77 137.204ZM270.437 141.116L270.847 142.028L270.437 141.116ZM271.142 140.698L270.54 139.9L271.142 140.698ZM263.718 144.138L264.128 145.05L263.718 144.138ZM259.903 142.276L260.5 143.078L259.903 142.276ZM251.464 147.797L251.294 146.812L251.464 147.797ZM253.883 146.759L254.481 147.561L253.883 146.759ZM245.238 148.872L245.068 147.886L245.238 148.872ZM240.79 145.921L240.42 144.992L240.79 145.921ZM236.088 147.796L235.718 146.867L236.088 147.796ZM226.938 147.229L227.082 146.239L226.938 147.229ZM215.45 144.712L215.877 143.807L215.45 144.712ZM218.1 145.064L217.924 144.079L218.1 145.064ZM210.089 139.409L209.987 140.404L210.089 139.409ZM197.047 138.148L197.135 137.152L197.047 138.148ZM194.442 134.532L194.361 133.535L194.442 134.532ZM188.463 134.747L188.768 133.795L188.463 134.747ZM189.858 134.907L189.777 133.911L189.858 134.907ZM184.182 133.377L183.877 134.329L184.182 133.377ZM183.23 130.167L183.295 129.169L183.23 130.167ZM174.924 129.779L174.714 128.801L174.924 129.779ZM176.048 129.697L175.983 130.695L176.048 129.697ZM174.73 129.82L174.521 128.842L174.73 129.82ZM168.702 119.178L169.6 119.618L168.702 119.178ZM170.884 114.723L171.782 115.163L170.884 114.723ZM169.188 110.861L168.208 110.661L169.188 110.861ZM170.644 105.952L171.426 106.576L170.644 105.952ZM169.844 107.662L168.864 107.461L169.844 107.662ZM173.415 102.48L172.633 101.856L173.415 102.48ZM172.056 99.2341L171.11 98.9094L172.056 99.2341ZM174.573 93.5068L173.884 92.7822L174.573 93.5068ZM173.388 95.3522L174.334 95.6768L173.388 95.3522ZM177.742 85.1499L178.603 85.6579L177.742 85.1499ZM183.209 77.1315L182.657 76.2974L183.209 77.1315ZM189.18 68.242L188.491 67.5173L189.18 68.242ZM197.455 61.4244L196.867 60.616L197.455 61.4244ZM200.199 53.8818L200.762 54.7086L200.199 53.8818ZM199.246 54.8213L198.428 54.2468L199.246 54.8213ZM204.933 50.6604L205.496 51.4871L204.933 50.6604ZM209.307 42.6726L209.765 43.562L209.307 42.6726ZM208.234 43.4353L207.545 42.7106L208.234 43.4353ZM217.215 38.6079L217.672 39.4972L217.215 38.6079ZM216.906 35.5731L216.347 34.7443L216.906 35.5731ZM226.094 29.9476L226.02 28.9503L226.094 29.9476ZM224.333 30.5579L223.774 29.7292L224.333 30.5579ZM230.736 29.6053L230.809 30.6026L230.736 29.6053ZM231.927 25.8965L232.403 26.776L231.927 25.8965ZM236.782 23.5936L236.687 22.598L236.782 23.5936ZM235.415 24.0093L235.891 24.8888L235.415 24.0093ZM244.607 19.5977L243.917 18.873L244.607 19.5977ZM255.612 17.4936L255.474 18.484L255.612 17.4936ZM254.373 17.502L254.221 16.5135L254.373 17.502ZM264.193 18.6898L264.331 17.6994L264.193 18.6898ZM265.053 16.1447L265.742 16.8693L265.053 16.1447ZM265.915 15.3248L266.605 16.0494L265.915 15.3248ZM282.847 19.591L282.43 20.4998L282.847 19.591ZM224.194 143.975L224.018 142.99L224.194 143.975ZM297.778 25.0581L297.371 25.9713L297.778 25.0581ZM295.828 23.8715L295.204 24.6532L295.828 23.8715ZM275.768 16.3399L275.35 17.2486L275.768 16.3399ZM273.303 15.6033L273.452 14.6146L273.303 15.6033ZM242.79 21.3253L243.479 22.05L242.79 21.3253ZM210.888 142.559L211.315 141.654L210.888 142.559ZM307.761 29.5127L308.169 28.5995L307.761 29.5127ZM314.289 34.8531C319.38 39.3545 329.234 48.336 335.373 55.6483L336.905 54.3622C330.659 46.9229 320.702 37.8532 315.614 33.3548L314.289 34.8531ZM297.371 25.9713L307.354 30.4259L308.169 28.5995L298.186 24.1448L297.371 25.9713ZM287.606 18.5898L295.204 24.6532L296.452 23.0899L288.854 17.0266L287.606 18.5898ZM275.35 17.2486L282.43 20.4998L283.264 18.6823L276.185 15.4311L275.35 17.2486ZM267.566 15.7466L273.153 16.5921L273.452 14.6146L267.865 13.7691L267.566 15.7466ZM265.742 16.8693L266.605 16.0494L265.226 14.6001L264.364 15.42L265.742 16.8693ZM255.474 18.484L264.055 19.6802L264.331 17.6994L255.75 16.5032L255.474 18.484ZM246.534 19.7146L254.524 18.4905L254.221 16.5135L246.231 17.7377L246.534 19.7146ZM243.479 22.05L245.296 20.3223L243.917 18.873L242.101 20.6007L243.479 22.05ZM236.876 24.5891L242.432 24.0624L242.244 22.0713L236.687 22.598L236.876 24.5891ZM232.403 26.776L235.891 24.8888L234.939 23.1298L231.451 25.017L232.403 26.776ZM226.167 30.9449L230.809 30.6026L230.662 28.608L226.02 28.9503L226.167 30.9449ZM217.466 36.4018L224.893 31.3867L223.774 29.7292L216.347 34.7443L217.466 36.4018ZM209.765 43.562L217.672 39.4972L216.758 37.7185L208.85 41.7832L209.765 43.562ZM206.116 46.8293L208.923 44.1599L207.545 42.7106L204.738 45.38L206.116 46.8293ZM200.762 54.7086L205.496 51.4871L204.371 49.8337L199.637 53.0551L200.762 54.7086ZM197.362 59.2464L200.065 55.3958L198.428 54.2468L195.725 58.0975L197.362 59.2464ZM193.321 65.6714L198.044 62.2328L196.867 60.616L192.144 64.0546L193.321 65.6714ZM189.869 68.9666L193.422 65.5876L192.044 64.1384L188.491 67.5173L189.869 68.9666ZM183.76 77.9657L189.134 74.4132L188.031 72.7448L182.657 76.2974L183.76 77.9657ZM178.603 85.6579L182.124 79.6884L180.401 78.6724L176.881 84.6419L178.603 85.6579ZM175.262 94.2314L179.839 89.8783L178.461 88.429L173.884 92.7822L175.262 94.2314ZM173.002 99.5587L174.334 95.6768L172.443 95.0275L171.11 98.9094L173.002 99.5587ZM171.426 106.576L174.196 103.104L172.633 101.856L169.862 105.328L171.426 106.576ZM170.168 111.062L170.823 107.863L168.864 107.461L168.208 110.661L170.168 111.062ZM169.6 119.618L171.782 115.163L169.986 114.283L167.804 118.738L169.6 119.618ZM169.057 124.416L169.061 121.93L167.062 121.927L167.057 124.412L169.057 124.416ZM174.714 128.801L174.521 128.842L174.94 130.798L175.133 130.757L174.714 128.801ZM183.295 129.169L176.113 128.699L175.983 130.695L183.165 131.164L183.295 129.169ZM188.768 133.795L184.487 132.424L183.877 134.329L188.158 135.7L188.768 133.795ZM194.361 133.535L189.777 133.911L189.94 135.904L194.524 135.528L194.361 133.535ZM202.661 137.639L197.135 137.152L196.96 139.144L202.486 139.631L202.661 137.639ZM210.192 138.415L202.676 137.64L202.471 139.63L209.987 140.404L210.192 138.415ZM215.877 143.807L211.315 141.654L210.461 143.463L215.024 145.616L215.877 143.807ZM224.018 142.99L217.924 144.079L218.276 146.048L224.37 144.959L224.018 142.99ZM233.323 147.149L227.082 146.239L226.794 148.218L233.035 149.128L233.323 147.149ZM240.42 144.992L235.718 146.867L236.459 148.725L241.161 146.85L240.42 144.992ZM251.294 146.812L245.068 147.886L245.408 149.857L251.634 148.783L251.294 146.812ZM259.306 141.474L253.286 145.957L254.481 147.561L260.5 143.078L259.306 141.474ZM270.027 140.204L263.308 143.226L264.128 145.05L270.847 142.028L270.027 140.204ZM275.168 136.406L270.54 139.9L271.745 141.496L276.373 138.002L275.168 136.406ZM284.652 136.58L278.754 138.467L279.363 140.372L285.261 138.485L284.652 136.58ZM290.811 131.302L286.265 135.625L287.643 137.074L292.189 132.751L290.811 131.302ZM301.939 127.142L294.942 131.627L296.021 133.311L303.019 128.826L301.939 127.142ZM307.052 120.338L302.85 126.272L304.483 127.428L308.684 121.494L307.052 120.338ZM317.59 112.605L310.501 120.987L312.029 122.279L319.117 113.897L317.59 112.605ZM320.463 104.96L318.345 111.265L320.241 111.902L322.359 105.597L320.463 104.96ZM330.805 94.0685L325.419 104.133L327.182 105.077L332.569 95.0122L330.805 94.0685ZM332.774 82.3358L331.695 91.2501L333.681 91.4903L334.759 82.576L332.774 82.3358ZM333.332 75.0691L332.769 82.3792L334.764 82.5327L335.326 75.2227L333.332 75.0691ZM335.373 70.5359L334.55 71.6981L336.182 72.8543L337.005 71.692L335.373 70.5359ZM343.63 69.8985L342.243 69.0754L341.223 70.7955L342.61 71.6186L343.63 69.8985ZM345.969 68.7515L344.353 69.8728L345.492 71.5162L347.109 70.3949L345.969 68.7515ZM344.993 63.6978C345.507 64.1288 345.808 64.7965 346.184 65.6953L348.029 64.9232C347.69 64.115 347.229 62.9617 346.278 62.1649L344.993 63.6978ZM342.564 62.417C343.457 62.7508 344.203 63.0355 344.993 63.6978L346.278 62.1649C345.199 61.2613 344.161 60.8786 343.265 60.5437L342.564 62.417ZM339.581 60.8251C340.652 61.7074 341.68 62.0862 342.564 62.417L343.265 60.5437C342.383 60.2138 341.641 59.9307 340.853 59.2818L339.581 60.8251ZM336.815 57.606C337.535 58.6643 338.26 59.7359 339.581 60.8251L340.853 59.2818C339.773 58.3912 339.185 57.534 338.469 56.4811L336.815 57.606ZM335.373 55.6483C335.95 56.3348 336.381 56.967 336.815 57.606L338.469 56.4811C338.036 55.8448 337.554 55.1353 336.905 54.3622L335.373 55.6483ZM347.109 70.3949C347.582 70.067 347.841 69.5481 347.991 69.126C348.152 68.6743 348.247 68.1655 348.294 67.6769C348.342 67.1841 348.345 66.6772 348.307 66.2169C348.27 65.7732 348.188 65.3045 348.029 64.9232L346.184 65.6953C346.227 65.7988 346.284 66.0307 346.314 66.3837C346.342 66.7202 346.34 67.1064 346.303 67.4835C346.266 67.8648 346.197 68.2027 346.107 68.4552C346.007 68.7372 345.928 68.7798 345.969 68.7515L347.109 70.3949ZM342.61 71.6186C343.508 72.1514 344.634 72.1114 345.492 71.5162L344.353 69.8728C344.138 70.0219 343.855 70.032 343.63 69.8985L342.61 71.6186ZM337.005 71.692C337.963 70.3403 339.798 69.9502 341.223 70.7955L342.243 69.0754C339.922 67.6986 336.933 68.334 335.373 70.5359L337.005 71.692ZM335.326 75.2227C335.392 74.3704 335.688 73.5518 336.182 72.8543L334.55 71.6981C333.847 72.6909 333.426 73.856 333.332 75.0691L335.326 75.2227ZM332.569 95.0122C333.155 93.9174 333.532 92.7231 333.681 91.4903L331.695 91.2501C331.576 92.2366 331.274 93.1924 330.805 94.0685L332.569 95.0122ZM323.126 105.459C324.225 106.82 326.357 106.619 327.182 105.077L325.419 104.133C325.269 104.413 324.882 104.45 324.682 104.202L323.126 105.459ZM322.359 105.597C322.471 105.264 322.906 105.186 323.126 105.459L324.682 104.202C323.469 102.702 321.078 103.131 320.463 104.96L322.359 105.597ZM319.117 113.897C319.615 113.309 319.996 112.632 320.241 111.902L318.345 111.265C318.18 111.756 317.924 112.21 317.59 112.605L319.117 113.897ZM308.621 121.482C309.007 123.038 310.993 123.503 312.029 122.279L310.501 120.987C310.499 120.989 310.5 120.988 310.505 120.984C310.51 120.981 310.515 120.979 310.521 120.977C310.531 120.974 310.536 120.975 310.536 120.975C310.537 120.976 310.542 120.977 310.55 120.984C310.554 120.988 310.557 120.992 310.56 120.997C310.563 121.002 310.563 121.004 310.563 121.001L308.621 121.482ZM308.684 121.494C308.687 121.49 308.686 121.492 308.681 121.496C308.676 121.5 308.67 121.503 308.664 121.505C308.659 121.508 308.655 121.508 308.652 121.508C308.65 121.509 308.649 121.508 308.649 121.508C308.649 121.508 308.648 121.508 308.646 121.507C308.644 121.506 308.64 121.504 308.636 121.5C308.631 121.496 308.627 121.491 308.623 121.485C308.62 121.48 308.62 121.478 308.621 121.482L310.563 121.001C310.158 119.369 308.024 118.966 307.052 120.338L308.684 121.494ZM303.019 128.826C303.592 128.458 304.089 127.984 304.483 127.428L302.85 126.272C302.606 126.618 302.296 126.913 301.939 127.142L303.019 128.826ZM292.819 132.792C293.598 133.756 294.977 133.98 296.021 133.311L294.942 131.627C294.757 131.746 294.513 131.706 294.375 131.536L292.819 132.792ZM292.189 132.751C292.371 132.578 292.662 132.597 292.819 132.792L294.375 131.536C293.483 130.432 291.839 130.324 290.811 131.302L292.189 132.751ZM285.261 138.485C286.152 138.201 286.966 137.718 287.643 137.074L286.265 135.625C285.806 136.061 285.255 136.387 284.652 136.58L285.261 138.485ZM276.588 138.123C276.434 139.653 277.898 140.84 279.363 140.372L278.754 138.467C278.661 138.496 278.568 138.421 278.578 138.325L276.588 138.123ZM276.373 138.002C276.407 137.977 276.429 137.973 276.444 137.972C276.465 137.971 276.492 137.976 276.52 137.992C276.549 138.008 276.567 138.029 276.577 138.047C276.584 138.06 276.593 138.081 276.588 138.123L278.578 138.325C278.766 136.471 276.655 135.283 275.168 136.406L276.373 138.002ZM270.847 142.028C271.165 141.884 271.466 141.706 271.745 141.496L270.54 139.9C270.381 140.02 270.208 140.122 270.027 140.204L270.847 142.028ZM260.938 143.263C261.132 144.779 262.735 145.677 264.128 145.05L263.308 143.226C263.139 143.302 262.945 143.193 262.922 143.01L260.938 143.263ZM260.5 143.078C260.669 142.952 260.911 143.055 260.938 143.263L262.922 143.01C262.701 141.283 260.702 140.434 259.306 141.474L260.5 143.078ZM251.634 148.783C252.666 148.605 253.641 148.186 254.481 147.561L253.286 145.957C252.698 146.394 252.016 146.687 251.294 146.812L251.634 148.783ZM242.198 147.465C242.386 149.035 243.851 150.126 245.408 149.857L245.068 147.886C244.639 147.96 244.235 147.66 244.184 147.227L242.198 147.465ZM241.161 146.85C241.625 146.665 242.138 146.969 242.198 147.465L244.184 147.227C243.968 145.427 242.104 144.32 240.42 144.992L241.161 146.85ZM233.035 149.128C234.192 149.297 235.373 149.158 236.459 148.725L235.718 146.867C234.958 147.17 234.132 147.267 233.323 147.149L233.035 149.128ZM224.806 145.403C224.54 146.738 225.447 148.022 226.794 148.218L227.082 146.239C226.869 146.208 226.725 146.005 226.767 145.793L224.806 145.403ZM215.024 145.616C216.037 146.094 217.173 146.245 218.276 146.048L217.924 144.079C217.23 144.203 216.515 144.108 215.877 143.807L215.024 145.616ZM209.987 140.404C209.989 140.404 209.984 140.404 209.976 140.401C209.968 140.397 209.961 140.393 209.954 140.387C209.942 140.377 209.938 140.368 209.937 140.364C209.935 140.36 209.933 140.351 209.937 140.335C209.938 140.327 209.942 140.319 209.946 140.311C209.95 140.304 209.953 140.301 209.952 140.302L211.33 141.751C212.531 140.609 211.84 138.585 210.192 138.415L209.987 140.404ZM194.913 136.024C194.427 137.481 195.43 139.009 196.96 139.144L197.135 137.152C196.892 137.13 196.733 136.888 196.81 136.656L194.913 136.024ZM194.524 135.528C194.794 135.506 194.999 135.767 194.913 136.024L196.81 136.656C197.35 135.038 196.06 133.396 194.361 133.535L194.524 135.528ZM188.158 135.7C188.733 135.884 189.338 135.953 189.94 135.904L189.777 133.911C189.436 133.938 189.093 133.899 188.768 133.795L188.158 135.7ZM183.13 131.069C182.06 132.086 182.47 133.879 183.877 134.329L184.487 132.424C184.487 132.424 184.488 132.425 184.49 132.426C184.492 132.427 184.494 132.428 184.497 132.43C184.502 132.433 184.507 132.438 184.512 132.443C184.52 132.452 184.523 132.46 184.524 132.465C184.525 132.47 184.526 132.479 184.523 132.491C184.521 132.497 184.518 132.503 184.515 132.509C184.513 132.512 184.512 132.514 184.51 132.516C184.509 132.517 184.508 132.518 184.508 132.518L183.13 131.069ZM183.165 131.164C183.168 131.165 183.164 131.165 183.155 131.161C183.148 131.158 183.14 131.154 183.133 131.149C183.121 131.139 183.117 131.13 183.116 131.128C183.115 131.125 183.113 131.116 183.116 131.101C183.118 131.093 183.121 131.084 183.125 131.077C183.129 131.069 183.132 131.067 183.13 131.069L184.508 132.518C185.736 131.35 184.986 129.279 183.295 129.169L183.165 131.164ZM175.133 130.757C175.412 130.697 175.698 130.676 175.983 130.695L176.113 128.699C175.645 128.668 175.174 128.703 174.714 128.801L175.133 130.757ZM167.057 124.412C167.05 128.566 170.878 131.667 174.94 130.798L174.521 128.842C171.706 129.445 169.052 127.295 169.057 124.416L167.057 124.412ZM167.804 118.738C167.317 119.731 167.063 120.821 167.062 121.927L169.061 121.93C169.063 121.129 169.247 120.338 169.6 119.618L167.804 118.738ZM169.705 113.525C169.998 113.651 170.126 113.997 169.986 114.283L171.782 115.163C172.425 113.849 171.838 112.265 170.494 111.687L169.705 113.525ZM168.208 110.661C167.965 111.849 168.59 113.046 169.705 113.525L170.494 111.687C170.251 111.583 170.115 111.321 170.168 111.062L168.208 110.661ZM169.862 105.328C169.366 105.951 169.024 106.682 168.864 107.461L170.823 107.863C170.92 107.392 171.126 106.951 171.426 106.576L169.862 105.328ZM172.567 101.654C172.655 101.678 172.69 101.785 172.633 101.856L174.196 103.104C175.151 101.907 174.567 100.123 173.089 99.7231L172.567 101.654ZM171.11 98.9094C170.711 100.073 171.379 101.332 172.567 101.654L173.089 99.7231C173.018 99.7039 172.978 99.6284 173.002 99.5587L171.11 98.9094ZM173.884 92.7822C173.23 93.4039 172.736 94.1741 172.443 95.0275L174.334 95.6768C174.523 95.1275 174.841 94.6317 175.262 94.2314L173.884 92.7822ZM178.339 87.9923C178.54 88.0365 178.61 88.2873 178.461 88.429L179.839 89.8783C181.15 88.6321 180.535 86.4278 178.769 86.039L178.339 87.9923ZM176.881 84.6419C176.101 85.9642 176.84 87.6623 178.339 87.9923L178.769 86.039C178.599 86.0015 178.515 85.8083 178.603 85.6579L176.881 84.6419ZM182.657 76.2974C181.735 76.9074 180.963 77.7196 180.401 78.6724L182.124 79.6884C182.531 78.9973 183.091 78.4082 183.76 77.9657L182.657 76.2974ZM188.234 71.4351C188.566 71.846 188.471 72.4535 188.031 72.7448L189.134 74.4132C190.559 73.4712 190.863 71.5069 189.789 70.1783L188.234 71.4351ZM188.491 67.5173C187.397 68.5569 187.286 70.2616 188.234 71.4351L189.789 70.1783C189.496 69.8153 189.531 69.2881 189.869 68.9666L188.491 67.5173ZM196.947 60.9415C196.921 60.9377 196.881 60.9216 196.848 60.8894C196.818 60.8611 196.804 60.8308 196.797 60.8056C196.791 60.7804 196.79 60.7469 196.803 60.7081C196.818 60.6639 196.845 60.6314 196.867 60.616L198.044 62.2328C199.36 61.2746 198.851 59.2026 197.241 58.9632L196.947 60.9415ZM199.637 53.0551C199.165 53.3761 198.756 53.7798 198.428 54.2468L200.065 55.3958C200.254 55.1265 200.49 54.8937 200.762 54.7086L199.637 53.0551ZM204.505 48.9281C204.733 49.2111 204.672 49.629 204.371 49.8337L205.496 51.4871C206.763 50.6247 207.024 48.8638 206.061 47.6713L204.505 48.9281ZM204.738 45.38C203.748 46.3215 203.646 47.8653 204.505 48.9281L206.061 47.6713C205.857 47.4191 205.881 47.0527 206.116 46.8293L204.738 45.38ZM208.85 41.7832C208.373 42.0286 207.933 42.3408 207.545 42.7106L208.923 44.1599C209.173 43.9215 209.457 43.7202 209.765 43.562L208.85 41.7832ZM216.779 38.0108C216.758 38.0037 216.727 37.9839 216.702 37.9506C216.681 37.9215 216.673 37.8935 216.672 37.8716C216.67 37.8497 216.674 37.8209 216.691 37.7891C216.71 37.7525 216.738 37.7284 216.758 37.7185L217.672 39.4972C219.115 38.7557 218.962 36.6461 217.428 36.1192L216.779 38.0108ZM216.347 34.7443C215.088 35.5944 215.342 37.5173 216.779 38.0108L217.428 36.1192C217.45 36.1265 217.479 36.1449 217.502 36.1743C217.522 36.2005 217.532 36.2268 217.535 36.249C217.538 36.2711 217.536 36.2989 217.523 36.3295C217.508 36.3639 217.484 36.3892 217.466 36.4018L216.347 34.7443ZM226.02 28.9503C225.216 29.0095 224.442 29.2781 223.774 29.7292L224.893 31.3867C225.272 31.1308 225.711 30.9785 226.167 30.9449L226.02 28.9503ZM230.792 28.3096C230.885 28.4248 230.81 28.5971 230.662 28.608L230.809 30.6026C232.566 30.4731 233.454 28.4233 232.347 27.0528L230.792 28.3096ZM231.451 25.017C230.25 25.6669 229.933 27.2473 230.792 28.3096L232.347 27.0528C232.275 26.9635 232.302 26.8307 232.403 26.776L231.451 25.017ZM236.687 22.598C236.075 22.6561 235.48 22.837 234.939 23.1298L235.891 24.8888C236.196 24.7238 236.531 24.6218 236.876 24.5891L236.687 22.598ZM241.96 22.7453C241.752 22.4879 241.914 22.1026 242.244 22.0713L242.432 24.0624C243.691 23.9431 244.31 22.4715 243.516 21.4885L241.96 22.7453ZM246.231 17.7377C245.362 17.8709 244.555 18.2671 243.917 18.873L245.296 20.3223C245.637 19.998 246.069 19.7859 246.534 19.7146L246.231 17.7377ZM255.75 16.5032C255.243 16.4325 254.728 16.4359 254.221 16.5135L254.524 18.4905C254.839 18.4423 255.159 18.4401 255.474 18.484L255.75 16.5032ZM264.199 17.9318C264.188 17.9183 264.173 17.8865 264.17 17.8464C264.168 17.8121 264.177 17.7871 264.186 17.7709C264.195 17.7547 264.212 17.7344 264.243 17.7185C264.278 17.6997 264.314 17.697 264.331 17.6994L264.055 19.6802C265.722 19.9126 266.813 17.9844 265.755 16.675L264.199 17.9318ZM264.364 15.42C263.663 16.0866 263.592 17.1795 264.199 17.9318L265.755 16.675C265.802 16.7332 265.797 16.8178 265.742 16.8693L264.364 15.42ZM267.865 13.7691C266.905 13.6237 265.93 13.9305 265.226 14.6001L266.605 16.0494C266.861 15.8054 267.216 15.6936 267.566 15.7466L267.865 13.7691ZM284.416 18.2175C284.237 18.6746 283.71 18.8872 283.264 18.6823L282.43 20.4998C283.921 21.1845 285.681 20.4741 286.278 18.9461L284.416 18.2175ZM288.854 17.0266C287.351 15.8274 285.116 16.427 284.416 18.2175L286.278 18.9461C286.488 18.4105 287.156 18.2311 287.606 18.5898L288.854 17.0266ZM224.37 144.959C224.631 144.912 224.857 145.143 224.806 145.403L226.767 145.793C227.094 144.151 225.666 142.696 224.018 142.99L224.37 144.959ZM298.186 24.1448C297.565 23.8681 296.983 23.5136 296.452 23.0899L295.204 24.6532C295.868 25.1825 296.596 25.6254 297.371 25.9713L298.186 24.1448ZM276.185 15.4311C275.317 15.0324 274.397 14.7575 273.452 14.6146L273.153 16.5921C273.913 16.707 274.652 16.928 275.35 17.2486L276.185 15.4311ZM242.101 20.6007C241.502 21.1698 241.441 22.1029 241.96 22.7453L243.516 21.4885C243.652 21.6566 243.636 21.901 243.479 22.05L242.101 20.6007ZM195.725 58.0975C194.948 59.2047 195.609 60.7426 196.947 60.9415L197.241 58.9632C197.374 58.9831 197.44 59.1362 197.362 59.2464L195.725 58.0975ZM209.952 140.302C208.964 141.242 209.228 142.881 210.461 143.463L211.315 141.654C211.319 141.656 211.329 141.663 211.337 141.674C211.344 141.684 211.347 141.692 211.348 141.699C211.349 141.705 211.349 141.714 211.345 141.725C211.341 141.738 211.334 141.748 211.33 141.751L209.952 140.302ZM315.614 33.3548C313.389 31.3877 310.868 29.8036 308.169 28.5995L307.354 30.4259C309.88 31.5532 312.228 33.0301 314.289 34.8531L315.614 33.3548Z" fill="black" mask="url(#path-3-inside-2_495_302)"/>
<mask id="path-5-inside-3_495_302" fill="white">
<path fill-rule="evenodd" clip-rule="evenodd" d="M3.5206 103.459C2.11231 104.882 0.00316706 103.185 0.00280228 101.183L4.95032e-08 85.8022C-0.000425644 83.4657 2.68548 82.5362 4.26884 84.2544C4.53426 84.5424 4.4133 84.5236 4.55078 84.8903L5.03576 86.184C5.04559 86.2103 5.05505 86.2353 5.0654 86.2613C5.17624 86.5402 5.89198 88.2849 6.73489 89.0166C7.76521 89.911 8.7432 90.6102 9.84765 90.0405C10.8349 89.5312 10.7429 88.3745 10.6414 87.0992C10.601 86.591 10.559 86.0639 10.5833 85.5513C10.5861 85.4934 10.5888 85.4363 10.5915 85.3801C10.6586 83.976 10.7003 83.1026 10.4006 81.6637C10.3455 81.3992 10.2664 81.1135 10.1739 80.8232C9.60569 79.0399 9.39287 77.128 9.96451 75.3458C10.4841 73.7259 11.6135 72.3962 12.8406 71.218C13.1575 70.9137 13.4561 70.5862 13.6892 70.2536C14.3165 69.3584 14.9057 68.9553 15.6345 68.4567C15.8708 68.295 16.1219 68.1233 16.3937 67.9215C17.318 67.235 18.6632 66.4606 19.4982 65.9992C19.9003 65.777 20.4003 65.968 20.5615 66.3981C20.7701 66.9545 21.5062 67.0665 21.948 66.6691C21.9958 66.6261 22.043 66.5857 22.0889 66.5492C22.6108 66.1331 23.0597 65.9904 23.5617 65.8308C23.8337 65.7443 24.1214 65.6528 24.4447 65.5102L25.5207 65.0357C25.8723 64.8806 26.2556 65.1774 26.1936 65.5566C26.1129 66.0498 26.7418 66.3268 27.0512 65.9343L27.2956 65.6242C27.3549 65.549 27.4317 65.4894 27.5193 65.4508L29.5594 64.5511C30.4965 64.1378 31.4819 65.0341 31.8315 65.9968C31.8793 66.1286 31.9402 66.2499 32.0168 66.3551C32.6564 67.2336 33.3471 66.5841 34.1197 65.8577C34.5383 65.4641 34.9809 65.0479 35.4524 64.8399L35.8173 64.679C37.6187 63.8846 39.8775 64.8904 39.7873 66.8571C39.7385 67.9198 39.5123 68.5816 39.2306 69.4057C39.1418 69.6654 39.0475 69.9413 38.9515 70.251C38.5324 71.6028 38.258 72.3477 37.6753 73.6033C37.4421 74.1059 37.1052 74.7355 36.8435 75.2102C36.6281 75.601 36.7583 76.0949 37.1424 76.3221C37.4533 76.506 37.6061 76.8724 37.5016 77.2183C37.34 77.7531 37.075 78.5362 36.7753 79.0489C36.0582 80.2755 35.2658 80.7343 34.2528 81.3209C34.0099 81.4616 33.7543 81.6096 33.484 81.7773C32.9654 82.0991 32.3062 82.4136 31.6829 82.6816C30.9302 83.0053 30.8445 84.0903 31.5628 84.4846C32.0535 84.7539 32.2009 85.3894 31.8491 85.8249C31.571 86.1692 31.2404 86.5476 30.9414 86.8079C29.7254 87.8668 28.7695 88.1001 27.3131 88.4556C27.2339 88.4749 27.1533 88.4946 27.0711 88.5148C26.5394 88.6453 25.8686 88.726 25.2669 88.7758C24.7104 88.8218 24.448 89.5275 24.8586 89.906C25.1691 90.1922 25.1056 90.696 24.729 90.8871C23.8495 91.3333 22.3781 92.0366 21.2418 92.3625C20.0461 92.7055 19.1932 92.7853 18.1692 92.881C17.7698 92.9184 17.3444 92.9582 16.8626 93.0169C16.4307 93.0696 16.0621 93.1535 15.7143 93.2326C15.0105 93.3927 14.3923 93.5334 13.5092 93.3564C12.9269 93.2398 12.2258 92.9023 11.6514 92.5809C11.0444 92.2414 10.2526 92.4302 9.92124 93.0417C9.79817 93.2688 9.60316 93.4486 9.36682 93.5528L9.06933 93.684C8.41507 93.9725 7.95072 94.5719 7.83479 95.2775L7.8178 95.381C7.7612 95.7254 7.6275 96.0518 7.4296 96.3394C6.97141 97.0051 6.09529 98.3031 5.53625 99.2889C5.18112 99.9152 4.98063 100.516 4.78918 101.089C4.50505 101.94 4.24083 102.731 3.5206 103.459Z"/>
</mask>
<path d="M6.73489 89.0166L6.07934 89.7717H6.07934L6.73489 89.0166ZM9.84765 90.0405L10.3061 90.9292L10.3061 90.9292L9.84765 90.0405ZM10.6414 87.0992L11.6383 87.0199L10.6414 87.0992ZM10.5833 85.5513L9.58444 85.504V85.504L10.5833 85.5513ZM10.5915 85.3801L9.59262 85.3324H9.59262L10.5915 85.3801ZM10.4006 81.6637L9.4216 81.8676L10.4006 81.6637ZM13.6892 70.2536L14.5082 70.8274L14.5082 70.8274L13.6892 70.2536ZM15.6345 68.4567L15.0698 67.6314L15.6345 68.4567ZM16.3937 67.9215L15.7975 67.1186V67.1186L16.3937 67.9215ZM22.0889 66.5492L22.7122 67.3312V67.3312L22.0889 66.5492ZM23.5617 65.8308L23.8648 66.7837L23.8648 66.7837L23.5617 65.8308ZM24.4447 65.5102L24.0412 64.5952V64.5953L24.4447 65.5102ZM32.0168 66.3551L32.8253 65.7665V65.7665L32.0168 66.3551ZM34.1197 65.8577L33.4347 65.1291V65.1291L34.1197 65.8577ZM35.4524 64.8399L35.0489 63.925V63.925L35.4524 64.8399ZM39.2306 69.4057L40.1768 69.7291V69.7291L39.2306 69.4057ZM38.9515 70.251L39.9066 70.5471V70.5471L38.9515 70.251ZM37.6753 73.6033L36.7682 73.1824V73.1824L37.6753 73.6033ZM36.7753 79.0489L37.6386 79.5536V79.5536L36.7753 79.0489ZM34.2528 81.3209L33.7517 80.4555L33.7517 80.4555L34.2528 81.3209ZM33.484 81.7773L32.9568 80.9276V80.9276L33.484 81.7773ZM30.9414 86.8079L31.5981 87.5621H31.5981L30.9414 86.8079ZM27.3131 88.4556L27.0759 87.4841H27.0759L27.3131 88.4556ZM27.0711 88.5148L27.3096 89.4859L27.3096 89.4859L27.0711 88.5148ZM21.2418 92.3625L21.5175 93.3238H21.5175L21.2418 92.3625ZM18.1692 92.881L18.076 91.8854H18.076L18.1692 92.881ZM16.8626 93.0169L16.9836 94.0096H16.9836L16.8626 93.0169ZM15.7143 93.2326L15.9362 94.2077L15.9362 94.2077L15.7143 93.2326ZM13.5092 93.3564L13.7057 92.3759H13.7057L13.5092 93.3564ZM5.53625 99.2889L4.66638 98.7957L5.53625 99.2889ZM4.78918 101.089L5.73768 101.406H5.73768L4.78918 101.089ZM9.06933 93.684L8.66581 92.769L9.06933 93.684ZM9.36682 93.5528L9.77034 94.4678L9.36682 93.5528ZM25.2669 88.7758L25.3492 89.7724L25.2669 88.7758ZM25.5207 65.0357L25.1172 64.1207L25.5207 65.0357ZM31.8491 85.8249L31.0711 85.1966L31.8491 85.8249ZM21.948 66.6691L21.2792 65.9257L21.948 66.6691ZM31.6829 82.6816L32.078 83.6003L31.6829 82.6816ZM19.4982 65.9992L19.0146 65.124L19.4982 65.9992ZM5.03576 86.184L5.97213 85.833L5.03576 86.184ZM5.0654 86.2613L5.99471 85.892L5.0654 86.2613ZM31.8315 65.9968L32.7714 65.6555L31.8315 65.9968ZM24.729 90.8871L25.1815 91.7789L24.729 90.8871ZM27.0512 65.9343L26.2658 65.3153L27.0512 65.9343ZM36.8435 75.2102L35.9677 74.7275L36.8435 75.2102ZM27.2956 65.6242L28.081 66.2432L27.2956 65.6242ZM27.5193 65.4508L27.9228 66.3658L27.5193 65.4508ZM37.5016 77.2183L38.4589 77.5075L37.5016 77.2183ZM12.8406 71.218L12.148 70.4967L12.8406 71.218ZM1.0028 101.182L1 85.802L-1 85.8024L-0.997198 101.183L1.0028 101.182ZM3.61441 85.2413L4.09939 86.535L5.97213 85.833L5.48715 84.5393L3.61441 85.2413ZM4.13609 86.6306C4.19834 86.7873 4.42016 87.3302 4.74207 87.9375C5.04825 88.5151 5.50902 89.2767 6.07934 89.7717L7.39044 88.2614C7.11785 88.0248 6.7993 87.5482 6.50917 87.0008C6.23478 86.4832 6.0433 86.0143 5.99471 85.892L4.13609 86.6306ZM6.07934 89.7717C6.59258 90.2173 7.20125 90.7153 7.8753 90.9992C8.60829 91.3079 9.44456 91.3736 10.3061 90.9292L9.38921 89.1517C9.14629 89.277 8.94134 89.278 8.65164 89.156C8.303 89.0091 7.90752 88.7103 7.39044 88.2614L6.07934 89.7717ZM10.3061 90.9292C11.1539 90.4918 11.5139 89.7534 11.6385 89.0259C11.7517 88.3648 11.686 87.6198 11.6383 87.0199L9.64458 87.1785C9.69832 87.854 9.7294 88.3249 9.66717 88.6883C9.61631 88.9853 9.52864 89.0798 9.38921 89.1517L10.3061 90.9292ZM11.6383 87.0199C11.5969 86.5001 11.5614 86.0369 11.5822 85.5987L9.58444 85.504C9.55665 86.0908 9.60505 86.6818 9.64458 87.1785L11.6383 87.0199ZM11.5822 85.5987C11.5849 85.5409 11.5877 85.4841 11.5903 85.4278L9.59262 85.3324C9.58993 85.3885 9.5872 85.4458 9.58444 85.504L11.5822 85.5987ZM11.5903 85.4278C11.6579 84.0129 11.7069 83.0312 11.3796 81.4598L9.4216 81.8676C9.69369 83.174 9.65917 83.9392 9.59262 85.3324L11.5903 85.4278ZM11.3796 81.4598C11.3154 81.1518 11.226 80.8314 11.1267 80.5196L9.22108 81.1268C9.30676 81.3957 9.37557 81.6467 9.4216 81.8676L11.3796 81.4598ZM13.5332 71.9394C13.8783 71.608 14.2255 71.2308 14.5082 70.8274L12.8703 69.6797C12.6868 69.9416 12.4367 70.2195 12.148 70.4967L13.5332 71.9394ZM14.5082 70.8274C15.025 70.0899 15.484 69.7713 16.1991 69.2821L15.0698 67.6314C14.3274 68.1393 13.6079 68.627 12.8703 69.6797L14.5082 70.8274ZM16.1991 69.2821C16.4343 69.1212 16.7005 68.9392 16.9899 68.7243L15.7975 67.1186C15.5433 67.3074 15.3073 67.4689 15.0698 67.6314L16.1991 69.2821ZM16.9899 68.7243C17.8553 68.0816 19.1481 67.3352 19.9819 66.8745L19.0146 65.124C18.1784 65.586 16.7808 66.3884 15.7975 67.1186L16.9899 68.7243ZM22.6168 67.4125C22.6529 67.3801 22.6848 67.353 22.7122 67.3312L21.4655 65.7672C21.4012 65.8185 21.3387 65.8721 21.2792 65.9257L22.6168 67.4125ZM22.7122 67.3312C23.0792 67.0386 23.373 66.9401 23.8648 66.7837L23.2587 64.8778C22.7464 65.0407 22.1425 65.2276 21.4655 65.7672L22.7122 67.3312ZM23.8648 66.7837C24.1351 66.6978 24.4699 66.592 24.8482 66.4252L24.0412 64.5953C23.7729 64.7136 23.5324 64.7907 23.2587 64.8778L23.8648 66.7837ZM24.8482 66.4252L25.9242 65.9506L25.1172 64.1207L24.0412 64.5952L24.8482 66.4252ZM27.8366 66.5532L28.081 66.2432L26.5102 65.0052L26.2658 65.3153L27.8366 66.5532ZM27.9228 66.3658L29.9629 65.4661L29.1559 63.6361L27.1158 64.5358L27.9228 66.3658ZM30.8915 66.3381C30.9644 66.5389 31.0657 66.7477 31.2083 66.9436L32.8253 65.7665C32.8147 65.752 32.7942 65.7183 32.7714 65.6555L30.8915 66.3381ZM31.2083 66.9436C31.4493 67.2746 31.7749 67.5713 32.2125 67.7059C32.6603 67.8437 33.0751 67.7659 33.3982 67.6333C33.7062 67.5068 33.9739 67.314 34.1865 67.1409C34.4028 66.9648 34.6178 66.762 34.8047 66.5862L33.4347 65.1291C33.2353 65.3166 33.0742 65.4674 32.9237 65.5899C32.7696 65.7154 32.6798 65.7663 32.6386 65.7832C32.6124 65.7939 32.6864 65.7592 32.8006 65.7944C32.9047 65.8264 32.9041 65.8749 32.8253 65.7665L31.2083 66.9436ZM34.8047 66.5862C35.2593 66.1588 35.5727 65.8798 35.8559 65.7549L35.0489 63.925C34.3891 64.2159 33.8173 64.7693 33.4347 65.1291L34.8047 66.5862ZM35.8559 65.7549L36.2208 65.594L35.4138 63.764L35.0489 63.925L35.8559 65.7549ZM38.7883 66.8113C38.7465 67.7226 38.5619 68.2702 38.2843 69.0822L40.1768 69.7291C40.4626 68.8931 40.7305 68.1171 40.7862 66.9029L38.7883 66.8113ZM38.2843 69.0822C38.1959 69.341 38.0972 69.6296 37.9963 69.9549L39.9066 70.5471C39.9978 70.253 40.0877 69.9898 40.1768 69.7291L38.2843 69.0822ZM37.9963 69.9549C37.5881 71.2717 37.329 71.9739 36.7682 73.1824L38.5824 74.0242C39.1869 72.7215 39.4767 71.9339 39.9066 70.5471L37.9963 69.9549ZM36.7682 73.1824C36.5505 73.6516 36.2277 74.2559 35.9677 74.7275L37.7193 75.6929C37.9827 75.2151 38.3338 74.5601 38.5824 74.0242L36.7682 73.1824ZM36.5444 76.929C36.3827 77.4641 36.1458 78.1442 35.912 78.5442L37.6386 79.5536C38.0042 78.9282 38.2973 78.0421 38.4589 77.5075L36.5444 76.929ZM35.912 78.5442C35.3362 79.5292 34.7471 79.8792 33.7517 80.4555L34.754 82.1863C35.7846 81.5895 36.7803 81.0218 37.6386 79.5536L35.912 78.5442ZM33.7517 80.4555C33.5101 80.5955 33.2419 80.7507 32.9568 80.9276L34.0113 82.627C34.2668 82.4685 34.5097 82.3277 34.754 82.1863L33.7517 80.4555ZM32.9568 80.9276C32.5008 81.2105 31.8945 81.5021 31.2878 81.763L32.078 83.6003C32.7178 83.3251 33.43 82.9877 34.0113 82.627L32.9568 80.9276ZM31.0711 85.1966C30.8016 85.5303 30.5154 85.8529 30.2847 86.0538L31.5981 87.5621C31.9654 87.2422 32.3405 86.808 32.6271 86.4532L31.0711 85.1966ZM30.2847 86.0538C29.264 86.9426 28.5165 87.1325 27.0759 87.4841L27.5502 89.4271C29.0225 89.0677 30.1867 88.7911 31.5981 87.5621L30.2847 86.0538ZM27.0759 87.4841C26.9969 87.5034 26.9156 87.5233 26.8326 87.5436L27.3096 89.4859C27.391 89.4659 27.4709 89.4464 27.5502 89.4271L27.0759 87.4841ZM26.8327 87.5436C26.3791 87.655 25.7712 87.7307 25.1845 87.7792L25.3492 89.7724C25.966 89.7214 26.6998 89.6357 27.3096 89.4859L26.8327 87.5436ZM24.2766 89.9953C23.3966 90.4417 22.0011 91.1044 20.966 91.4013L21.5175 93.3238C22.7552 92.9688 24.3025 92.2248 25.1815 91.7789L24.2766 89.9953ZM20.9661 91.4013C19.8666 91.7166 19.0938 91.7902 18.076 91.8854L18.2623 93.8767C19.2926 93.7803 20.2255 93.6944 21.5175 93.3238L20.9661 91.4013ZM18.076 91.8854C17.6774 91.9227 17.2391 91.9636 16.7415 92.0243L16.9836 94.0096C17.4498 93.9527 17.8622 93.9141 18.2623 93.8767L18.076 91.8854ZM16.7415 92.0243C16.2526 92.0839 15.8379 92.1789 15.4925 92.2575L15.9362 94.2077C16.2863 94.128 16.6089 94.0553 16.9836 94.0096L16.7415 92.0243ZM15.4925 92.2575C14.7992 92.4153 14.3633 92.5077 13.7057 92.3759L13.3127 94.337C14.4213 94.5591 15.2218 94.3702 15.9362 94.2077L15.4925 92.2575ZM13.7057 92.3759C13.2868 92.292 12.7012 92.0224 12.1396 91.7082L11.1632 93.4537C11.7503 93.7821 12.5669 94.1875 13.3127 94.337L13.7057 92.3759ZM8.9633 92.6378L8.66581 92.769L9.47284 94.599L9.77034 94.4678L8.9633 92.6378ZM6.84802 95.1154L6.83102 95.2189L8.80457 95.5431L8.82156 95.4396L6.84802 95.1154ZM6.60584 95.7725C6.14816 96.4374 5.24929 97.7677 4.66638 98.7957L6.40613 99.7822C6.94129 98.8385 7.79466 97.5728 8.25335 96.9063L6.60584 95.7725ZM4.66638 98.7957C4.25726 99.5171 4.03024 100.204 3.84067 100.772L5.73768 101.406C5.93101 100.827 6.10498 100.313 6.40613 99.7822L4.66638 98.7957ZM3.84067 100.772C3.55267 101.634 3.34687 102.212 2.80982 102.755L4.23139 104.162C5.13479 103.249 5.45742 102.245 5.73768 101.406L3.84067 100.772ZM6.83102 95.2189C6.79897 95.414 6.72262 95.6028 6.60584 95.7725L8.25335 96.9063C8.53237 96.5009 8.72344 96.0369 8.80457 95.5431L6.83102 95.2189ZM8.66581 92.769C7.70244 93.1939 7.01872 94.0764 6.84802 95.1154L8.82156 95.4396C8.88272 95.0674 9.12769 94.7512 9.47284 94.599L8.66581 92.769ZM12.1396 91.7082C11.0965 91.1247 9.66576 91.4143 9.04205 92.5652L10.8004 93.5182C10.8225 93.4774 10.8627 93.441 10.9324 93.4231C11.006 93.4041 11.0907 93.4131 11.1632 93.4537L12.1396 91.7082ZM9.04205 92.5652C9.02457 92.5975 8.99687 92.623 8.9633 92.6378L9.77034 94.4678C10.2094 94.2741 10.5718 93.9401 10.8004 93.5182L9.04205 92.5652ZM36.2208 65.594C36.846 65.3183 37.5457 65.3619 38.0565 65.6231C38.5423 65.8714 38.8127 66.2792 38.7883 66.8113L40.7862 66.9029C40.852 65.4683 40.0381 64.3899 38.9668 63.8422C37.9204 63.3073 36.59 63.2453 35.4138 63.764L36.2208 65.594ZM25.1845 87.7792C23.8234 87.8917 23.0836 89.6298 24.1808 90.6412L25.5364 89.1708C25.6705 89.2944 25.6731 89.4669 25.6394 89.5593C25.6072 89.6474 25.5088 89.7592 25.3492 89.7724L25.1845 87.7792ZM25.9242 65.9506C25.5493 66.116 25.1405 65.7995 25.2067 65.3951L27.1805 65.718C27.3707 64.5553 26.1952 63.6453 25.1172 64.1207L25.9242 65.9506ZM31.0816 85.3612C31.0685 85.354 31.0514 85.3356 31.0451 85.3068C31.0419 85.2923 31.041 85.2731 31.0459 85.2512C31.0511 85.2279 31.0614 85.2086 31.0711 85.1966L32.6271 86.4532C33.3978 85.4989 33.0415 84.1555 32.0439 83.6079L31.0816 85.3612ZM19.6252 66.7492C20.1309 68.0983 21.7612 68.1822 22.6168 67.4125L21.2792 65.9257C21.2996 65.9073 21.3216 65.903 21.3449 65.9072C21.3601 65.9099 21.3885 65.9186 21.4211 65.9442C21.4568 65.9722 21.4841 66.0103 21.4979 66.0471L19.6252 66.7492ZM31.2878 81.763C29.8353 82.3876 29.5717 84.5324 31.0816 85.3612L32.0439 83.6079C32.0435 83.6077 32.0481 83.6103 32.0543 83.6168C32.0602 83.623 32.0644 83.6294 32.0669 83.6344C32.0693 83.6391 32.0694 83.6411 32.0691 83.6395C32.0688 83.6379 32.0683 83.6338 32.0687 83.6277C32.0692 83.6217 32.0704 83.6157 32.0722 83.6103C32.074 83.6051 32.0758 83.6019 32.0767 83.6006C32.0774 83.5995 32.0773 83.5999 32.0761 83.6009C32.0747 83.6022 32.0746 83.6017 32.078 83.6003L31.2878 81.763ZM19.9819 66.8745C19.837 66.9545 19.673 66.8767 19.6252 66.7492L21.4979 66.0471C21.1276 65.0593 19.9635 64.5995 19.0146 65.124L19.9819 66.8745ZM4.09939 86.535C4.10976 86.5627 4.122 86.5951 4.13609 86.6306L5.99471 85.892C5.9881 85.8754 5.98143 85.8578 5.97213 85.833L4.09939 86.535ZM3.53347 84.9321C3.58333 84.9862 3.57926 84.9881 3.56047 84.9584C3.54869 84.9397 3.53349 84.9126 3.51883 84.8783C3.50405 84.8437 3.49509 84.8141 3.49018 84.7953C3.4866 84.7816 3.48549 84.7742 3.48986 84.7965C3.49306 84.8128 3.50053 84.8519 3.51014 84.8949C3.53166 84.9911 3.56269 85.1033 3.61441 85.2413L5.48715 84.5393C5.437 84.4055 5.49072 84.5407 5.4254 84.2904C5.39136 84.1599 5.3381 84.0273 5.25059 83.889C5.17554 83.7704 5.08705 83.6666 5.00421 83.5767L3.53347 84.9321ZM29.9629 65.4661C30.012 65.4444 30.1164 65.4149 30.332 65.5699C30.5592 65.7332 30.7781 66.0256 30.8915 66.3381L32.7714 65.6555C32.5353 65.0053 32.0868 64.3682 31.4995 63.946C30.9008 63.5155 30.0439 63.2445 29.1559 63.6361L29.9629 65.4661ZM1 85.802C0.999865 85.0631 1.39922 84.6197 1.87606 84.4498C2.36517 84.2756 3.01166 84.3658 3.53347 84.9321L5.00421 83.5767C3.94266 82.4248 2.45452 82.1207 1.20495 82.5658C-0.0568991 83.0153 -1.00029 84.2049 -1 85.8024L1 85.802ZM24.1808 90.6412C23.993 90.4682 24.014 90.1285 24.2766 89.9953L25.1815 91.7789C26.1973 91.2635 26.3451 89.9163 25.5364 89.1708L24.1808 90.6412ZM25.2067 65.3951C24.9592 66.9077 26.8879 67.757 27.8366 66.5532L26.2658 65.3153C26.5958 64.8966 27.2665 65.192 27.1805 65.718L25.2067 65.3951ZM35.9677 74.7275C35.4963 75.5828 35.7754 76.6754 36.6333 77.1828L37.6514 75.4613C37.7411 75.5144 37.7599 75.6192 37.7193 75.6929L35.9677 74.7275ZM11.1267 80.5196C10.5947 78.85 10.4311 77.1651 10.9167 75.6512L9.0123 75.0403C8.3546 77.0908 8.61664 79.2297 9.22108 81.1268L11.1267 80.5196ZM28.081 66.2432C28.0391 66.2964 27.9848 66.3385 27.9228 66.3658L27.1158 64.5358C26.8786 64.6404 26.6706 64.8016 26.5102 65.0052L28.081 66.2432ZM36.6333 77.1828C36.568 77.1442 36.509 77.0459 36.5444 76.929L38.4589 77.5075C38.7032 76.699 38.3387 75.8678 37.6514 75.4613L36.6333 77.1828ZM10.9167 75.6512C11.3588 74.273 12.3403 73.0847 13.5332 71.9394L12.148 70.4967C10.8867 71.7078 9.60939 73.1788 9.0123 75.0403L10.9167 75.6512ZM-0.997198 101.183C-0.996955 102.517 -0.304865 103.743 0.656976 104.422C1.1465 104.768 1.74881 105.001 2.40153 104.985C3.07286 104.968 3.70992 104.689 4.23139 104.162L2.80981 102.755C2.62713 102.94 2.47245 102.982 2.35222 102.985C2.21338 102.989 2.02432 102.939 1.81048 102.788C1.36559 102.474 1.00292 101.85 1.0028 101.182L-0.997198 101.183Z" fill="black" mask="url(#path-5-inside-3_495_302)"/>
<mask id="path-7-inside-4_495_302" fill="white">
<path fill-rule="evenodd" clip-rule="evenodd" d="M18.9426 95.4535C23.585 93.5257 30.0933 91.8084 34.4382 90.7674C37.4984 90.0342 40.6597 89.8988 43.7871 90.2468L48.5742 90.7794C49.1337 90.8417 49.6991 90.8257 50.2541 90.7319L55.8825 89.7808C56.7579 89.6329 57.5489 90.3252 57.5181 91.2126C57.4924 91.9517 58.045 92.5837 58.7809 92.657L63.5138 93.1285C64.1341 93.1903 64.7423 93.3413 65.3194 93.5768L68.708 94.9599C69.1047 95.1219 69.4159 95.4421 69.5663 95.8434L69.8922 96.7129C69.9954 96.988 69.8658 97.2959 69.5969 97.4145C69.1522 97.6106 69.1574 98.2433 69.6052 98.4322L74.9955 100.705C75.2567 100.815 75.5015 100.961 75.7228 101.138L80.0912 104.635C80.4212 104.899 80.6737 105.247 80.822 105.643L81.4776 107.392C81.5464 107.575 81.46 107.78 81.2808 107.859C81.0192 107.975 80.9822 108.331 81.2147 108.498L84.3932 110.776C84.6475 110.958 84.8668 111.185 85.0407 111.445L86.6607 113.87C86.9214 114.26 86.7669 114.791 86.3375 114.98C85.7965 115.219 85.7271 115.958 86.2143 116.293L88.9887 118.201C89.3264 118.434 89.6053 118.742 89.8031 119.1L92.9115 124.742C93.1187 125.118 92.7896 125.564 92.3693 125.477C91.9245 125.384 91.5953 125.883 91.8546 126.256L95.5259 131.536C95.6714 131.745 95.7902 131.972 95.8797 132.21L96.9051 134.946C97.0875 135.432 96.8584 135.977 96.3831 136.186C95.858 136.418 95.6436 137.049 95.919 137.553L97.981 141.323C98.0995 141.539 98.1828 141.773 98.2278 142.016L98.8473 145.354C98.9171 145.73 98.5427 146.034 98.189 145.888C97.7743 145.718 97.3714 146.155 97.5756 146.555L99.4893 150.296L100.746 153.649C100.959 154.218 100.691 154.854 100.135 155.099C99.5165 155.372 99.2676 156.119 99.5991 156.709L102.023 161.02C102.281 161.48 102.444 161.986 102.504 162.51L103.067 167.503C103.127 168.034 102.616 168.448 102.11 168.279C101.526 168.085 100.978 168.654 101.194 169.23L102.841 173.623C102.992 174.026 103.054 174.458 103.022 174.887L102.807 177.773C102.776 178.181 102.38 178.459 101.987 178.349C101.51 178.215 101.066 178.644 101.183 179.125L101.96 182.323C102.048 182.688 102.056 183.068 101.982 183.437L101.537 185.657C101.446 186.106 101.024 186.41 100.569 186.353C100.031 186.285 99.5617 186.717 99.5844 187.258L99.7347 190.844C99.7589 191.421 99.655 191.996 99.4304 192.528L98.9333 193.706C98.0201 195.869 95.2502 196.492 93.4983 194.929L93.4037 194.844C93.2464 194.704 93.0716 194.585 92.8836 194.489L88.6303 192.326C88.1482 192.08 87.6165 192.556 87.8063 193.062C87.9723 193.505 87.5789 193.954 87.1183 193.848L84.3237 193.205C84.0568 193.144 83.8042 193.032 83.5798 192.875L80.9521 191.038C80.4416 190.681 79.7364 191.012 79.6848 191.633C79.638 192.197 79.0401 192.539 78.53 192.294L75.2212 190.702L70.7614 188.633C70.279 188.41 69.7681 188.883 69.9547 189.381C70.1083 189.791 69.7816 190.221 69.3458 190.182L66.1669 189.901C65.6358 189.854 65.1318 189.645 64.7232 189.303L61.3203 186.45C60.8587 186.063 60.1512 186.309 60.0293 186.899C59.9282 187.388 59.4066 187.665 58.945 187.473L55.0282 185.85C54.4746 185.621 53.9855 185.259 53.6034 184.798L51.1616 181.847C50.7156 181.309 49.8695 181.379 49.5179 181.983C49.2054 182.52 48.4854 182.648 48.007 182.252L44.5094 179.352C44.1038 179.015 43.7727 178.598 43.5372 178.127L41.0393 173.128C40.7752 172.6 40.0308 172.573 39.7295 173.081C39.4599 173.536 38.816 173.574 38.4947 173.154L35.2717 168.943C35.1779 168.821 35.0963 168.689 35.0281 168.551L33.1384 164.715C32.8714 164.173 32.0793 164.236 31.9016 164.813C31.7508 165.303 31.1273 165.447 30.7767 165.074L27.6859 161.779C27.3887 161.462 27.1571 161.089 27.0047 160.683L25.3467 156.26C25.168 155.783 24.6254 155.555 24.1596 155.76C23.7461 155.942 23.2616 155.784 23.0353 155.393L20.019 150.179C19.8514 149.89 19.734 149.574 19.6718 149.245L18.6909 144.067C18.5961 143.567 17.9556 143.412 17.6433 143.814C17.3439 144.2 16.7329 144.077 16.6058 143.606L14.5695 136.055C14.4578 135.641 14.4184 135.211 14.4529 134.784L14.8286 130.135C14.8866 129.417 14.156 128.898 13.4966 129.188C12.8956 129.453 12.2133 129.044 12.1642 128.389L11.5693 120.445C11.5112 119.67 11.5911 118.89 11.8051 118.142L13.4062 112.55L14.8898 108.112C15.1242 107.411 15.175 106.662 15.0372 105.935L14.8031 104.701C14.547 103.351 13.3576 102.38 11.9834 102.4L10.9162 102.415C10.5155 102.421 10.145 102.202 9.95541 101.849L9.127 100.306C8.84073 99.7731 9.55201 98.2275 9.99926 97.8198C10.4209 97.4355 10.8707 97.0255 11.4494 96.9116C12.1874 96.7662 12.788 96.8731 13.3898 96.9802C13.9845 97.0861 14.5802 97.1921 15.3107 97.0552C16.2553 96.8783 16.8779 96.5303 17.5594 96.1493C17.971 95.9192 18.4041 95.6771 18.9426 95.4535Z"/>
</mask>
<path d="M18.9426 95.4535L18.5591 94.53L18.9426 95.4535ZM99.4893 150.296L100.426 149.945L100.406 149.892L100.38 149.841L99.4893 150.296ZM75.2212 190.702L75.6549 189.8L75.6484 189.797L75.6419 189.794L75.2212 190.702ZM13.4062 112.55L12.4578 112.233L12.4509 112.254L12.4448 112.275L13.4062 112.55ZM11.4494 96.9116L11.6426 97.8927H11.6426L11.4494 96.9116ZM13.3898 96.9802L13.565 95.9957L13.565 95.9957L13.3898 96.9802ZM15.3107 97.0552L15.4948 98.0381H15.4948L15.3107 97.0552ZM17.5594 96.1493L17.0714 95.2765V95.2765L17.5594 96.1493ZM10.9162 102.415L10.9304 103.415L10.9162 102.415ZM15.0372 105.935L16.0197 105.749L15.0372 105.935ZM11.8051 118.142L10.8437 117.867L11.8051 118.142ZM14.8286 130.135L13.8318 130.055L14.8286 130.135ZM14.5695 136.055L13.604 136.316L14.5695 136.055ZM20.019 150.179L19.1534 150.68L20.019 150.179ZM23.0353 155.393L23.9009 154.892L23.0353 155.393ZM27.6859 161.779L26.9566 162.463L27.6859 161.779ZM30.7767 165.074L31.506 164.389L30.7767 165.074ZM33.1384 164.715L34.0355 164.273L33.1384 164.715ZM35.2717 168.943L34.4776 169.551L35.2717 168.943ZM35.0281 168.551L35.9251 168.109L35.0281 168.551ZM38.4947 173.154L37.7006 173.762L38.4947 173.154ZM41.0393 173.128L41.9339 172.681L41.0393 173.128ZM44.5094 179.352L45.1477 178.582L44.5094 179.352ZM43.5372 178.127L42.6427 178.574L43.5372 178.127ZM48.007 182.252L47.3687 183.021L48.007 182.252ZM51.1616 181.847L50.3912 182.485L51.1616 181.847ZM55.0282 185.85L54.6454 186.774L55.0282 185.85ZM53.6034 184.798L54.3738 184.16L53.6034 184.798ZM58.945 187.473L59.3278 186.549L58.945 187.473ZM66.1669 189.901L66.0788 190.897L66.1669 189.901ZM64.7232 189.303L64.0808 190.069L64.7232 189.303ZM70.7614 188.633L71.1821 187.726L70.7614 188.633ZM78.53 192.294L78.9636 191.393L78.53 192.294ZM80.9521 191.038L81.525 190.219L80.9521 191.038ZM84.3237 193.205L84.0996 194.18L84.3237 193.205ZM83.5798 192.875L83.0069 193.694L83.5798 192.875ZM87.1183 193.848L87.3424 192.874L87.1183 193.848ZM88.6303 192.326L88.177 193.217L88.6303 192.326ZM93.4037 194.844L92.7379 195.591L93.4037 194.844ZM92.8836 194.489L92.4303 195.38L92.8836 194.489ZM98.9333 193.706L98.012 193.317L98.9333 193.706ZM93.4983 194.929L94.1641 194.183L93.4983 194.929ZM99.7347 190.844L100.734 190.802L99.7347 190.844ZM99.4304 192.528L100.352 192.917L99.4304 192.528ZM99.5844 187.258L98.5853 187.3L99.5844 187.258ZM101.537 185.657L102.517 185.853L101.537 185.657ZM101.96 182.323L102.931 182.087L101.96 182.323ZM101.982 183.437L101.001 183.24L101.982 183.437ZM101.183 179.125L102.155 178.889L101.183 179.125ZM102.807 177.773L103.804 177.848L102.807 177.773ZM102.841 173.623L101.905 173.974L102.841 173.623ZM103.022 174.887L104.019 174.961L103.022 174.887ZM101.194 169.23L102.131 168.879L101.194 169.23ZM103.067 167.503L104.061 167.391L103.067 167.503ZM102.023 161.02L102.894 160.53L102.023 161.02ZM102.504 162.51L101.51 162.622L102.504 162.51ZM99.5991 156.709L100.471 156.219L99.5991 156.709ZM100.746 153.649L99.8096 154L100.746 153.649ZM97.5756 146.555L96.6852 147.01L97.5756 146.555ZM97.981 141.323L98.8584 140.843L97.981 141.323ZM98.2278 142.016L97.2446 142.198L98.2278 142.016ZM95.919 137.553L96.7963 137.073L95.919 137.553ZM96.9051 134.946L95.9688 135.297L96.9051 134.946ZM95.5259 131.536L94.7049 132.107L95.5259 131.536ZM95.8797 132.21L94.9433 132.561L95.8797 132.21ZM91.8546 126.256L91.0336 126.826L91.8546 126.256ZM92.9115 124.742L92.0357 125.224L92.9115 124.742ZM88.9887 118.201L88.4221 119.025L88.9887 118.201ZM89.8031 119.1L90.6789 118.618L89.8031 119.1ZM86.2143 116.293L85.6477 117.117L86.2143 116.293ZM86.6607 113.87L85.8292 114.425L86.6607 113.87ZM84.3932 110.776L84.9758 109.963L84.3932 110.776ZM85.0407 111.445L85.8722 110.889L85.0407 111.445ZM81.2147 108.498L80.6321 109.31L81.2147 108.498ZM80.0912 104.635L80.7161 103.854L80.0912 104.635ZM80.822 105.643L79.8857 105.994L80.822 105.643ZM74.9955 100.705L75.3841 99.7838L74.9955 100.705ZM75.7228 101.138L75.0979 101.919L75.7228 101.138ZM69.6052 98.4322L69.2167 99.3536L69.6052 98.4322ZM68.708 94.9599L69.0859 94.0341L68.708 94.9599ZM69.5663 95.8434L68.6299 96.1944L69.5663 95.8434ZM61.3203 186.45L61.9627 185.684L61.3203 186.45ZM50.2541 90.7319L50.4207 91.7179L50.2541 90.7319ZM63.5138 93.1285L63.4147 94.1235L63.5138 93.1285ZM65.3194 93.5768L65.6973 92.651L65.3194 93.5768ZM81.4776 107.392L82.414 107.041L81.4776 107.392ZM98.8473 145.354L99.8305 145.171L98.8473 145.354ZM69.3458 190.182L69.2577 191.178L69.3458 190.182ZM34.2052 89.7949C29.8575 90.8366 23.2812 92.569 18.5591 94.53L19.3261 96.377C23.8887 94.4823 30.3292 92.7802 34.6712 91.7399L34.2052 89.7949ZM48.6848 89.7856L43.8977 89.2529L43.6766 91.2407L48.4637 91.7733L48.6848 89.7856ZM55.7158 88.7948L50.0875 89.7459L50.4207 91.7179L56.0491 90.7668L55.7158 88.7948ZM63.6129 92.1334L58.8801 91.662L58.6818 93.6521L63.4147 94.1235L63.6129 92.1334ZM69.0859 94.0341L65.6973 92.651L64.9415 94.5027L68.33 95.8858L69.0859 94.0341ZM70.8286 96.3619L70.5026 95.4924L68.6299 96.1944L68.9558 97.0639L70.8286 96.3619ZM75.3841 99.7838L69.9938 97.5107L69.2167 99.3536L74.6069 101.627L75.3841 99.7838ZM80.7161 103.854L76.3477 100.358L75.0979 101.919L79.4663 105.415L80.7161 103.854ZM82.414 107.041L81.7584 105.292L79.8857 105.994L80.5413 107.743L82.414 107.041ZM84.9758 109.963L81.7972 107.685L80.6321 109.31L83.8106 111.589L84.9758 109.963ZM87.4922 113.314L85.8722 110.889L84.2092 112.001L85.8292 114.425L87.4922 113.314ZM89.5554 117.377L86.781 115.47L85.6477 117.117L88.4221 119.025L89.5554 117.377ZM93.7873 124.259L90.6789 118.618L88.9273 119.583L92.0357 125.224L93.7873 124.259ZM96.347 130.965L92.6757 125.685L91.0336 126.826L94.7049 132.107L96.347 130.965ZM97.8415 134.595L96.816 131.859L94.9433 132.561L95.9688 135.297L97.8415 134.595ZM98.8584 140.843L96.7963 137.073L95.0416 138.032L97.1037 141.803L98.8584 140.843ZM99.8305 145.171L99.211 141.833L97.2446 142.198L97.8641 145.536L99.8305 145.171ZM100.38 149.841L98.4659 146.099L96.6852 147.01L98.599 150.752L100.38 149.841ZM101.682 153.298L100.426 149.945L98.5529 150.647L99.8096 154L101.682 153.298ZM102.894 160.53L100.471 156.219L98.7274 157.199L101.151 161.51L102.894 160.53ZM104.061 167.391L103.497 162.398L101.51 162.622L102.074 167.615L104.061 167.391ZM103.777 173.272L102.131 168.879L100.258 169.581L101.905 173.974L103.777 173.272ZM103.804 177.848L104.019 174.961L102.025 174.813L101.809 177.699L103.804 177.848ZM102.931 182.087L102.155 178.889L100.211 179.361L100.988 182.559L102.931 182.087ZM102.517 185.853L102.962 183.633L101.001 183.24L100.556 185.46L102.517 185.853ZM100.734 190.802L100.584 187.216L98.5853 187.3L98.7356 190.886L100.734 190.802ZM99.8546 194.094L100.352 192.917L98.5092 192.139L98.012 193.317L99.8546 194.094ZM92.7379 195.591L92.8325 195.675L94.1641 194.183L94.0695 194.098L92.7379 195.591ZM88.177 193.217L92.4303 195.38L93.3369 193.598L89.0836 191.434L88.177 193.217ZM84.0996 194.18L86.8941 194.823L87.3424 192.874L84.5479 192.231L84.0996 194.18ZM80.3792 191.858L83.0069 193.694L84.1526 192.055L81.525 190.219L80.3792 191.858ZM74.7875 191.603L78.0963 193.195L78.9636 191.393L75.6549 189.8L74.7875 191.603ZM70.3407 189.541L74.8005 191.609L75.6419 189.794L71.1821 187.726L70.3407 189.541ZM66.0788 190.897L69.2577 191.178L69.4338 189.186L66.2549 188.905L66.0788 190.897ZM60.6779 187.216L64.0808 190.069L65.3657 188.536L61.9627 185.684L60.6779 187.216ZM54.6454 186.774L58.5621 188.397L59.3278 186.549L55.4111 184.926L54.6454 186.774ZM50.3912 182.485L52.833 185.435L54.3738 184.16L51.9319 181.21L50.3912 182.485ZM43.8711 180.121L47.3687 183.021L48.6453 181.482L45.1477 178.582L43.8711 180.121ZM40.1448 173.575L42.6427 178.574L44.4317 177.68L41.9339 172.681L40.1448 173.575ZM34.4776 169.551L37.7006 173.762L39.2888 172.547L36.0658 168.336L34.4776 169.551ZM32.2413 165.157L34.131 168.993L35.9251 168.109L34.0355 164.273L32.2413 165.157ZM26.9566 162.463L30.0473 165.758L31.506 164.389L28.4152 161.095L26.9566 162.463ZM24.4103 156.611L26.0683 161.034L27.941 160.332L26.2831 155.909L24.4103 156.611ZM19.1534 150.68L22.1697 155.894L23.9009 154.892L20.8845 149.678L19.1534 150.68ZM17.7083 144.253L18.6893 149.431L20.6543 149.059L19.6734 143.881L17.7083 144.253ZM13.604 136.316L15.6403 143.866L17.5713 143.345L15.535 135.795L13.604 136.316ZM13.8318 130.055L13.4562 134.703L15.4497 134.864L15.8253 130.216L13.8318 130.055ZM10.5721 120.52L11.167 128.464L13.1614 128.314L12.5665 120.37L10.5721 120.52ZM12.4448 112.275L10.8437 117.867L12.7664 118.418L14.3676 112.825L12.4448 112.275ZM13.9414 107.795L12.4578 112.233L14.3546 112.867L15.8382 108.429L13.9414 107.795ZM13.8206 104.888L14.0547 106.122L16.0197 105.749L15.7856 104.515L13.8206 104.888ZM10.9304 103.415L11.9976 103.4L11.9692 101.4L10.902 101.415L10.9304 103.415ZM8.24594 100.779L9.07436 102.322L10.8365 101.376L10.008 99.8333L8.24594 100.779ZM11.2562 95.9304C10.3564 96.1076 9.70398 96.7359 9.32561 97.0808L10.6729 98.5589C11.1379 98.1351 11.385 97.9434 11.6426 97.8927L11.2562 95.9304ZM13.565 95.9957C12.9673 95.8893 12.1979 95.7449 11.2562 95.9304L11.6426 97.8927C12.1768 97.7875 12.6088 97.8569 13.2146 97.9648L13.565 95.9957ZM15.1266 96.0723C14.5951 96.1719 14.1638 96.1023 13.565 95.9957L13.2146 97.9648C13.8051 98.0698 14.5653 98.2123 15.4948 98.0381L15.1266 96.0723ZM17.0714 95.2765C16.394 95.6552 15.896 95.9282 15.1266 96.0723L15.4948 98.0381C16.6146 97.8284 17.3619 97.4053 18.0473 97.0222L17.0714 95.2765ZM18.5591 94.53C17.9606 94.7785 17.4814 95.0473 17.0714 95.2765L18.0473 97.0222C18.4606 96.7912 18.8476 96.5758 19.3261 96.377L18.5591 94.53ZM10.008 99.8333C10.0935 99.9925 10.0438 100.066 10.0689 99.8963C10.0877 99.7687 10.1373 99.5891 10.2189 99.3816C10.2987 99.1784 10.397 98.979 10.4937 98.8162C10.5418 98.7353 10.5855 98.67 10.6219 98.6216C10.6607 98.5697 10.6788 98.5535 10.6729 98.5589L9.3256 97.0808C9.10583 97.2811 8.91796 97.5528 8.77433 97.7946C8.62086 98.0529 8.47541 98.3497 8.35727 98.6505C8.24084 98.9469 8.13834 99.2792 8.09036 99.6041C8.04859 99.8869 8.01733 100.354 8.24594 100.779L10.008 99.8333ZM10.902 101.415C10.8747 101.415 10.8494 101.4 10.8365 101.376L9.07436 102.322C9.44057 103.004 10.1563 103.426 10.9304 103.415L10.902 101.415ZM15.7856 104.515C15.4389 102.687 13.8291 101.373 11.9692 101.4L11.9976 103.4C12.886 103.387 13.655 104.015 13.8206 104.888L15.7856 104.515ZM15.8382 108.429C16.1269 107.566 16.1893 106.643 16.0197 105.749L14.0547 106.122C14.1606 106.68 14.1216 107.256 13.9414 107.795L15.8382 108.429ZM12.5665 120.37C12.5173 119.713 12.585 119.052 12.7664 118.418L10.8437 117.867C10.5972 118.728 10.5052 119.626 10.5721 120.52L12.5665 120.37ZM13.0931 128.273C13.0963 128.272 13.1059 128.269 13.1176 128.27C13.1273 128.271 13.1338 128.274 13.1379 128.276C13.142 128.279 13.1475 128.283 13.1527 128.291C13.159 128.301 13.1612 128.311 13.1614 128.314L11.167 128.464C11.2676 129.807 12.6674 130.647 13.9001 130.103L13.0931 128.273ZM15.8253 130.216C15.9444 128.743 14.4456 127.677 13.0931 128.273L13.9001 130.103C13.9006 130.103 13.8974 130.105 13.8913 130.105C13.8853 130.106 13.8791 130.106 13.8732 130.106C13.8619 130.104 13.8554 130.101 13.8522 130.099C13.849 130.096 13.8434 130.091 13.8385 130.081C13.8359 130.076 13.8339 130.07 13.8327 130.064C13.8316 130.058 13.8319 130.054 13.8318 130.055L15.8253 130.216ZM15.535 135.795C15.4532 135.492 15.4244 135.177 15.4497 134.864L13.4562 134.703C13.4124 135.245 13.4624 135.791 13.604 136.316L15.535 135.795ZM16.8536 143.201C17.0607 142.934 17.4834 143.019 17.5713 143.345L15.6403 143.866C15.9823 145.134 17.6271 145.465 18.433 144.428L16.8536 143.201ZM19.6734 143.881C19.4183 142.535 17.6942 142.119 16.8536 143.201L18.433 144.428C18.217 144.706 17.7739 144.599 17.7083 144.253L19.6734 143.881ZM20.8845 149.678C20.7734 149.486 20.6956 149.277 20.6543 149.059L18.6893 149.431C18.7725 149.871 18.9294 150.293 19.1534 150.68L20.8845 149.678ZM23.7561 154.845C23.8094 154.822 23.8717 154.842 23.9009 154.892L22.1697 155.894C22.6515 156.727 23.6829 157.063 24.5632 156.675L23.7561 154.845ZM26.2831 155.909C25.9027 154.894 24.7476 154.408 23.7561 154.845L24.5632 156.675C24.5032 156.701 24.4333 156.672 24.4103 156.611L26.2831 155.909ZM28.4152 161.095C28.2083 160.874 28.0472 160.615 27.941 160.332L26.0683 161.034C26.2671 161.564 26.569 162.05 26.9566 162.463L28.4152 161.095ZM30.9458 164.519C31.0209 164.275 31.3314 164.203 31.506 164.389L30.0473 165.758C30.9231 166.691 32.4807 166.331 32.8573 165.107L30.9458 164.519ZM34.0355 164.273C33.3686 162.919 31.3898 163.077 30.9458 164.519L32.8573 165.107C32.7688 165.395 32.3743 165.426 32.2413 165.157L34.0355 164.273ZM36.0658 168.336C36.0117 168.265 35.9645 168.189 35.9251 168.109L34.131 168.993C34.2281 169.19 34.3442 169.377 34.4776 169.551L36.0658 168.336ZM38.8693 172.571C38.9609 172.417 39.1796 172.404 39.2888 172.547L37.7006 173.762C38.4524 174.744 39.959 174.655 40.5898 173.591L38.8693 172.571ZM41.9339 172.681C41.3159 171.445 39.5742 171.382 38.8693 172.571L40.5898 173.591C40.4874 173.764 40.2345 173.755 40.1448 173.575L41.9339 172.681ZM45.1477 178.582C44.849 178.334 44.6052 178.027 44.4317 177.68L42.6427 178.574C42.9403 179.17 43.3586 179.697 43.8711 180.121L45.1477 178.582ZM48.6534 181.48C48.6521 181.483 48.6515 181.483 48.6518 181.483C48.652 181.483 48.6524 181.482 48.6527 181.482C48.6531 181.482 48.6521 181.483 48.6497 181.483C48.6472 181.483 48.6461 181.483 48.6466 181.483C48.6469 181.483 48.6474 181.483 48.6476 181.484C48.648 181.484 48.6472 181.483 48.6453 181.482L47.3687 183.021C48.3229 183.813 49.7591 183.557 50.3823 182.486L48.6534 181.48ZM51.9319 181.21C51.0425 180.135 49.3548 180.274 48.6534 181.48L50.3823 182.486C50.3843 182.482 50.3853 182.482 50.3847 182.482C50.3841 182.483 50.3834 182.483 50.3826 182.484C50.3815 182.484 50.3828 182.483 50.3866 182.483C50.3903 182.483 50.3917 182.484 50.3905 182.483C50.3898 182.483 50.3889 182.482 50.3883 182.482C50.3876 182.481 50.3886 182.482 50.3912 182.485L51.9319 181.21ZM55.4111 184.926C55.008 184.759 54.6519 184.496 54.3738 184.16L52.833 185.435C53.3191 186.023 53.9412 186.482 54.6454 186.774L55.4111 184.926ZM59.05 186.697C59.0759 186.571 59.2096 186.5 59.3278 186.549L58.5621 188.397C59.6035 188.829 60.7805 188.205 61.0086 187.101L59.05 186.697ZM66.2549 188.905C65.9278 188.876 65.6174 188.747 65.3657 188.536L64.0808 190.069C64.6463 190.543 65.3437 190.832 66.0788 190.897L66.2549 188.905ZM71.1821 187.726C69.8882 187.126 68.5177 188.397 69.0184 189.732L70.8911 189.03C71.0184 189.37 70.6698 189.693 70.3407 189.541L71.1821 187.726ZM78.6883 191.55C78.6994 191.416 78.842 191.334 78.9636 191.393L78.0963 193.195C79.2382 193.745 80.5765 192.979 80.6814 191.716L78.6883 191.55ZM81.525 190.219C80.3822 189.42 78.8037 190.161 78.6883 191.55L80.6814 191.716C80.6691 191.864 80.501 191.943 80.3792 191.858L81.525 190.219ZM84.5479 192.231C84.4061 192.198 84.2719 192.139 84.1526 192.055L83.0069 193.694C83.3366 193.925 83.7075 194.09 84.0996 194.18L84.5479 192.231ZM86.87 193.413C86.7561 193.109 87.0261 192.801 87.3424 192.874L86.8941 194.823C88.1317 195.107 89.1885 193.9 88.7427 192.711L86.87 193.413ZM89.0836 191.434C87.7886 190.776 86.36 192.053 86.87 193.413L88.7427 192.711C88.8731 193.059 88.5079 193.385 88.177 193.217L89.0836 191.434ZM94.0695 194.098C93.8479 193.901 93.6017 193.732 93.3369 193.598L92.4303 195.38C92.5414 195.437 92.6449 195.508 92.7379 195.591L94.0695 194.098ZM98.012 193.317C97.3655 194.848 95.4044 195.29 94.1641 194.183L92.8325 195.675C95.096 197.695 98.6747 196.889 99.8546 194.094L98.012 193.317ZM98.7356 190.886C98.7536 191.315 98.6763 191.743 98.5092 192.139L100.352 192.917C100.634 192.249 100.764 191.527 100.734 190.802L98.7356 190.886ZM100.694 185.361C99.5424 185.215 98.5366 186.14 98.5853 187.3L100.584 187.216C100.587 187.293 100.52 187.355 100.443 187.345L100.694 185.361ZM100.556 185.46C100.569 185.396 100.629 185.353 100.694 185.361L100.443 187.345C101.419 187.468 102.324 186.817 102.517 185.853L100.556 185.46ZM100.988 182.559C101.042 182.782 101.047 183.015 101.001 183.24L102.962 183.633C103.065 183.122 103.054 182.594 102.931 182.087L100.988 182.559ZM102.256 177.386C101.044 177.046 99.9142 178.137 100.211 179.361L102.155 178.889C102.218 179.151 101.977 179.384 101.717 179.312L102.256 177.386ZM101.809 177.699C101.826 177.477 102.042 177.326 102.256 177.386L101.717 179.312C102.719 179.592 103.727 178.885 103.804 177.848L101.809 177.699ZM101.905 173.974C102.005 174.242 102.046 174.528 102.025 174.813L104.019 174.961C104.062 174.387 103.98 173.811 103.777 173.272L101.905 173.974ZM102.425 167.33C101.044 166.871 99.7468 168.217 100.258 169.581L102.131 168.879C102.21 169.09 102.008 169.299 101.794 169.228L102.425 167.33ZM102.074 167.615C102.052 167.42 102.239 167.268 102.425 167.33L101.794 169.228C102.994 169.627 104.203 168.647 104.061 167.391L102.074 167.615ZM101.151 161.51C101.344 161.853 101.466 162.231 101.51 162.622L103.497 162.398C103.423 161.741 103.218 161.106 102.894 160.53L101.151 161.51ZM99.732 154.184C98.5727 154.695 98.1065 156.095 98.7274 157.199L100.471 156.219C100.429 156.144 100.46 156.049 100.539 156.014L99.732 154.184ZM99.8096 154C99.8367 154.072 99.8027 154.153 99.732 154.184L100.539 156.014C101.58 155.555 102.082 154.363 101.682 153.298L99.8096 154ZM98.5693 144.963C97.2956 144.44 96.0581 145.784 96.6852 147.01L98.4659 146.099C98.6846 146.527 98.253 146.996 97.8087 146.813L98.5693 144.963ZM97.1037 141.803C97.1713 141.926 97.2189 142.06 97.2446 142.198L99.211 141.833C99.1467 141.487 99.0276 141.152 98.8584 140.843L97.1037 141.803ZM95.9796 135.271C94.9185 135.739 94.4851 137.015 95.0416 138.032L96.7963 137.073C96.7962 137.073 96.7968 137.073 96.7974 137.075C96.7979 137.077 96.7983 137.079 96.7985 137.081C96.7988 137.085 96.7982 137.088 96.7977 137.089C96.7973 137.09 96.7963 137.093 96.7937 137.095C96.7924 137.097 96.7908 137.098 96.7892 137.1C96.7875 137.101 96.7865 137.101 96.7867 137.101L95.9796 135.271ZM95.9688 135.297C95.9684 135.296 95.9676 135.293 95.9677 135.289C95.9678 135.286 95.9684 135.283 95.9691 135.282C95.9697 135.28 95.9709 135.278 95.9731 135.276C95.9758 135.273 95.9786 135.272 95.9796 135.271L96.7867 137.101C97.7471 136.678 98.21 135.578 97.8415 134.595L95.9688 135.297ZM94.7049 132.107C94.8029 132.248 94.883 132.401 94.9433 132.561L96.816 131.859C96.6974 131.543 96.5399 131.243 96.347 130.965L94.7049 132.107ZM92.5722 124.497C91.2425 124.222 90.2584 125.712 91.0336 126.826L92.6757 125.685C92.9323 126.054 92.6065 126.547 92.1664 126.456L92.5722 124.497ZM92.0357 125.224C91.8307 124.852 92.1563 124.411 92.5722 124.497L92.1664 126.456C93.423 126.716 94.4067 125.383 93.7873 124.259L92.0357 125.224ZM88.4221 119.025C88.6316 119.169 88.8046 119.36 88.9273 119.583L90.6789 118.618C90.406 118.123 90.0213 117.698 89.5554 117.377L88.4221 119.025ZM85.934 114.065C84.6766 114.62 84.5154 116.339 85.6477 117.117L86.781 115.47C86.9389 115.578 86.9164 115.818 86.741 115.895L85.934 114.065ZM85.8292 114.425C85.7447 114.299 85.7948 114.127 85.934 114.065L86.741 115.895C87.739 115.455 88.0981 114.221 87.4922 113.314L85.8292 114.425ZM83.8106 111.589C83.9672 111.701 84.1022 111.84 84.2092 112.001L85.8722 110.889C85.6315 110.529 85.3278 110.216 84.9758 109.963L83.8106 111.589ZM80.8773 106.945C79.9072 107.372 79.7704 108.693 80.6321 109.31L81.7972 107.685C82.1941 107.969 82.1311 108.577 81.6843 108.774L80.8773 106.945ZM79.4663 105.415C79.6557 105.567 79.8005 105.767 79.8857 105.994L81.7584 105.292C81.5468 104.727 81.1867 104.231 80.7161 103.854L79.4663 105.415ZM74.6069 101.627C74.7833 101.701 74.9485 101.799 75.0979 101.919L76.3477 100.358C76.0544 100.123 75.7302 99.9297 75.3841 99.7838L74.6069 101.627ZM69.1934 96.4995C67.9463 97.0495 67.9608 98.824 69.2167 99.3536L69.9938 97.5107C70.354 97.6626 70.3582 98.1717 70.0004 98.3294L69.1934 96.4995ZM68.9558 97.0639C68.8729 96.8425 68.9771 96.5949 69.1934 96.4995L70.0004 98.3294C70.7545 97.9969 71.1179 97.1336 70.8286 96.3619L68.9558 97.0639ZM68.33 95.8858C68.4687 95.9424 68.5774 96.0542 68.6299 96.1944L70.5026 95.4924C70.2543 94.83 69.7408 94.3014 69.0859 94.0341L68.33 95.8858ZM56.5187 91.1779C56.4748 92.4439 57.4213 93.5265 58.6818 93.6521L58.8801 91.662C58.6688 91.6409 58.5101 91.4594 58.5175 91.2472L56.5187 91.1779ZM56.0491 90.7668C56.3004 90.7243 56.5275 90.9231 56.5187 91.1779L58.5175 91.2472C58.5702 89.7273 57.2154 88.5414 55.7158 88.7948L56.0491 90.7668ZM61.9627 185.684C60.9213 184.811 59.3251 185.366 59.05 186.697L61.0086 187.101C60.9774 187.252 60.7961 187.316 60.6779 187.216L61.9627 185.684ZM48.4637 91.7733C49.1154 91.8458 49.7741 91.8272 50.4207 91.7179L50.0875 89.7459C49.6241 89.8242 49.152 89.8376 48.6848 89.7856L48.4637 91.7733ZM63.4147 94.1235C63.9392 94.1758 64.4535 94.3035 64.9415 94.5027L65.6973 92.651C65.0311 92.3791 64.329 92.2047 63.6129 92.1334L63.4147 94.1235ZM80.5413 107.743C80.4239 107.43 80.5713 107.079 80.8773 106.945L81.6843 108.774C82.3487 108.481 82.6689 107.721 82.414 107.041L80.5413 107.743ZM97.8641 145.536C97.7893 145.133 98.1904 144.808 98.5693 144.963L97.8087 146.813C98.8951 147.26 100.045 146.326 99.8305 145.171L97.8641 145.536ZM69.0184 189.732C68.9136 189.453 69.1365 189.16 69.4338 189.186L69.2577 191.178C70.4267 191.282 71.303 190.129 70.8911 189.03L69.0184 189.732ZM34.6712 91.7399C37.6064 91.0366 40.6505 90.9039 43.6766 91.2407L43.8977 89.2529C40.6689 88.8937 37.3903 89.0318 34.2052 89.7949L34.6712 91.7399Z" fill="black" mask="url(#path-7-inside-4_495_302)"/>
</svg>
