<svg width="159" height="308" viewBox="0 0 159 308" fill="none" xmlns="http://www.w3.org/2000/svg">
<path fill-rule="evenodd" clip-rule="evenodd" d="M47.3263 0C41.299 0 36.4129 4.88609 36.4129 10.9134C36.4129 16.9407 41.299 21.8268 47.3263 21.8268H48.5096V70.4092C32.8993 75.4667 19.1304 84.716 10.5709 98.9242C4.36882 109.219 0.0024742 120.422 0.0024742 132.14C0.0024742 182.608 35.5953 308.001 79.5012 308.001C123.407 308.001 159 182.608 159 132.14C159 120.514 154.861 109.396 148.913 99.1675C140.445 84.6059 126.451 75.2297 110.562 70.1979V21.8263C116.543 21.7718 121.374 16.9068 121.374 10.9134C121.374 4.88609 116.488 0 110.461 0H47.3263Z" fill="#AAE0FF"/>
<path fill-rule="evenodd" clip-rule="evenodd" d="M79.4988 307.77C123.405 307.77 158.998 182.378 158.998 131.91C158.998 105.707 140.799 131.91 105.649 131.91C71.611 131.91 43.202 150.134 15.2785 130.669C6.45348 124.517 0 121.865 0 131.91C0 182.378 35.5928 307.77 79.4988 307.77Z" fill="url(#paint0_linear_390_2328)"/>
<defs>
<linearGradient id="paint0_linear_390_2328" x1="79.4988" y1="120.264" x2="79.4988" y2="307.77" gradientUnits="userSpaceOnUse">
<stop stop-color="#173088"/>
<stop offset="1" stop-color="#36FCFC"/>
</linearGradient>
</defs>
</svg>
