<svg width="413" height="343" viewBox="0 0 413 343" fill="none" xmlns="http://www.w3.org/2000/svg">
<path fill-rule="evenodd" clip-rule="evenodd" d="M179.951 0C174.863 0 170.738 4.12461 170.738 9.21258C170.738 14.3005 174.863 18.4252 179.951 18.4252H180.95V59.4362C167.772 63.7055 156.149 71.5133 148.923 83.5073C143.688 92.1979 140.002 101.655 140.002 111.546C140.002 154.15 170.048 260 207.111 260C244.175 260 274.22 154.15 274.22 111.546C274.22 101.733 270.726 92.3468 265.705 83.7126C258.557 71.4204 246.744 63.5054 233.332 59.2579V18.4248C238.38 18.3787 242.458 14.2719 242.458 9.21258C242.458 4.12461 238.334 0 233.246 0H179.951Z" fill="#AAE0FF"/>
<path fill-rule="evenodd" clip-rule="evenodd" d="M207.109 259.806C244.173 259.806 274.218 153.955 274.218 111.352C274.218 89.2332 258.856 111.352 229.184 111.352V111.352C200.451 111.352 176.469 126.737 152.897 110.305C145.448 105.112 140 102.873 140 111.352C140 153.955 170.046 259.806 207.109 259.806Z" fill="url(#paint0_linear_390_2328)"/>
<path d="M0 342H412.5" stroke="white" stroke-width="2"/>
<defs>
<linearGradient id="paint0_linear_390_2328" x1="207.109" y1="34.212" x2="207.109" y2="259.806" gradientUnits="userSpaceOnUse">
<stop stop-color="#173088"/>
<stop offset="1" stop-color="#36FCFC"/>
</linearGradient>
</defs>
</svg>
