<svg width="303" height="449" viewBox="0 0 303 449" fill="none" xmlns="http://www.w3.org/2000/svg">
<path fill-rule="evenodd" clip-rule="evenodd" d="M262.788 196.99L269.219 178.654L259.783 175.345L220.229 288.119L229.665 291.429L248.678 237.222L291.973 220.542L288.378 211.211L253.024 224.831L258.539 209.106L301.173 193.995L297.833 184.569L262.788 196.99Z" stroke="black" stroke-width="2"/>
<path fill-rule="evenodd" clip-rule="evenodd" d="M73.0217 339.497L100.887 392.608L59.2406 409.003L45.7113 447.577L36.2749 444.267L73.0217 339.497ZM63.6137 396.534L86.8537 387.386L74.8484 364.503L63.6137 396.534Z" stroke="black" stroke-width="2"/>
<path fill-rule="evenodd" clip-rule="evenodd" d="M38.8462 3.599L56.2293 41.889L93.7169 22.8548L56.4174 129.201L46.981 125.891L62.8467 80.656L51.4344 55.518L26.9035 67.864L10.9823 113.258L1.5459 109.948L38.8462 3.599ZM31.6716 54.2692L47.2973 46.4051L40.0381 30.4152L31.6716 54.2692ZM60.367 51.0033L67.6333 67.0087L76.0376 43.0466L60.367 51.0033Z" stroke="black" stroke-width="2"/>
</svg>
