<svg width="312" height="292" viewBox="0 0 312 292" fill="none" xmlns="http://www.w3.org/2000/svg">
<path d="M304.239 72.6243C305.587 73.0535 306.847 73.3787 307.893 73.6173C306.842 73.825 305.575 74.113 304.218 74.5023C300.657 75.5233 296.378 77.2672 293.809 80.1674C291.245 83.0609 289.635 87.9523 288.665 92.0368C288.322 93.4801 288.057 94.8361 287.856 95.9884C287.68 94.8306 287.444 93.4671 287.134 92.0143C286.254 87.9025 284.752 82.9652 282.253 79.9971C279.748 77.022 275.508 75.1526 271.972 74.0269C270.623 73.5978 269.363 73.2725 268.317 73.0339C269.368 72.8262 270.635 72.5382 271.992 72.149C275.553 71.1279 279.832 69.384 282.402 66.4838C284.966 63.5903 286.575 58.6989 287.545 54.6144C287.888 53.1712 288.154 51.8151 288.354 50.6628C288.53 51.8207 288.766 53.1841 289.077 54.637C289.956 58.7487 291.458 63.686 293.957 66.6542C296.462 69.6292 300.702 71.4986 304.239 72.6243Z" stroke="black"/>
<path d="M263.198 67.9991C262.953 66.2473 262.59 64.0167 262.073 61.6026C260.889 56.0676 258.874 49.4592 255.539 45.499C252.199 41.532 246.53 39.0259 241.772 37.5115C239.58 36.8142 237.562 36.321 236.018 35.9912C237.569 35.707 239.597 35.2734 241.803 34.6409C246.593 33.2673 252.315 30.9291 255.742 27.0618C259.163 23.2013 261.322 16.6543 262.628 11.1561C263.198 8.75802 263.609 6.53883 263.893 4.79479C264.138 6.54663 264.501 8.77722 265.017 11.1913C266.202 16.7263 268.216 23.3347 271.551 27.2949C274.892 31.2619 280.561 33.768 285.319 35.2823C287.51 35.9797 289.529 36.4729 291.073 36.8027C289.522 37.0869 287.493 37.5205 285.288 38.153C280.498 39.5266 274.775 41.8648 271.349 45.732C267.928 49.5926 265.768 56.1396 264.463 61.6378C263.893 64.0359 263.481 66.2551 263.198 67.9991Z" stroke="black"/>
<mask id="path-3-inside-1_513_57" fill="white">
<path fill-rule="evenodd" clip-rule="evenodd" d="M133.999 246.732C134.135 245.763 134.24 244.783 134.314 243.793C134.627 239.597 134.353 235.493 133.561 231.562C142.949 230.872 150.845 230.789 156.672 231.293C160.165 231.595 162.707 232.092 164.331 232.689C164.705 232.826 164.985 232.951 165.194 233.057C164.634 233.693 163.617 234.542 162 235.559C158.661 237.66 153.495 240.033 146.767 242.504C142.94 243.909 138.66 245.328 133.999 246.732ZM50.455 262.473C48.0158 258.151 46.277 253.396 45.3805 248.375C36.8107 251.068 29.7498 253.773 24.6735 256.284C21.5001 257.853 19.2901 259.257 17.9788 260.417C17.6713 260.689 17.4497 260.913 17.2909 261.092C18.0449 261.479 19.3022 261.897 21.1799 262.252C25.0553 262.985 30.732 263.303 37.8973 263.14C41.7275 263.053 45.9353 262.831 50.455 262.473ZM44.6911 241.258C35.2921 244.157 27.3633 247.144 21.5701 250.009C18.1801 251.686 15.3322 253.412 13.3409 255.174C11.5723 256.738 9.4191 259.276 10.0246 262.471C10.4793 264.869 12.2773 266.342 13.8757 267.205C15.5249 268.094 17.6058 268.7 19.8786 269.13C24.4611 269.997 30.7027 270.305 38.0561 270.138C43.1468 270.023 48.8503 269.677 55.0246 269.106C55.8171 270.061 56.6488 270.984 57.5175 271.87C47.7761 272.649 38.8882 272.867 31.2372 272.541C22.896 272.186 16.0816 271.186 11.2482 269.595C8.83119 268.799 6.95965 267.871 5.64574 266.841C4.33861 265.816 3.63031 264.729 3.41616 263.599C3.10903 261.979 3.7879 260.052 5.73222 257.82C7.66417 255.603 10.7202 253.238 14.7919 250.811C22.0391 246.492 32.3368 242.075 44.7541 237.994C44.6936 239.089 44.673 240.178 44.6911 241.258ZM44.9249 235.834C32.0729 240.013 21.3405 244.58 13.768 249.093C9.61102 251.57 6.35352 254.063 4.2243 256.506C2.10743 258.936 0.977488 261.473 1.45115 263.972C1.7803 265.708 2.84339 267.185 4.41159 268.415C5.97301 269.639 8.08074 270.658 10.6227 271.495C15.7074 273.169 22.7303 274.18 31.152 274.539C39.353 274.888 48.9343 274.621 59.4375 273.718C66.5822 280.197 75.8603 284.432 86.224 285.205C104.954 286.603 121.854 276.293 129.745 260.462C140.12 257.404 149.367 254.077 157.035 250.678C164.742 247.262 170.907 243.75 175.027 240.331C177.086 238.622 178.675 236.903 179.68 235.192C180.689 233.474 181.138 231.711 180.809 229.974C180.35 227.555 178.479 225.653 175.772 224.187C173.051 222.715 169.326 221.592 164.813 220.791C155.88 219.205 143.629 218.844 129.379 219.739C122.437 206.427 108.975 196.901 92.9016 195.702C68.6148 193.89 47.4033 211.762 44.9249 235.834ZM130.334 221.684C130.788 222.669 131.208 223.672 131.591 224.691C141.817 223.887 150.636 223.744 157.276 224.319C161.01 224.642 164.266 225.207 166.745 226.118C168.95 226.928 171.858 228.501 172.461 231.681C172.916 234.079 171.781 236.108 170.609 237.495C169.4 238.927 167.685 240.252 165.728 241.484C161.78 243.968 156.084 246.539 149.18 249.075C144.177 250.912 138.457 252.761 132.173 254.566C131.783 255.748 131.345 256.908 130.862 258.042C140.48 255.146 149.06 252.025 156.225 248.849C163.858 245.466 169.834 242.042 173.749 238.792C175.707 237.167 177.11 235.619 177.955 234.179C178.797 232.747 179.058 231.476 178.844 230.347C178.547 228.779 177.286 227.281 174.82 225.946C172.366 224.619 168.876 223.543 164.464 222.76C155.92 221.243 144.146 220.86 130.334 221.684ZM165.598 232.492C165.598 232.492 165.596 232.5 165.588 232.517C165.59 232.512 165.591 232.508 165.592 232.505C165.593 232.503 165.593 232.501 165.594 232.5C165.596 232.495 165.597 232.492 165.598 232.492ZM16.7267 260.734C16.7136 260.721 16.7083 260.715 16.709 260.715C16.7097 260.714 16.7162 260.721 16.7267 260.734Z"/>
</mask>
<path fill-rule="evenodd" clip-rule="evenodd" d="M133.999 246.732C134.135 245.763 134.24 244.783 134.314 243.793C134.627 239.597 134.353 235.493 133.561 231.562C142.949 230.872 150.845 230.789 156.672 231.293C160.165 231.595 162.707 232.092 164.331 232.689C164.705 232.826 164.985 232.951 165.194 233.057C164.634 233.693 163.617 234.542 162 235.559C158.661 237.66 153.495 240.033 146.767 242.504C142.94 243.909 138.66 245.328 133.999 246.732ZM50.455 262.473C48.0158 258.151 46.277 253.396 45.3805 248.375C36.8107 251.068 29.7498 253.773 24.6735 256.284C21.5001 257.853 19.2901 259.257 17.9788 260.417C17.6713 260.689 17.4497 260.913 17.2909 261.092C18.0449 261.479 19.3022 261.897 21.1799 262.252C25.0553 262.985 30.732 263.303 37.8973 263.14C41.7275 263.053 45.9353 262.831 50.455 262.473ZM44.6911 241.258C35.2921 244.157 27.3633 247.144 21.5701 250.009C18.1801 251.686 15.3322 253.412 13.3409 255.174C11.5723 256.738 9.4191 259.276 10.0246 262.471C10.4793 264.869 12.2773 266.342 13.8757 267.205C15.5249 268.094 17.6058 268.7 19.8786 269.13C24.4611 269.997 30.7027 270.305 38.0561 270.138C43.1468 270.023 48.8503 269.677 55.0246 269.106C55.8171 270.061 56.6488 270.984 57.5175 271.87C47.7761 272.649 38.8882 272.867 31.2372 272.541C22.896 272.186 16.0816 271.186 11.2482 269.595C8.83119 268.799 6.95965 267.871 5.64574 266.841C4.33861 265.816 3.63031 264.729 3.41616 263.599C3.10903 261.979 3.7879 260.052 5.73222 257.82C7.66417 255.603 10.7202 253.238 14.7919 250.811C22.0391 246.492 32.3368 242.075 44.7541 237.994C44.6936 239.089 44.673 240.178 44.6911 241.258ZM44.9249 235.834C32.0729 240.013 21.3405 244.58 13.768 249.093C9.61102 251.57 6.35352 254.063 4.2243 256.506C2.10743 258.936 0.977488 261.473 1.45115 263.972C1.7803 265.708 2.84339 267.185 4.41159 268.415C5.97301 269.639 8.08074 270.658 10.6227 271.495C15.7074 273.169 22.7303 274.18 31.152 274.539C39.353 274.888 48.9343 274.621 59.4375 273.718C66.5822 280.197 75.8603 284.432 86.224 285.205C104.954 286.603 121.854 276.293 129.745 260.462C140.12 257.404 149.367 254.077 157.035 250.678C164.742 247.262 170.907 243.75 175.027 240.331C177.086 238.622 178.675 236.903 179.68 235.192C180.689 233.474 181.138 231.711 180.809 229.974C180.35 227.555 178.479 225.653 175.772 224.187C173.051 222.715 169.326 221.592 164.813 220.791C155.88 219.205 143.629 218.844 129.379 219.739C122.437 206.427 108.975 196.901 92.9016 195.702C68.6148 193.89 47.4033 211.762 44.9249 235.834ZM130.334 221.684C130.788 222.669 131.208 223.672 131.591 224.691C141.817 223.887 150.636 223.744 157.276 224.319C161.01 224.642 164.266 225.207 166.745 226.118C168.95 226.928 171.858 228.501 172.461 231.681C172.916 234.079 171.781 236.108 170.609 237.495C169.4 238.927 167.685 240.252 165.728 241.484C161.78 243.968 156.084 246.539 149.18 249.075C144.177 250.912 138.457 252.761 132.173 254.566C131.783 255.748 131.345 256.908 130.862 258.042C140.48 255.146 149.06 252.025 156.225 248.849C163.858 245.466 169.834 242.042 173.749 238.792C175.707 237.167 177.11 235.619 177.955 234.179C178.797 232.747 179.058 231.476 178.844 230.347C178.547 228.779 177.286 227.281 174.82 225.946C172.366 224.619 168.876 223.543 164.464 222.76C155.92 221.243 144.146 220.86 130.334 221.684ZM165.598 232.492C165.598 232.492 165.596 232.5 165.588 232.517C165.59 232.512 165.591 232.508 165.592 232.505C165.593 232.503 165.593 232.501 165.594 232.5C165.596 232.495 165.597 232.492 165.598 232.492ZM16.7267 260.734C16.7136 260.721 16.7083 260.715 16.709 260.715C16.7097 260.714 16.7162 260.721 16.7267 260.734Z" fill="white"/>
<path d="M133.999 246.732L133.009 246.593L132.792 248.14L134.288 247.69L133.999 246.732ZM133.561 231.562L133.487 230.564L132.356 230.647L132.58 231.759L133.561 231.562ZM156.672 231.293L156.758 230.296L156.758 230.296L156.672 231.293ZM164.331 232.689L164.676 231.75L164.676 231.75L164.331 232.689ZM165.194 233.057L165.945 233.718L166.798 232.749L165.647 232.165L165.194 233.057ZM162 235.559L162.532 236.406L162.532 236.406L162 235.559ZM146.767 242.504L146.422 241.565L146.422 241.565L146.767 242.504ZM50.455 262.473L50.5338 263.47L52.096 263.347L51.3259 261.982L50.455 262.473ZM45.3805 248.375L46.3649 248.199L46.1651 247.08L45.0807 247.421L45.3805 248.375ZM24.6735 256.284L24.2302 255.387L24.2302 255.387L24.6735 256.284ZM17.9788 260.417L18.6413 261.166L18.6413 261.166L17.9788 260.417ZM17.2909 261.092L16.5432 260.428L15.6863 261.393L16.8344 261.982L17.2909 261.092ZM21.1799 262.252L21.3658 261.269L21.3658 261.269L21.1799 262.252ZM37.8973 263.14L37.8747 262.14L37.8747 262.14L37.8973 263.14ZM21.5701 250.009L21.1267 249.113L21.1267 249.113L21.5701 250.009ZM44.6911 241.258L44.9858 242.214L45.7035 241.993L45.6909 241.242L44.6911 241.258ZM13.3409 255.174L12.6783 254.425L12.6783 254.425L13.3409 255.174ZM10.0246 262.471L9.04214 262.657L9.04214 262.657L10.0246 262.471ZM13.8757 267.205L14.3504 266.324L14.3504 266.324L13.8757 267.205ZM19.8786 269.13L20.0645 268.147L20.0645 268.147L19.8786 269.13ZM38.0561 270.138L38.0787 271.138L38.0787 271.138L38.0561 270.138ZM55.0246 269.106L55.7942 268.468L55.4575 268.062L54.9325 268.111L55.0246 269.106ZM57.5175 271.87L57.5972 272.867L59.727 272.697L58.2318 271.171L57.5175 271.87ZM31.2372 272.541L31.1946 273.54L31.1946 273.54L31.2372 272.541ZM11.2482 269.595L11.561 268.645L11.561 268.645L11.2482 269.595ZM5.64574 266.841L6.26281 266.054L6.26281 266.054L5.64574 266.841ZM3.41616 263.599L2.43365 263.786L2.43365 263.786L3.41616 263.599ZM5.73222 257.82L6.48617 258.477L6.48618 258.477L5.73222 257.82ZM14.7919 250.811L14.28 249.952L14.28 249.952L14.7919 250.811ZM44.7541 237.994L45.7526 238.049L45.8334 236.587L44.4418 237.044L44.7541 237.994ZM44.9249 235.834L45.2341 236.785L45.853 236.584L45.9196 235.936L44.9249 235.834ZM13.768 249.093L13.2561 248.234L13.2561 248.234L13.768 249.093ZM4.2243 256.506L3.47034 255.849L3.47034 255.849L4.2243 256.506ZM1.45115 263.972L0.468644 264.158L0.468644 264.158L1.45115 263.972ZM4.41159 268.415L3.79452 269.202L3.79452 269.202L4.41159 268.415ZM10.6227 271.495L10.31 272.444L10.31 272.444L10.6227 271.495ZM31.152 274.539L31.1095 275.538L31.1095 275.538L31.152 274.539ZM59.4375 273.718L60.1093 272.977L59.7863 272.684L59.3519 272.722L59.4375 273.718ZM129.745 260.462L129.462 259.503L129.044 259.626L128.85 260.016L129.745 260.462ZM157.035 250.678L157.441 251.592L157.441 251.592L157.035 250.678ZM175.027 240.331L175.665 241.101L175.665 241.101L175.027 240.331ZM179.68 235.192L180.542 235.699L180.542 235.699L179.68 235.192ZM180.809 229.974L179.826 230.16L179.826 230.16L180.809 229.974ZM175.772 224.187L176.247 223.308L176.247 223.308L175.772 224.187ZM164.813 220.791L164.639 221.775L164.639 221.775L164.813 220.791ZM129.379 219.739L128.492 220.202L128.793 220.778L129.442 220.737L129.379 219.739ZM130.334 221.684L130.275 220.686L128.812 220.774L129.426 222.103L130.334 221.684ZM131.591 224.691L130.655 225.043L130.919 225.747L131.669 225.688L131.591 224.691ZM157.276 224.319L157.362 223.322L157.362 223.322L157.276 224.319ZM166.745 226.118L167.089 225.179L167.089 225.179L166.745 226.118ZM172.461 231.681L171.479 231.867L171.479 231.867L172.461 231.681ZM170.609 237.495L169.846 236.85L169.846 236.85L170.609 237.495ZM165.728 241.484L166.26 242.33L166.26 242.33L165.728 241.484ZM149.18 249.075L148.835 248.136L148.835 248.136L149.18 249.075ZM132.173 254.566L131.897 253.605L131.389 253.75L131.224 254.252L132.173 254.566ZM130.862 258.042L129.941 257.651L129.105 259.616L131.15 259L130.862 258.042ZM156.225 248.849L155.82 247.935L155.82 247.935L156.225 248.849ZM173.749 238.792L174.388 239.562L174.388 239.562L173.749 238.792ZM177.955 234.179L178.817 234.686L178.817 234.686L177.955 234.179ZM178.844 230.347L177.861 230.533L177.861 230.533L178.844 230.347ZM174.82 225.946L174.344 226.826L174.344 226.826L174.82 225.946ZM164.464 222.76L164.639 221.775L164.639 221.775L164.464 222.76ZM165.588 232.517L164.634 232.219L166.494 232.939L165.588 232.517ZM165.598 232.492L165.444 231.504L165.443 231.504L165.598 232.492ZM165.592 232.505L164.652 232.163L164.651 232.166L165.592 232.505ZM165.594 232.5L164.666 232.128L164.664 232.133L165.594 232.5ZM16.7267 260.734L16.0377 261.458L17.5059 260.107L16.7267 260.734ZM133.317 243.718C133.245 244.687 133.142 245.645 133.009 246.593L134.989 246.871C135.128 245.88 135.236 244.879 135.312 243.867L133.317 243.718ZM132.58 231.759C133.355 235.602 133.623 239.614 133.317 243.718L135.312 243.867C135.631 239.579 135.351 235.384 134.541 231.364L132.58 231.759ZM156.758 230.296C150.857 229.786 142.902 229.873 133.487 230.564L133.634 232.559C142.995 231.871 150.833 231.791 156.586 232.289L156.758 230.296ZM164.676 231.75C162.93 231.109 160.286 230.601 156.758 230.296L156.586 232.289C160.045 232.588 162.484 233.076 163.987 233.627L164.676 231.75ZM165.647 232.165C165.398 232.039 165.081 231.899 164.676 231.75L163.987 233.627C164.328 233.753 164.572 233.862 164.742 233.948L165.647 232.165ZM162.532 236.406C164.189 235.363 165.295 234.455 165.945 233.718L164.444 232.396C163.973 232.93 163.045 233.72 161.467 234.713L162.532 236.406ZM147.112 243.442C153.864 240.962 159.107 238.561 162.532 236.406L161.467 234.713C158.216 236.759 153.125 239.103 146.422 241.565L147.112 243.442ZM134.288 247.69C138.964 246.281 143.264 244.856 147.112 243.442L146.422 241.565C142.617 242.963 138.355 244.375 133.711 245.775L134.288 247.69ZM51.3259 261.982C48.941 257.755 47.2413 253.107 46.3649 248.199L44.396 248.551C45.3128 253.685 47.0906 258.546 49.5841 262.965L51.3259 261.982ZM45.0807 247.421C36.4855 250.122 29.3707 252.845 24.2302 255.387L25.1169 257.18C30.1288 254.701 37.1359 252.014 45.6803 249.329L45.0807 247.421ZM24.2302 255.387C21.026 256.972 18.7248 258.422 17.3162 259.668L18.6413 261.166C19.8554 260.092 21.9742 258.734 25.1169 257.18L24.2302 255.387ZM17.3162 259.668C16.9831 259.962 16.7324 260.215 16.5432 260.428L18.0385 261.756C18.1671 261.611 18.3595 261.415 18.6413 261.166L17.3162 259.668ZM16.8344 261.982C17.7088 262.43 19.0709 262.871 20.994 263.235L21.3658 261.269C19.5335 260.923 18.381 260.527 17.7474 260.202L16.8344 261.982ZM20.994 263.235C24.9704 263.987 30.7279 264.303 37.92 264.14L37.8747 262.14C30.7361 262.302 25.1401 261.984 21.3658 261.269L20.994 263.235ZM37.92 264.14C41.7717 264.053 45.9985 263.829 50.5338 263.47L50.3761 261.476C45.8721 261.833 41.6832 262.054 37.8747 262.14L37.92 264.14ZM22.0134 250.905C27.7398 248.073 35.6125 245.104 44.9858 242.214L44.3964 240.303C34.9716 243.209 26.9869 246.214 21.1267 249.113L22.0134 250.905ZM14.0034 255.923C15.8977 254.247 18.6545 252.567 22.0134 250.905L21.1267 249.113C17.7057 250.805 14.7667 252.577 12.6783 254.425L14.0034 255.923ZM11.0071 262.285C10.5099 259.661 12.2637 257.462 14.0034 255.923L12.6783 254.425C10.8808 256.015 8.32833 258.891 9.04214 262.657L11.0071 262.285ZM14.3504 266.324C12.8632 265.522 11.3797 264.25 11.0071 262.285L9.04214 262.657C9.57889 265.489 11.6913 267.162 13.4009 268.085L14.3504 266.324ZM20.0645 268.147C17.8372 267.726 15.8701 267.144 14.3504 266.324L13.4009 268.085C15.1796 269.044 17.3745 269.674 19.6927 270.113L20.0645 268.147ZM38.0334 269.139C30.707 269.305 24.546 268.995 20.0645 268.147L19.6927 270.113C24.3762 270.999 30.6985 271.306 38.0787 271.138L38.0334 269.139ZM54.9325 268.111C48.7768 268.68 43.0968 269.024 38.0334 269.139L38.0787 271.138C43.1967 271.022 48.9238 270.675 55.1167 270.102L54.9325 268.111ZM58.2318 271.171C57.3824 270.303 56.5691 269.402 55.7942 268.468L54.2551 269.745C55.0651 270.721 55.9152 271.664 56.8032 272.57L58.2318 271.171ZM57.4378 270.874C47.7278 271.65 38.8816 271.866 31.2797 271.542L31.1946 273.54C38.8948 273.868 47.8245 273.649 57.5972 272.867L57.4378 270.874ZM31.2797 271.542C22.9788 271.188 16.2687 270.195 11.561 268.645L10.9355 270.545C15.8945 272.177 22.8131 273.183 31.1946 273.54L31.2797 271.542ZM11.561 268.645C9.2064 267.87 7.45296 266.987 6.26281 266.054L5.02866 267.628C6.46634 268.755 8.45599 269.728 10.9355 270.545L11.561 268.645ZM6.26281 266.054C5.08668 265.132 4.55539 264.24 4.39866 263.413L2.43365 263.786C2.70522 265.218 3.59053 266.5 5.02866 267.628L6.26281 266.054ZM4.39866 263.413C4.17464 262.231 4.62906 260.608 6.48617 258.477L4.97826 257.163C2.94675 259.495 2.04343 261.727 2.43365 263.786L4.39866 263.413ZM6.48618 258.477C8.31948 256.373 11.2748 254.071 15.3039 251.67L14.28 249.952C10.1656 252.404 7.00886 254.833 4.97826 257.163L6.48618 258.477ZM15.3039 251.67C22.4642 247.403 32.6863 243.013 45.0663 238.944L44.4418 237.044C31.9873 241.138 21.6139 245.581 14.28 249.952L15.3039 251.67ZM45.6909 241.242C45.6732 240.185 45.6934 239.121 45.7526 238.049L43.7556 237.939C43.6938 239.058 43.6727 240.171 43.6912 241.275L45.6909 241.242ZM44.6156 234.883C31.7262 239.075 20.9168 243.668 13.2561 248.234L14.28 249.952C21.7641 245.492 32.4197 240.952 45.2341 236.785L44.6156 234.883ZM13.2561 248.234C9.05639 250.737 5.69819 253.292 3.47034 255.849L4.97826 257.163C7.00886 254.833 10.1656 252.404 14.28 249.952L13.2561 248.234ZM3.47034 255.849C1.26791 258.377 -0.0884134 261.219 0.468644 264.158L2.43365 263.786C2.04339 261.727 2.94696 259.495 4.97826 257.163L3.47034 255.849ZM0.468644 264.158C0.855354 266.198 2.09612 267.87 3.79452 269.202L5.02866 267.628C3.59066 266.5 2.70524 265.218 2.43365 263.786L0.468644 264.158ZM3.79452 269.202C5.47968 270.523 7.70549 271.587 10.31 272.444L10.9355 270.545C8.45599 269.728 6.46634 268.755 5.02866 267.628L3.79452 269.202ZM10.31 272.444C15.5204 274.16 22.6474 275.178 31.1095 275.538L31.1946 273.54C22.8131 273.183 15.8945 272.177 10.9355 270.545L10.31 272.444ZM31.1095 275.538C39.3622 275.89 48.9874 275.62 59.5232 274.714L59.3519 272.722C48.8812 273.621 39.3438 273.887 31.1946 273.54L31.1095 275.538ZM86.2984 284.208C76.1646 283.452 67.0949 279.312 60.1093 272.977L58.7658 274.459C66.0696 281.082 75.556 285.412 86.1496 286.203L86.2984 284.208ZM128.85 260.016C121.134 275.496 104.609 285.574 86.2984 284.208L86.1496 286.203C105.298 287.631 122.574 277.09 130.64 260.908L128.85 260.016ZM130.027 261.421C140.435 258.354 149.723 255.013 157.441 251.592L156.63 249.763C149.01 253.141 139.806 256.454 129.462 259.503L130.027 261.421ZM157.441 251.592C165.184 248.16 171.444 244.604 175.665 241.101L174.388 239.562C170.37 242.896 164.3 246.364 156.63 249.763L157.441 251.592ZM175.665 241.101C177.775 239.35 179.457 237.545 180.542 235.699L178.817 234.686C177.892 236.261 176.397 237.895 174.388 239.562L175.665 241.101ZM180.542 235.699C181.635 233.838 182.178 231.828 181.791 229.788L179.826 230.16C180.098 231.593 179.743 233.11 178.817 234.686L180.542 235.699ZM181.791 229.788C181.252 226.943 179.075 224.838 176.247 223.308L175.296 225.067C177.884 226.467 179.449 228.168 179.826 230.16L181.791 229.788ZM176.247 223.308C173.394 221.764 169.551 220.616 164.988 219.806L164.639 221.775C169.101 222.567 172.709 223.667 175.296 225.067L176.247 223.308ZM164.988 219.806C155.945 218.2 143.606 217.843 129.316 218.741L129.442 220.737C143.652 219.844 155.815 220.209 164.639 221.775L164.988 219.806ZM92.8272 196.699C108.541 197.872 121.703 207.183 128.492 220.202L130.265 219.277C123.17 205.67 109.409 195.931 92.976 194.705L92.8272 196.699ZM45.9196 235.936C48.3427 212.401 69.0817 194.928 92.8272 196.699L92.976 194.705C68.1478 192.853 46.4638 211.123 43.9301 235.732L45.9196 235.936ZM129.426 222.103C129.87 223.066 130.28 224.046 130.655 225.043L132.527 224.34C132.135 223.297 131.706 222.272 131.242 221.265L129.426 222.103ZM131.669 225.688C141.868 224.886 150.627 224.747 157.189 225.315L157.362 223.322C150.645 222.741 141.765 222.888 131.512 223.694L131.669 225.688ZM157.189 225.315C160.89 225.635 164.043 226.191 166.4 227.057L167.089 225.179C164.488 224.224 161.131 223.648 157.362 223.322L157.189 225.315ZM166.4 227.057C168.567 227.852 170.984 229.256 171.479 231.867L173.444 231.494C172.733 227.746 169.333 226.003 167.089 225.179L166.4 227.057ZM171.479 231.867C171.851 233.832 170.936 235.559 169.846 236.85L171.373 238.141C172.627 236.657 173.98 234.326 173.444 231.494L171.479 231.867ZM169.846 236.85C168.731 238.169 167.114 239.43 165.195 240.638L166.26 242.33C168.257 241.074 170.069 239.684 171.373 238.141L169.846 236.85ZM165.195 240.638C161.335 243.067 155.714 245.609 148.835 248.136L149.525 250.013C156.454 247.468 162.226 244.869 166.26 242.33L165.195 240.638ZM148.835 248.136C143.859 249.964 138.162 251.805 131.897 253.605L132.449 255.527C138.752 253.717 144.495 251.861 149.525 250.013L148.835 248.136ZM131.224 254.252C130.842 255.408 130.414 256.542 129.941 257.651L131.782 258.434C132.276 257.274 132.723 256.088 133.123 254.879L131.224 254.252ZM155.82 247.935C148.7 251.091 140.161 254.198 130.573 257.085L131.15 259C140.799 256.094 149.419 252.96 156.63 249.763L155.82 247.935ZM173.111 238.023C169.297 241.188 163.415 244.568 155.82 247.935L156.63 249.763C164.3 246.364 170.37 242.896 174.388 239.562L173.111 238.023ZM177.093 233.673C176.327 234.977 175.018 236.44 173.111 238.023L174.388 239.562C176.397 237.895 177.892 236.261 178.817 234.686L177.093 233.673ZM177.861 230.533C178.018 231.36 177.85 232.384 177.093 233.673L178.817 234.686C179.743 233.11 180.098 231.593 179.826 230.16L177.861 230.533ZM174.344 226.826C176.688 228.094 177.645 229.39 177.861 230.533L179.826 230.16C179.449 228.168 177.884 226.467 175.296 225.067L174.344 226.826ZM164.289 223.744C168.651 224.519 172.023 225.57 174.344 226.826L175.296 225.067C172.709 223.667 169.101 222.567 164.639 221.775L164.289 223.744ZM130.394 222.683C144.167 221.86 155.854 222.247 164.289 223.744L164.639 221.775C155.987 220.239 144.126 219.859 130.275 220.686L130.394 222.683ZM166.494 232.939C166.506 232.915 166.52 232.883 166.534 232.846C166.539 232.832 166.552 232.795 166.565 232.747C166.568 232.734 166.587 232.664 166.594 232.573C166.596 232.549 166.611 232.397 166.558 232.214C166.531 232.12 166.456 231.912 166.251 231.735C166.006 231.524 165.703 231.464 165.444 231.504L165.751 233.48C165.493 233.521 165.189 233.461 164.944 233.249C164.739 233.072 164.665 232.865 164.637 232.77C164.584 232.588 164.599 232.436 164.601 232.412C164.608 232.321 164.627 232.252 164.63 232.24C164.642 232.194 164.655 232.161 164.658 232.15C164.669 232.122 164.678 232.102 164.682 232.094L166.494 232.939ZM164.651 232.166C164.645 232.184 164.639 232.201 164.634 232.219L166.543 232.814C166.54 232.823 166.537 232.833 166.533 232.844L164.651 232.166ZM164.664 232.133C164.659 232.145 164.655 232.155 164.652 232.163L166.532 232.847C166.53 232.851 166.528 232.858 166.524 232.867L164.664 232.133ZM165.443 231.504C165.21 231.541 165.054 231.65 164.998 231.692C164.927 231.745 164.879 231.796 164.854 231.824C164.803 231.88 164.77 231.93 164.757 231.95C164.728 231.995 164.709 232.033 164.702 232.047C164.685 232.082 164.672 232.111 164.666 232.128L166.522 232.871C166.518 232.883 166.507 232.909 166.491 232.941C166.484 232.955 166.466 232.991 166.437 233.036C166.424 233.055 166.392 233.105 166.341 233.161C166.316 233.189 166.268 233.24 166.198 233.292C166.141 233.335 165.985 233.444 165.752 233.48L165.443 231.504ZM17.4157 260.009C17.422 260.015 17.4377 260.03 17.458 260.053C17.4653 260.061 17.4892 260.088 17.5169 260.126C17.5243 260.136 17.567 260.193 17.607 260.275C17.6175 260.296 17.687 260.432 17.7047 260.622C17.7138 260.72 17.7202 260.943 17.5919 261.184C17.4385 261.472 17.1749 261.637 16.9202 261.692L16.4978 259.737C16.2431 259.792 15.9794 259.957 15.8261 260.245C15.6977 260.486 15.7041 260.709 15.7132 260.807C15.7309 260.997 15.8005 261.133 15.8111 261.155C15.8513 261.237 15.8944 261.295 15.9024 261.306C15.9313 261.346 15.9572 261.375 15.9673 261.386C15.9934 261.415 16.0183 261.44 16.0377 261.458L17.4157 260.009ZM16.9202 261.692C16.709 261.738 16.5389 261.703 16.466 261.685C16.3812 261.663 16.3169 261.635 16.2815 261.618C16.2107 261.585 16.1598 261.55 16.1394 261.536C16.0934 261.504 16.0606 261.476 16.0491 261.466C16.0206 261.44 16.0001 261.419 15.9914 261.41C15.9706 261.388 15.956 261.371 15.9475 261.36L17.5059 260.107C17.487 260.083 17.4638 260.056 17.4369 260.028C17.4252 260.016 17.4023 259.992 17.372 259.966C17.3597 259.955 17.3262 259.926 17.2797 259.893C17.259 259.879 17.2079 259.844 17.1369 259.811C17.1014 259.794 17.037 259.766 16.9522 259.745C16.8792 259.726 16.7091 259.691 16.4978 259.737L16.9202 261.692Z" fill="black" mask="url(#path-3-inside-1_513_57)"/>
</svg>
